M48
; DRILL file {KiCad (5.1.10)-1} date 05/29/22 18:24:33
; FORMAT={3:3/ absolute / metric / suppress leading zeros}
; #@! TF.CreationDate,2022-05-29T18:24:33-07:00
; #@! TF.GenerationSoftware,Kicad,Pcbnew,(5.1.10)-1
FMAT,2
METRIC,TZ
T1C0.400
T2C0.800
T3C1.000
T4C1.200
T5C3.700
%
G90
G05
T1
X120269Y-153111
X121831Y-156299
X122966Y-139012
X123215Y-160820
X123541Y-139612
X124523Y-138011
X124658Y-146533
X125133Y-154546
X125209Y-152337
X125247Y-147460
X125857Y-103962
X125912Y-136986
X125921Y-158306
X126822Y-135636
X127064Y-110909
X127089Y-137630
X127330Y-97320
X127490Y-108415
X127521Y-107582
X127523Y-96259
X127559Y-101295
X127597Y-99555
X127599Y-112702
X127633Y-113538
X127673Y-95441
X127684Y-114356
X127749Y-119469
X128003Y-109042
X128143Y-162839
X128283Y-121628
X128740Y-124803
X128956Y-133312
X130624Y-104546
X130667Y-105344
X130721Y-134188
X130950Y-139052
X131737Y-104872
X132029Y-163131
X132754Y-135675
X133477Y-163131
X133697Y-102754
X133871Y-98654
X134760Y-102730
X136919Y-163525
X138713Y-111381
X139970Y-98078
X140830Y-97638
X141351Y-129261
X141923Y-92375
X142050Y-111022
X142291Y-103518
X142494Y-121374
X143751Y-93007
X143827Y-125146
X144247Y-129451
X144475Y-119710
X144564Y-103797
X144678Y-106426
X145034Y-111189
X145313Y-158077
X145491Y-146177
X146050Y-129108
X146647Y-138760
X146662Y-141272
X146689Y-142605
X146825Y-119494
X146876Y-143383
X146888Y-123609
X147498Y-122961
X147765Y-129083
X148044Y-111265
X149017Y-129523
X149593Y-119494
X149644Y-163170
X150127Y-134518
X150609Y-129138
X151218Y-122530
X151448Y-118847
X152362Y-138963
X152603Y-124783
X152649Y-125699
X152870Y-96163
X152933Y-134518
X153149Y-122453
X153568Y-128702
X154610Y-119863
X156002Y-165402
X156401Y-164440
X157061Y-95734
X157937Y-164122
X158077Y-121628
X158687Y-95306
X159791Y-108394
X159982Y-150406
X160414Y-111481
X160439Y-94983
X162027Y-126989
X162370Y-117470
X162928Y-112192
X162954Y-154191
X163246Y-121552
X163678Y-161125
X164714Y-119118
X165785Y-119118
X166154Y-158674
X166814Y-144463
X167132Y-136119
X167538Y-97663
X167576Y-146393
X168008Y-94874
X169126Y-94526
X169126Y-98171
X170256Y-135941
X171971Y-137770
X172600Y-121051
X174142Y-137859
X174440Y-117896
X174714Y-122161
X174955Y-125222
X175070Y-164490
X175349Y-117856
X175622Y-119469
X176136Y-93548
X177432Y-164783
X178664Y-164021
X178689Y-93459
X179095Y-117272
X179299Y-106845
X179299Y-112628
X179730Y-124841
X180480Y-122377
X180531Y-103480
X180720Y-152650
X180848Y-129718
X181369Y-93459
X181610Y-117196
X181722Y-112628
X181724Y-130416
X181902Y-159144
X181999Y-154211
X182296Y-152972
X182613Y-78562
X182855Y-120929
X183667Y-124397
X183667Y-130289
X183871Y-93421
X183871Y-120993
X184125Y-125146
X184578Y-129887
X184810Y-121044
X185395Y-129781
X185691Y-118534
X186347Y-120777
X186368Y-117823
X186847Y-86162
X186868Y-158407
X187274Y-112547
X187681Y-152044
X187935Y-145199
X187973Y-144056
X188176Y-105169
X188659Y-118427
X188963Y-124041
X189167Y-120548
X189179Y-129578
X189187Y-127268
X189370Y-112776
X189738Y-135712
X190005Y-84430
X190043Y-121679
X190437Y-120053
X190449Y-104940
X191135Y-126594
X191427Y-112031
X191651Y-135649
X192049Y-134861
X192380Y-124295
X192964Y-164224
X193040Y-104750
X193362Y-131708
X193941Y-131091
X194424Y-108979
X194545Y-130473
X195771Y-164046
X196050Y-110681
X198272Y-106934
X198425Y-163855
X199047Y-107213
X201054Y-108928
X201570Y-144256
X201943Y-102806
X202239Y-103550
X202438Y-160452
X203035Y-139878
X203439Y-138951
X204216Y-95491
X204711Y-137820
X204978Y-91656
X208217Y-161112
X209268Y-142067
X209765Y-145174
X209788Y-140788
X210337Y-139941
X210934Y-139332
X212026Y-139256
X212099Y-142748
T2
X126238Y-165545
X128738Y-165545
X145758Y-165545
X148258Y-165545
X167653Y-165545
X170153Y-165545
X184988Y-165545
X187488Y-165545
X199466Y-123431
X199466Y-125931
X204978Y-165545
X207478Y-165545
T3
X115392Y-86360
X115392Y-88900
X115392Y-91440
X115392Y-93980
X115392Y-99060
X115392Y-101600
X115392Y-104140
X115392Y-106680
X115392Y-109220
X115392Y-111760
X115392Y-116840
X115392Y-119380
X115392Y-121920
X115392Y-124460
X115392Y-127000
X115392Y-129540
X115570Y-164465
X115570Y-167005
X116205Y-141478
X116205Y-144018
X116205Y-146558
X116205Y-149098
X116205Y-151638
X116205Y-154178
X116205Y-156718
X116205Y-159258
X117932Y-86360
X117932Y-88900
X117932Y-91440
X117932Y-93980
X117932Y-99060
X117932Y-101600
X117932Y-104140
X117932Y-106680
X117932Y-109220
X117932Y-111760
X117932Y-116840
X117932Y-119380
X117932Y-121920
X117932Y-124460
X117932Y-127000
X117932Y-129540
X118110Y-134366
X118110Y-136906
X118110Y-164465
X118110Y-167005
X120472Y-86360
X120472Y-88900
X120472Y-91440
X120472Y-93980
X120472Y-99060
X120472Y-101600
X120472Y-104140
X120472Y-106680
X120472Y-109220
X120472Y-111760
X120472Y-116840
X120472Y-119380
X120472Y-121920
X120472Y-124460
X120472Y-127000
X120472Y-129540
X120650Y-134366
X120650Y-136906
X123012Y-86360
X123012Y-88900
X123012Y-91440
X123012Y-93980
X123012Y-99060
X123012Y-101600
X123012Y-104140
X123012Y-106680
X123012Y-109220
X123012Y-111760
X123012Y-116840
X123012Y-119380
X123012Y-121920
X123012Y-124460
X123012Y-127000
X123012Y-129540
X123190Y-134366
X123190Y-136906
X124460Y-77876
X124460Y-80416
X124460Y-82956
X128905Y-141478
X128905Y-144018
X128905Y-146558
X128905Y-149098
X128905Y-151638
X128905Y-154178
X128905Y-156718
X128905Y-159258
X129540Y-78740
X129540Y-81280
X129540Y-83820
X129540Y-86360
X129540Y-88900
X129540Y-91440
X132080Y-78740
X132080Y-81280
X132080Y-83820
X132080Y-86360
X132080Y-88900
X132080Y-91440
X136398Y-141478
X136398Y-144018
X136398Y-146558
X136398Y-149098
X136398Y-151638
X136398Y-154178
X136398Y-156718
X136398Y-159258
X136601Y-121285
X136601Y-126365
X137160Y-78740
X137160Y-81280
X137160Y-83820
X137160Y-86360
X137160Y-88900
X138430Y-134366
X138430Y-136906
X139141Y-121285
X139700Y-78740
X139700Y-81280
X139700Y-83820
X139700Y-86360
X139700Y-88900
X140970Y-134366
X140970Y-136906
X142354Y-99746
X142354Y-114986
X143510Y-78740
X143510Y-81280
X143510Y-83820
X143510Y-86360
X143510Y-88900
X143510Y-134366
X143510Y-136906
X144894Y-99746
X144894Y-114986
X146050Y-78740
X146050Y-81280
X146050Y-83820
X146050Y-86360
X146050Y-88900
X147434Y-99746
X147434Y-114986
X148590Y-78740
X148590Y-81280
X148590Y-83820
X148590Y-86360
X148590Y-88900
X149098Y-141478
X149098Y-144018
X149098Y-146558
X149098Y-149098
X149098Y-151638
X149098Y-154178
X149098Y-156718
X149098Y-159258
X149974Y-99746
X149974Y-114986
X151130Y-78740
X151130Y-81280
X151130Y-83820
X151130Y-86360
X151130Y-88900
X152514Y-99746
X152514Y-114986
X153670Y-78740
X153670Y-81280
X153670Y-83820
X153670Y-86360
X153670Y-88900
X155054Y-99746
X155054Y-114986
X156210Y-78740
X156210Y-81280
X156210Y-83820
X156210Y-86360
X156210Y-88900
X157594Y-99746
X157594Y-114986
X157594Y-141478
X157594Y-144018
X157594Y-146558
X157594Y-149098
X157594Y-151638
X157594Y-154178
X157594Y-156718
X157594Y-159258
X158750Y-78740
X158750Y-81280
X158750Y-83820
X158750Y-86360
X158750Y-88900
X158750Y-134366
X158750Y-136906
X160134Y-99746
X160134Y-114986
X161290Y-78740
X161290Y-81280
X161290Y-83820
X161290Y-86360
X161290Y-88900
X161290Y-134366
X161290Y-136906
X162674Y-99746
X162674Y-114986
X163830Y-134366
X163830Y-136906
X165100Y-78740
X165100Y-81280
X165100Y-83820
X165100Y-86360
X165100Y-88900
X165214Y-99746
X165214Y-114986
X167640Y-78740
X167640Y-81280
X167640Y-83820
X167640Y-86360
X167640Y-88900
X167754Y-99746
X167754Y-114986
X170294Y-99746
X170294Y-114986
X170294Y-141478
X170294Y-144018
X170294Y-146558
X170294Y-149098
X170294Y-151638
X170294Y-154178
X170294Y-156718
X170294Y-159258
X172834Y-99746
X172834Y-114986
X173584Y-80620
X173584Y-88240
X175374Y-99746
X175374Y-114986
X176124Y-80620
X176124Y-88240
X177902Y-141478
X177902Y-144018
X177902Y-146558
X177902Y-149098
X177902Y-151638
X177902Y-154178
X177902Y-156718
X177902Y-159258
X177914Y-99746
X177914Y-114986
X178664Y-80620
X178664Y-88240
X179070Y-134366
X179070Y-136906
X180454Y-99746
X180454Y-114986
X181204Y-80620
X181204Y-88240
X181610Y-134366
X181610Y-136906
X182994Y-99746
X182994Y-114986
X183744Y-80620
X183744Y-88240
X184150Y-134366
X184150Y-136906
X185534Y-99746
X185534Y-114986
X188074Y-99746
X188074Y-114986
X190602Y-141478
X190602Y-144018
X190602Y-146558
X190602Y-149098
X190602Y-151638
X190602Y-154178
X190602Y-156718
X190602Y-159258
X190614Y-99746
X190614Y-114986
X193154Y-99746
X193154Y-114986
X195694Y-99746
X195694Y-114986
X196850Y-134366
X196850Y-136906
X198234Y-99746
X198234Y-114986
X198501Y-141478
X198501Y-144018
X198501Y-146558
X198501Y-149098
X198501Y-151638
X198501Y-154178
X198501Y-156718
X198501Y-159258
X199390Y-134366
X199390Y-136906
X200774Y-99746
X200774Y-114986
X201930Y-134366
X201930Y-136906
X203200Y-78054
X203200Y-80594
X203200Y-83134
X203200Y-88067
X203200Y-90607
X203200Y-93147
X208763Y-85928
X208763Y-88468
X208763Y-91008
X208763Y-93548
X210629Y-111277
X210629Y-113817
X210629Y-116357
X211201Y-141478
X211201Y-144018
X211201Y-146558
X211201Y-149098
X211201Y-151638
X211201Y-154178
X211201Y-156718
X211201Y-159258
X211303Y-85928
X211303Y-88468
X211303Y-91008
X211303Y-93548
T4
X122809Y-142748
X122809Y-145288
X122809Y-147828
X122809Y-150368
X124460Y-171704
X127960Y-171704
X131460Y-171704
X134960Y-171704
X141605Y-171704
X142773Y-142748
X142773Y-145288
X142773Y-147828
X142773Y-150368
X145105Y-171704
X148605Y-171704
X152105Y-171704
X159017Y-171704
X162517Y-171704
X163944Y-142748
X163944Y-145288
X163944Y-147828
X163944Y-150368
X166017Y-171704
X169517Y-171704
X176098Y-171704
X179598Y-171704
X183098Y-171704
X184252Y-142748
X184252Y-145288
X184252Y-147828
X184252Y-150368
X186598Y-171704
X190500Y-80010
X190500Y-89980
X193040Y-80010
X193040Y-89980
X193040Y-171704
X195580Y-80010
X195580Y-89980
X196540Y-171704
X198120Y-80010
X198120Y-89980
X200040Y-171704
X203540Y-171704
X204140Y-147815
X204140Y-150355
X204140Y-152895
X204140Y-155435
X209220Y-99281
X209220Y-102781
X209220Y-124120
X209220Y-127620
X209220Y-131120
X209220Y-134620
T5
X117546Y-79700
X117546Y-172700
X210546Y-79700
X210546Y-172700
T0
M30
