M48
; DRILL file {KiCad (5.1.10)-1} date 04/23/22 00:13:43
; FORMAT={3:3/ absolute / metric / suppress leading zeros}
; #@! TF.CreationDate,2022-04-23T00:13:43-07:00
; #@! TF.GenerationSoftware,Kicad,Pcbnew,(5.1.10)-1
FMAT,2
METRIC,TZ
T1C0.400
T2C0.800
T3C1.000
T4C1.016
T5C1.200
T6C3.700
%
G90
G05
T1
X120269Y-153111
X121831Y-156299
X123215Y-160820
X124625Y-155448
X125014Y-145902
X125298Y-137338
X125628Y-139548
X126225Y-154762
X126238Y-147015
X126657Y-143929
X126872Y-151441
X127470Y-110985
X127470Y-120167
X127521Y-98616
X127521Y-104546
X127521Y-107582
X127521Y-108483
X127540Y-109305
X127559Y-105486
X127572Y-116726
X127597Y-99555
X127597Y-117526
X127597Y-113502
X127599Y-112702
X127660Y-97777
X127660Y-114338
X127673Y-95441
X128143Y-162839
X128956Y-133312
X130721Y-134188
X130950Y-139052
X132029Y-163131
X132445Y-104011
X132753Y-97066
X132754Y-135675
X133350Y-104116
X133477Y-163131
X133998Y-102375
X134930Y-102311
X135585Y-103695
X136386Y-104138
X136919Y-163525
X137417Y-104643
X138367Y-105148
X138713Y-111470
X140589Y-95902
X141923Y-92375
X142050Y-111022
X142151Y-96406
X143751Y-92989
X144678Y-106426
X145034Y-111189
X145313Y-158077
X145491Y-146177
X146647Y-138760
X146662Y-141272
X146716Y-142679
X147117Y-143383
X148044Y-111265
X148666Y-119532
X150127Y-124765
X150127Y-134518
X150787Y-163157
X151016Y-125633
X152362Y-138963
X152933Y-134518
X154610Y-119863
X156002Y-165402
X156401Y-164440
X157937Y-164122
X159271Y-93853
X159791Y-108394
X159982Y-150406
X160312Y-124409
X160414Y-111481
X161366Y-121158
X162027Y-126989
X162370Y-117678
X162928Y-112192
X162954Y-154191
X163246Y-121552
X163678Y-161125
X164714Y-119118
X165785Y-119118
X166154Y-158674
X166408Y-96787
X166814Y-144463
X167132Y-136119
X167576Y-146393
X168008Y-94874
X169126Y-94526
X169366Y-97146
X170038Y-137635
X170561Y-111938
X171133Y-139078
X173139Y-139154
X174545Y-118001
X175070Y-164490
X175451Y-118072
X175767Y-119323
X177330Y-89344
X177394Y-111506
X177432Y-164783
X177521Y-95377
X178368Y-124705
X178664Y-164021
X179133Y-92030
X179299Y-106845
X179299Y-112628
X179591Y-124689
X179692Y-125997
X180492Y-94717
X180531Y-103480
X181055Y-152520
X181407Y-81572
X181722Y-112628
X181902Y-159144
X181999Y-154211
X182423Y-152413
X184061Y-82460
X184569Y-97206
X184645Y-93904
X186342Y-94742
X186868Y-158407
X186969Y-91897
X186982Y-125989
X187274Y-112547
X187390Y-119183
X187439Y-86182
X187681Y-152044
X187935Y-145199
X187973Y-144056
X188176Y-105169
X188505Y-82888
X189370Y-112776
X189738Y-135712
X190449Y-104940
X191427Y-112031
X191757Y-135649
X191872Y-85547
X192380Y-124295
X192964Y-164224
X193040Y-104750
X193362Y-131708
X193472Y-135484
X193941Y-131091
X194424Y-108979
X194545Y-130473
X195771Y-164046
X196050Y-110681
X198272Y-106934
X198425Y-163855
X199047Y-107213
X201054Y-108928
X201498Y-145669
X201943Y-102806
X202239Y-103550
X202413Y-142596
X202438Y-160452
X204216Y-95491
X204978Y-91656
X205435Y-159195
X208051Y-140056
X208805Y-140894
X209295Y-141626
X209910Y-139145
X210261Y-134099
X210439Y-132944
X210490Y-131839
T2
X126238Y-165545
X128738Y-165545
X131902Y-109487
X131902Y-119647
X135725Y-122187
X135725Y-129807
X138265Y-122187
X138265Y-129807
X140805Y-122187
X140805Y-129807
X143345Y-122187
X143345Y-129807
X145758Y-165545
X145885Y-122187
X145885Y-129807
X148258Y-165545
X148425Y-122187
X148425Y-129807
X150965Y-122187
X150965Y-129807
X153505Y-122187
X153505Y-129807
X156045Y-122187
X156045Y-129807
X158585Y-122187
X158585Y-129807
X166446Y-122479
X166446Y-130099
X167653Y-165545
X168986Y-122479
X168986Y-130099
X170153Y-165545
X170561Y-78740
X170561Y-88900
X171526Y-122479
X171526Y-130099
X173063Y-89433
X173063Y-92024
X174066Y-122479
X174066Y-130099
X176606Y-122479
X176606Y-130099
X179146Y-122479
X179146Y-130099
X181686Y-122479
X181686Y-130099
X183223Y-89433
X183223Y-92024
X184226Y-122479
X184226Y-130099
X184988Y-165545
X186690Y-78740
X186690Y-88900
X186766Y-122479
X186766Y-130099
X187488Y-165545
X189306Y-122479
X189306Y-130099
X199466Y-123431
X199466Y-125931
X204978Y-165545
X207478Y-165545
T3
X115392Y-86360
X115392Y-88900
X115392Y-91440
X115392Y-93980
X115392Y-99060
X115392Y-101600
X115392Y-104140
X115392Y-106680
X115392Y-109220
X115392Y-111760
X115392Y-116840
X115392Y-119380
X115392Y-121920
X115392Y-124460
X115392Y-127000
X115392Y-129540
X115570Y-164465
X115570Y-167005
X116205Y-141478
X116205Y-144018
X116205Y-146558
X116205Y-149098
X116205Y-151638
X116205Y-154178
X116205Y-156718
X116205Y-159258
X117411Y-135001
X117411Y-137541
X117932Y-86360
X117932Y-88900
X117932Y-91440
X117932Y-93980
X117932Y-99060
X117932Y-101600
X117932Y-104140
X117932Y-106680
X117932Y-109220
X117932Y-111760
X117932Y-116840
X117932Y-119380
X117932Y-121920
X117932Y-124460
X117932Y-127000
X117932Y-129540
X118110Y-164465
X118110Y-167005
X119951Y-135001
X119951Y-137541
X120472Y-86360
X120472Y-88900
X120472Y-91440
X120472Y-93980
X120472Y-99060
X120472Y-101600
X120472Y-104140
X120472Y-106680
X120472Y-109220
X120472Y-111760
X120472Y-116840
X120472Y-119380
X120472Y-121920
X120472Y-124460
X120472Y-127000
X120472Y-129540
X122492Y-135001
X122492Y-137541
X123012Y-86360
X123012Y-88900
X123012Y-91440
X123012Y-93980
X123012Y-99060
X123012Y-101600
X123012Y-104140
X123012Y-106680
X123012Y-109220
X123012Y-111760
X123012Y-116840
X123012Y-119380
X123012Y-121920
X123012Y-124460
X123012Y-127000
X123012Y-129540
X124460Y-77876
X124460Y-80416
X124460Y-82956
X128905Y-141478
X128905Y-144018
X128905Y-146558
X128905Y-149098
X128905Y-151638
X128905Y-154178
X128905Y-156718
X128905Y-159258
X129540Y-78740
X129540Y-81280
X129540Y-83820
X129540Y-86360
X129540Y-88900
X129540Y-91440
X132080Y-78740
X132080Y-81280
X132080Y-83820
X132080Y-86360
X132080Y-88900
X132080Y-91440
X132194Y-127737
X136322Y-135001
X136322Y-137541
X136398Y-141478
X136398Y-144018
X136398Y-146558
X136398Y-149098
X136398Y-151638
X136398Y-154178
X136398Y-156718
X136398Y-159258
X137160Y-78740
X137160Y-81280
X137160Y-83820
X137160Y-86360
X137160Y-88900
X138265Y-119647
X138862Y-135001
X138862Y-137541
X139700Y-78740
X139700Y-81280
X139700Y-83820
X139700Y-86360
X139700Y-88900
X140805Y-119647
X141402Y-135001
X141402Y-137541
X142354Y-99746
X142354Y-114986
X143510Y-78740
X143510Y-81280
X143510Y-83820
X143510Y-86360
X143510Y-88900
X144894Y-99746
X144894Y-114986
X146050Y-78740
X146050Y-81280
X146050Y-83820
X146050Y-86360
X146050Y-88900
X147434Y-99746
X147434Y-114986
X148590Y-78740
X148590Y-81280
X148590Y-83820
X148590Y-86360
X148590Y-88900
X149098Y-141478
X149098Y-144018
X149098Y-146558
X149098Y-149098
X149098Y-151638
X149098Y-154178
X149098Y-156718
X149098Y-159258
X149974Y-99746
X149974Y-114986
X151130Y-78740
X151130Y-81280
X151130Y-83820
X151130Y-86360
X151130Y-88900
X152514Y-99746
X152514Y-114986
X153670Y-78740
X153670Y-81280
X153670Y-83820
X153670Y-86360
X153670Y-88900
X155054Y-99746
X155054Y-114986
X156210Y-78740
X156210Y-81280
X156210Y-83820
X156210Y-86360
X156210Y-88900
X157594Y-99746
X157594Y-114986
X157594Y-141478
X157594Y-144018
X157594Y-146558
X157594Y-149098
X157594Y-151638
X157594Y-154178
X157594Y-156718
X157594Y-159258
X157620Y-135001
X157620Y-137541
X158750Y-78740
X158750Y-81280
X158750Y-83820
X158750Y-86360
X158750Y-88900
X160134Y-99746
X160134Y-114986
X160160Y-135001
X160160Y-137541
X161290Y-78740
X161290Y-81280
X161290Y-83820
X161290Y-86360
X161290Y-88900
X162674Y-99746
X162674Y-114986
X162700Y-135001
X162700Y-137541
X165100Y-78740
X165100Y-81280
X165100Y-83820
X165100Y-86360
X165100Y-88900
X165214Y-99746
X165214Y-114986
X167640Y-78740
X167640Y-81280
X167640Y-83820
X167640Y-86360
X167640Y-88900
X167754Y-99746
X167754Y-114986
X170294Y-99746
X170294Y-114986
X170294Y-141478
X170294Y-144018
X170294Y-146558
X170294Y-149098
X170294Y-151638
X170294Y-154178
X170294Y-156718
X170294Y-159258
X172834Y-99746
X172834Y-114986
X175374Y-99746
X175374Y-114986
X177736Y-135001
X177736Y-137541
X177902Y-141478
X177902Y-144018
X177902Y-146558
X177902Y-149098
X177902Y-151638
X177902Y-154178
X177902Y-156718
X177902Y-159258
X177914Y-99746
X177914Y-114986
X180276Y-135001
X180276Y-137541
X180454Y-99746
X180454Y-114986
X182817Y-135001
X182817Y-137541
X182994Y-99746
X182994Y-114986
X185534Y-99746
X185534Y-114986
X188074Y-99746
X188074Y-114986
X190602Y-141478
X190602Y-144018
X190602Y-146558
X190602Y-149098
X190602Y-151638
X190602Y-154178
X190602Y-156718
X190602Y-159258
X190614Y-99746
X190614Y-114986
X193154Y-99746
X193154Y-114986
X195694Y-99746
X195694Y-114986
X198234Y-99746
X198234Y-114986
X198374Y-141478
X198374Y-144018
X198374Y-146558
X198374Y-149098
X198374Y-151638
X198374Y-154178
X198374Y-156718
X198374Y-159258
X198488Y-135001
X198488Y-137541
X200774Y-99746
X200774Y-114986
X201028Y-135001
X201028Y-137541
X203200Y-78054
X203200Y-80594
X203200Y-83134
X203200Y-88067
X203200Y-90607
X203200Y-93147
X203568Y-135001
X203568Y-137541
X208763Y-85928
X208763Y-88468
X208763Y-91008
X208763Y-93548
X210629Y-111277
X210629Y-113817
X210629Y-116357
X211074Y-141478
X211074Y-144018
X211074Y-146558
X211074Y-149098
X211074Y-151638
X211074Y-154178
X211074Y-156718
X211074Y-159258
X211303Y-85928
X211303Y-88468
X211303Y-91008
X211303Y-93548
T4
X173431Y-78765
X173431Y-86385
X175971Y-78765
X175971Y-86385
X178511Y-78765
X178511Y-86385
X181051Y-78765
X181051Y-86385
X183591Y-78765
X183591Y-86385
T5
X122809Y-142748
X122809Y-145288
X122809Y-147828
X122809Y-150368
X124460Y-171704
X127960Y-171704
X131460Y-171704
X134960Y-171704
X141605Y-171704
X142773Y-142748
X142773Y-145288
X142773Y-147828
X142773Y-150368
X145105Y-171704
X148605Y-171704
X152105Y-171704
X159017Y-171704
X162517Y-171704
X163944Y-142748
X163944Y-145288
X163944Y-147828
X163944Y-150368
X166017Y-171704
X169517Y-171704
X176098Y-171704
X179598Y-171704
X183098Y-171704
X184252Y-142748
X184252Y-145288
X184252Y-147828
X184252Y-150368
X186598Y-171704
X190500Y-80010
X190500Y-89980
X193040Y-80010
X193040Y-89980
X193040Y-171704
X195580Y-80010
X195580Y-89980
X196540Y-171704
X198120Y-80010
X198120Y-89980
X200040Y-171704
X203540Y-171704
X204724Y-147828
X204724Y-150368
X204724Y-152908
X204724Y-155448
X209220Y-99281
X209220Y-102781
X209271Y-124414
X209271Y-127914
T6
X117546Y-79700
X117546Y-172700
X210546Y-79700
X210546Y-172700
T0
M30
