G04 #@! TF.GenerationSoftware,KiCad,Pcbnew,(5.1.10)-1*
G04 #@! TF.CreationDate,2022-04-23T00:12:33-07:00*
G04 #@! TF.ProjectId,4Rose_5a_003_Black,34526f73-655f-4356-915f-3030335f426c,rev?*
G04 #@! TF.SameCoordinates,Original*
G04 #@! TF.FileFunction,Soldermask,Bot*
G04 #@! TF.FilePolarity,Negative*
%FSLAX46Y46*%
G04 Gerber Fmt 4.6, Leading zero omitted, Abs format (unit mm)*
G04 Created by KiCad (PCBNEW (5.1.10)-1) date 2022-04-23 00:12:33*
%MOMM*%
%LPD*%
G01*
G04 APERTURE LIST*
%ADD10C,2.082800*%
%ADD11O,1.700000X1.700000*%
%ADD12R,1.700000X1.700000*%
%ADD13R,1.600000X1.600000*%
%ADD14O,1.600000X1.600000*%
%ADD15O,2.600000X2.000000*%
%ADD16R,2.600000X2.000000*%
%ADD17C,3.700000*%
%ADD18O,1.700000X1.955800*%
%ADD19C,1.700000*%
%ADD20O,1.998980X1.700000*%
%ADD21O,1.800000X3.048000*%
%ADD22C,1.600000*%
%ADD23R,2.000000X2.600000*%
%ADD24O,2.000000X2.600000*%
%ADD25O,2.000000X1.700000*%
%ADD26R,2.500000X1.500000*%
%ADD27O,2.500000X1.500000*%
%ADD28R,1.800000X3.048000*%
%ADD29O,3.600000X1.800000*%
%ADD30R,3.600000X1.800000*%
G04 APERTURE END LIST*
D10*
X173431200Y-78765400D03*
X175971200Y-78765400D03*
X178511200Y-78765400D03*
X181051200Y-78765400D03*
X183591200Y-78765400D03*
X173431200Y-86385400D03*
X175971200Y-86385400D03*
X178511200Y-86385400D03*
X181051200Y-86385400D03*
X183591200Y-86385400D03*
D11*
X118110000Y-164465000D03*
D12*
X115570000Y-164465000D03*
D13*
X166446200Y-122478800D03*
D14*
X189306200Y-130098800D03*
X168986200Y-122478800D03*
X186766200Y-130098800D03*
X171526200Y-122478800D03*
X184226200Y-130098800D03*
X174066200Y-122478800D03*
X181686200Y-130098800D03*
X176606200Y-122478800D03*
X179146200Y-130098800D03*
X179146200Y-122478800D03*
X176606200Y-130098800D03*
X181686200Y-122478800D03*
X174066200Y-130098800D03*
X184226200Y-122478800D03*
X171526200Y-130098800D03*
X186766200Y-122478800D03*
X168986200Y-130098800D03*
X189306200Y-122478800D03*
X166446200Y-130098800D03*
D11*
X143510000Y-88900000D03*
X143510000Y-86360000D03*
X143510000Y-83820000D03*
X143510000Y-81280000D03*
X143510000Y-78740000D03*
X146050000Y-88900000D03*
X146050000Y-86360000D03*
X146050000Y-83820000D03*
X146050000Y-81280000D03*
X146050000Y-78740000D03*
X148590000Y-78740000D03*
X148590000Y-81280000D03*
X148590000Y-83820000D03*
X148590000Y-86360000D03*
X148590000Y-88900000D03*
X151130000Y-78740000D03*
X151130000Y-81280000D03*
X151130000Y-83820000D03*
X151130000Y-86360000D03*
X151130000Y-88900000D03*
D15*
X142773400Y-142748000D03*
X142773400Y-145288000D03*
X142773400Y-147828000D03*
D16*
X142773400Y-150368000D03*
D17*
X210546000Y-172700000D03*
X117546000Y-172700000D03*
X210546000Y-79700000D03*
X117546000Y-79700000D03*
D18*
X200774300Y-99745800D03*
D11*
X198234300Y-99745800D03*
X195694300Y-99745800D03*
X193154300Y-99745800D03*
X190614300Y-99745800D03*
X188074300Y-99745800D03*
X185534300Y-99745800D03*
X182994300Y-99745800D03*
X180454300Y-99745800D03*
X177914300Y-99745800D03*
X175374300Y-99745800D03*
X172834300Y-99745800D03*
X142354300Y-114985800D03*
X144894300Y-114985800D03*
X147434300Y-114985800D03*
X149974300Y-114985800D03*
X152514300Y-114985800D03*
X155054300Y-114985800D03*
X157594300Y-114985800D03*
X160134300Y-114985800D03*
X162674300Y-114985800D03*
X165214300Y-114985800D03*
X167754300Y-114985800D03*
D19*
X170294300Y-114985800D03*
D11*
X172834300Y-114985800D03*
X175374300Y-114985800D03*
X177914300Y-114985800D03*
X180454300Y-114985800D03*
X182994300Y-114985800D03*
X185534300Y-114985800D03*
X188074300Y-114985800D03*
X190614300Y-114985800D03*
X193154300Y-114985800D03*
D12*
X195694300Y-114985800D03*
D11*
X198234300Y-114985800D03*
D12*
X200774300Y-114985800D03*
D19*
X170294300Y-99745800D03*
D11*
X167754300Y-99745800D03*
D12*
X165214300Y-99745800D03*
D11*
X162674300Y-99745800D03*
X160134300Y-99745800D03*
X157594300Y-99745800D03*
X155054300Y-99745800D03*
X152514300Y-99745800D03*
X149974300Y-99745800D03*
X147434300Y-99745800D03*
X144894300Y-99745800D03*
X142354300Y-99745800D03*
D20*
X177901600Y-141478000D03*
D11*
X177901600Y-144018000D03*
X177901600Y-146558000D03*
X177901600Y-149098000D03*
X177901600Y-151638000D03*
X177901600Y-154178000D03*
X177901600Y-156718000D03*
X177901600Y-159258000D03*
D12*
X167640000Y-78740000D03*
D11*
X165100000Y-78740000D03*
D12*
X167640000Y-81280000D03*
D11*
X165100000Y-81280000D03*
D12*
X167640000Y-83820000D03*
D11*
X165100000Y-83820000D03*
D12*
X167640000Y-86360000D03*
D11*
X165100000Y-86360000D03*
D12*
X167640000Y-88900000D03*
D11*
X165100000Y-88900000D03*
X137160000Y-88900000D03*
D12*
X139700000Y-88900000D03*
D11*
X137160000Y-86360000D03*
D12*
X139700000Y-86360000D03*
D11*
X137160000Y-83820000D03*
D12*
X139700000Y-83820000D03*
D11*
X137160000Y-81280000D03*
D12*
X139700000Y-81280000D03*
D11*
X137160000Y-78740000D03*
D12*
X139700000Y-78740000D03*
D14*
X135724900Y-129806700D03*
X158584900Y-122186700D03*
X138264900Y-129806700D03*
X156044900Y-122186700D03*
X140804900Y-129806700D03*
X153504900Y-122186700D03*
X143344900Y-129806700D03*
X150964900Y-122186700D03*
X145884900Y-129806700D03*
X148424900Y-122186700D03*
X148424900Y-129806700D03*
X145884900Y-122186700D03*
X150964900Y-129806700D03*
X143344900Y-122186700D03*
X153504900Y-129806700D03*
X140804900Y-122186700D03*
X156044900Y-129806700D03*
X138264900Y-122186700D03*
X158584900Y-129806700D03*
D13*
X135724900Y-122186700D03*
D21*
X193040000Y-171958000D03*
X196540000Y-171958000D03*
X200040000Y-171958000D03*
X203540000Y-171958000D03*
X186598200Y-171958000D03*
X183098200Y-171958000D03*
X179598200Y-171958000D03*
X176098200Y-171958000D03*
X169516700Y-171958000D03*
X166016700Y-171958000D03*
X162516700Y-171958000D03*
X159016700Y-171958000D03*
X141605000Y-171958000D03*
X145105000Y-171958000D03*
X148605000Y-171958000D03*
X152105000Y-171958000D03*
D12*
X132080000Y-78740000D03*
D11*
X132080000Y-81280000D03*
X132080000Y-83820000D03*
X132080000Y-86360000D03*
X132080000Y-88900000D03*
X132080000Y-91440000D03*
D12*
X129540000Y-78740000D03*
D11*
X129540000Y-81280000D03*
X129540000Y-83820000D03*
X129540000Y-86360000D03*
X129540000Y-88900000D03*
X129540000Y-91440000D03*
D12*
X211302600Y-85928199D03*
X211302600Y-88468199D03*
D11*
X211302600Y-91008199D03*
X211302600Y-93548199D03*
X208762600Y-93548200D03*
X208762600Y-91008200D03*
D12*
X208762600Y-88468200D03*
X208762600Y-85928200D03*
D22*
X199466200Y-125931300D03*
D13*
X199466200Y-123431300D03*
D16*
X204724000Y-155448000D03*
D15*
X204724000Y-152908000D03*
X204724000Y-150368000D03*
X204724000Y-147828000D03*
D23*
X198120000Y-89979500D03*
D24*
X195580000Y-89979500D03*
X193040000Y-89979500D03*
X190500000Y-89979500D03*
X190500000Y-80010000D03*
X193040000Y-80010000D03*
X195580000Y-80010000D03*
D23*
X198120000Y-80010000D03*
D15*
X184251600Y-142748000D03*
X184251600Y-145288000D03*
X184251600Y-147828000D03*
D16*
X184251600Y-150368000D03*
X163944300Y-150368000D03*
D15*
X163944300Y-147828000D03*
X163944300Y-145288000D03*
X163944300Y-142748000D03*
D12*
X141401800Y-135001000D03*
D11*
X141401800Y-137541000D03*
D12*
X138861800Y-135001000D03*
D11*
X138861800Y-137541000D03*
D12*
X136321800Y-135001000D03*
D11*
X136321800Y-137541000D03*
X157619700Y-137541000D03*
D12*
X157619700Y-135001000D03*
D11*
X160159700Y-137541000D03*
D12*
X160159700Y-135001000D03*
D11*
X162699700Y-137541000D03*
D12*
X162699700Y-135001000D03*
X203568300Y-135001000D03*
D11*
X203568300Y-137541000D03*
D12*
X201028300Y-135001000D03*
D11*
X201028300Y-137541000D03*
D12*
X198488300Y-135001000D03*
D11*
X198488300Y-137541000D03*
X177736500Y-137541000D03*
D12*
X177736500Y-135001000D03*
D11*
X180276500Y-137541000D03*
D12*
X180276500Y-135001000D03*
D11*
X182816500Y-137541000D03*
D12*
X182816500Y-135001000D03*
D22*
X187488200Y-165544500D03*
D13*
X184988200Y-165544500D03*
D12*
X203200000Y-93147154D03*
D11*
X203200000Y-90607154D03*
D12*
X203200000Y-88067154D03*
X203200000Y-78054200D03*
D11*
X203200000Y-80594200D03*
D12*
X203200000Y-83134200D03*
X124460000Y-77876400D03*
D11*
X124460000Y-80416400D03*
D12*
X124460000Y-82956400D03*
D25*
X198374000Y-141478000D03*
D11*
X198374000Y-144018000D03*
X198374000Y-146558000D03*
X198374000Y-149098000D03*
X198374000Y-151638000D03*
X198374000Y-154178000D03*
X198374000Y-156718000D03*
X198374000Y-159258000D03*
X211074000Y-141478000D03*
X211074000Y-144018000D03*
X211074000Y-146558000D03*
X211074000Y-149098000D03*
X211074000Y-151638000D03*
X211074000Y-154178000D03*
X211074000Y-156718000D03*
D12*
X211074000Y-159258000D03*
D11*
X190601600Y-141478000D03*
X190601600Y-144018000D03*
X190601600Y-146558000D03*
X190601600Y-149098000D03*
X190601600Y-151638000D03*
X190601600Y-154178000D03*
X190601600Y-156718000D03*
D12*
X190601600Y-159258000D03*
D25*
X157594300Y-141478000D03*
D11*
X157594300Y-144018000D03*
X157594300Y-146558000D03*
X157594300Y-149098000D03*
X157594300Y-151638000D03*
X157594300Y-154178000D03*
X157594300Y-156718000D03*
X157594300Y-159258000D03*
D25*
X136398000Y-141478000D03*
D11*
X136398000Y-144018000D03*
X136398000Y-146558000D03*
X136398000Y-149098000D03*
X136398000Y-151638000D03*
X136398000Y-154178000D03*
X136398000Y-156718000D03*
X136398000Y-159258000D03*
X170294300Y-141478000D03*
X170294300Y-144018000D03*
X170294300Y-146558000D03*
X170294300Y-149098000D03*
X170294300Y-151638000D03*
X170294300Y-154178000D03*
X170294300Y-156718000D03*
D12*
X170294300Y-159258000D03*
D11*
X149098000Y-141478000D03*
X149098000Y-144018000D03*
X149098000Y-146558000D03*
X149098000Y-149098000D03*
X149098000Y-151638000D03*
X149098000Y-154178000D03*
X149098000Y-156718000D03*
D12*
X149098000Y-159258000D03*
D11*
X123012200Y-88900000D03*
X120472200Y-88900000D03*
X117932200Y-88900000D03*
D12*
X115392200Y-88900000D03*
D11*
X123012200Y-91440000D03*
X120472200Y-91440000D03*
X117932200Y-91440000D03*
D12*
X115392200Y-91440000D03*
X115392200Y-93980000D03*
D11*
X117932200Y-93980000D03*
X120472200Y-93980000D03*
X123012200Y-93980000D03*
D12*
X115392200Y-99060000D03*
D11*
X117932200Y-99060000D03*
X120472200Y-99060000D03*
X123012200Y-99060000D03*
X123012200Y-101600000D03*
X120472200Y-101600000D03*
X117932200Y-101600000D03*
D12*
X115392200Y-101600000D03*
X115392200Y-104140000D03*
D11*
X117932200Y-104140000D03*
X120472200Y-104140000D03*
X123012200Y-104140000D03*
X123012200Y-106680000D03*
X120472200Y-106680000D03*
X117932200Y-106680000D03*
D12*
X115392200Y-106680000D03*
X115392200Y-109220000D03*
D11*
X117932200Y-109220000D03*
X120472200Y-109220000D03*
X123012200Y-109220000D03*
X123012200Y-111760000D03*
X120472200Y-111760000D03*
X117932200Y-111760000D03*
D12*
X115392200Y-111760000D03*
X115392200Y-116840000D03*
D11*
X117932200Y-116840000D03*
X120472200Y-116840000D03*
X123012200Y-116840000D03*
X123012200Y-119380000D03*
X120472200Y-119380000D03*
X117932200Y-119380000D03*
D12*
X115392200Y-119380000D03*
X115392200Y-121920000D03*
D11*
X117932200Y-121920000D03*
X120472200Y-121920000D03*
X123012200Y-121920000D03*
X123012200Y-124460000D03*
X120472200Y-124460000D03*
X117932200Y-124460000D03*
D12*
X115392200Y-124460000D03*
X115392200Y-127000000D03*
D11*
X117932200Y-127000000D03*
X120472200Y-127000000D03*
X123012200Y-127000000D03*
X123012200Y-129540000D03*
X120472200Y-129540000D03*
X117932200Y-129540000D03*
D12*
X115392200Y-129540000D03*
D26*
X210629500Y-116357400D03*
D27*
X210629500Y-113817400D03*
X210629500Y-111277400D03*
D22*
X148257900Y-165544500D03*
D13*
X145757900Y-165544500D03*
X167652700Y-165544500D03*
D22*
X170152700Y-165544500D03*
X207478000Y-165544500D03*
D13*
X204978000Y-165544500D03*
D11*
X153670000Y-78740000D03*
X153670000Y-81280000D03*
X153670000Y-83820000D03*
X153670000Y-86360000D03*
X153670000Y-88900000D03*
X156210000Y-88900000D03*
X156210000Y-86360000D03*
X156210000Y-83820000D03*
X156210000Y-81280000D03*
X156210000Y-78740000D03*
D21*
X134960000Y-171958000D03*
D28*
X131460000Y-171958000D03*
D21*
X127960000Y-171958000D03*
D28*
X124460000Y-171958000D03*
D11*
X116205000Y-159258000D03*
X116205000Y-156718000D03*
X116205000Y-154178000D03*
X116205000Y-151638000D03*
X116205000Y-149098000D03*
X116205000Y-146558000D03*
X116205000Y-144018000D03*
D12*
X116205000Y-141478000D03*
X128905000Y-159258000D03*
D11*
X128905000Y-156718000D03*
X128905000Y-154178000D03*
X128905000Y-151638000D03*
X128905000Y-149098000D03*
X128905000Y-146558000D03*
X128905000Y-144018000D03*
X128905000Y-141478000D03*
X117411500Y-137541000D03*
D12*
X117411500Y-135001000D03*
D11*
X119951500Y-137541000D03*
D12*
X119951500Y-135001000D03*
D11*
X122491500Y-137541000D03*
D12*
X122491500Y-135001000D03*
D15*
X122809000Y-142748000D03*
X122809000Y-145288000D03*
X122809000Y-147828000D03*
D16*
X122809000Y-150368000D03*
D22*
X128738000Y-165544500D03*
D13*
X126238000Y-165544500D03*
D29*
X209270600Y-124414400D03*
D30*
X209270600Y-127914400D03*
X209219800Y-102781100D03*
D29*
X209219800Y-99281100D03*
D11*
X123012200Y-86360000D03*
X120472200Y-86360000D03*
X117932200Y-86360000D03*
D12*
X115392200Y-86360000D03*
D22*
X131902200Y-109486700D03*
D14*
X131902200Y-119646700D03*
D12*
X132194300Y-127736600D03*
D11*
X140804900Y-119646700D03*
D12*
X138264900Y-119646700D03*
D11*
X158750000Y-78740000D03*
X158750000Y-81280000D03*
X158750000Y-83820000D03*
X158750000Y-86360000D03*
X158750000Y-88900000D03*
X161290000Y-88900000D03*
X161290000Y-86360000D03*
X161290000Y-83820000D03*
X161290000Y-81280000D03*
X161290000Y-78740000D03*
D12*
X115570000Y-167005000D03*
D11*
X118110000Y-167005000D03*
D14*
X170561000Y-88900000D03*
D22*
X170561000Y-78740000D03*
X173062900Y-89433400D03*
D14*
X183222900Y-89433400D03*
X183222900Y-92024200D03*
D22*
X173062900Y-92024200D03*
X186690000Y-78740000D03*
D14*
X186690000Y-88900000D03*
M02*
