G04 #@! TF.GenerationSoftware,KiCad,Pcbnew,(5.1.10)-1*
G04 #@! TF.CreationDate,2022-05-29T18:24:22-07:00*
G04 #@! TF.ProjectId,5Rose_030_Blue,35526f73-655f-4303-9330-5f426c75652e,rev?*
G04 #@! TF.SameCoordinates,Original*
G04 #@! TF.FileFunction,Legend,Bot*
G04 #@! TF.FilePolarity,Positive*
%FSLAX46Y46*%
G04 Gerber Fmt 4.6, Leading zero omitted, Abs format (unit mm)*
G04 Created by KiCad (PCBNEW (5.1.10)-1) date 2022-05-29 18:24:23*
%MOMM*%
%LPD*%
G01*
G04 APERTURE LIST*
%ADD10C,0.203200*%
%ADD11C,0.152400*%
%ADD12C,0.101600*%
%ADD13C,0.150000*%
%ADD14C,0.190500*%
G04 APERTURE END LIST*
D10*
X172787733Y-104612319D02*
X173126400Y-104128509D01*
X173368304Y-104612319D02*
X173368304Y-103596319D01*
X172981257Y-103596319D01*
X172884495Y-103644700D01*
X172836114Y-103693080D01*
X172787733Y-103789842D01*
X172787733Y-103934985D01*
X172836114Y-104031747D01*
X172884495Y-104080128D01*
X172981257Y-104128509D01*
X173368304Y-104128509D01*
X172207161Y-104612319D02*
X172303923Y-104563938D01*
X172352304Y-104515557D01*
X172400685Y-104418795D01*
X172400685Y-104128509D01*
X172352304Y-104031747D01*
X172303923Y-103983366D01*
X172207161Y-103934985D01*
X172062019Y-103934985D01*
X171965257Y-103983366D01*
X171916876Y-104031747D01*
X171868495Y-104128509D01*
X171868495Y-104418795D01*
X171916876Y-104515557D01*
X171965257Y-104563938D01*
X172062019Y-104612319D01*
X172207161Y-104612319D01*
X171481447Y-104563938D02*
X171384685Y-104612319D01*
X171191161Y-104612319D01*
X171094400Y-104563938D01*
X171046019Y-104467176D01*
X171046019Y-104418795D01*
X171094400Y-104322033D01*
X171191161Y-104273652D01*
X171336304Y-104273652D01*
X171433066Y-104225271D01*
X171481447Y-104128509D01*
X171481447Y-104080128D01*
X171433066Y-103983366D01*
X171336304Y-103934985D01*
X171191161Y-103934985D01*
X171094400Y-103983366D01*
X170223542Y-104563938D02*
X170320304Y-104612319D01*
X170513828Y-104612319D01*
X170610590Y-104563938D01*
X170658971Y-104467176D01*
X170658971Y-104080128D01*
X170610590Y-103983366D01*
X170513828Y-103934985D01*
X170320304Y-103934985D01*
X170223542Y-103983366D01*
X170175161Y-104080128D01*
X170175161Y-104176890D01*
X170658971Y-104273652D01*
X168965638Y-104080128D02*
X168626971Y-104080128D01*
X168481828Y-104612319D02*
X168965638Y-104612319D01*
X168965638Y-103596319D01*
X168481828Y-103596319D01*
X168046400Y-103934985D02*
X168046400Y-104612319D01*
X168046400Y-104031747D02*
X167998019Y-103983366D01*
X167901257Y-103934985D01*
X167756114Y-103934985D01*
X167659352Y-103983366D01*
X167610971Y-104080128D01*
X167610971Y-104612319D01*
X166691733Y-103934985D02*
X166691733Y-104757461D01*
X166740114Y-104854223D01*
X166788495Y-104902604D01*
X166885257Y-104950985D01*
X167030400Y-104950985D01*
X167127161Y-104902604D01*
X166691733Y-104563938D02*
X166788495Y-104612319D01*
X166982019Y-104612319D01*
X167078780Y-104563938D01*
X167127161Y-104515557D01*
X167175542Y-104418795D01*
X167175542Y-104128509D01*
X167127161Y-104031747D01*
X167078780Y-103983366D01*
X166982019Y-103934985D01*
X166788495Y-103934985D01*
X166691733Y-103983366D01*
X166207923Y-104612319D02*
X166207923Y-103934985D01*
X166207923Y-103596319D02*
X166256304Y-103644700D01*
X166207923Y-103693080D01*
X166159542Y-103644700D01*
X166207923Y-103596319D01*
X166207923Y-103693080D01*
X165724114Y-103934985D02*
X165724114Y-104612319D01*
X165724114Y-104031747D02*
X165675733Y-103983366D01*
X165578971Y-103934985D01*
X165433828Y-103934985D01*
X165337066Y-103983366D01*
X165288685Y-104080128D01*
X165288685Y-104612319D01*
X164417828Y-104563938D02*
X164514590Y-104612319D01*
X164708114Y-104612319D01*
X164804876Y-104563938D01*
X164853257Y-104467176D01*
X164853257Y-104080128D01*
X164804876Y-103983366D01*
X164708114Y-103934985D01*
X164514590Y-103934985D01*
X164417828Y-103983366D01*
X164369447Y-104080128D01*
X164369447Y-104176890D01*
X164853257Y-104273652D01*
X162579352Y-104515557D02*
X162627733Y-104563938D01*
X162772876Y-104612319D01*
X162869638Y-104612319D01*
X163014780Y-104563938D01*
X163111542Y-104467176D01*
X163159923Y-104370414D01*
X163208304Y-104176890D01*
X163208304Y-104031747D01*
X163159923Y-103838223D01*
X163111542Y-103741461D01*
X163014780Y-103644700D01*
X162869638Y-103596319D01*
X162772876Y-103596319D01*
X162627733Y-103644700D01*
X162579352Y-103693080D01*
X161998780Y-104612319D02*
X162095542Y-104563938D01*
X162143923Y-104515557D01*
X162192304Y-104418795D01*
X162192304Y-104128509D01*
X162143923Y-104031747D01*
X162095542Y-103983366D01*
X161998780Y-103934985D01*
X161853638Y-103934985D01*
X161756876Y-103983366D01*
X161708495Y-104031747D01*
X161660114Y-104128509D01*
X161660114Y-104418795D01*
X161708495Y-104515557D01*
X161756876Y-104563938D01*
X161853638Y-104612319D01*
X161998780Y-104612319D01*
X161224685Y-103934985D02*
X161224685Y-104612319D01*
X161224685Y-104031747D02*
X161176304Y-103983366D01*
X161079542Y-103934985D01*
X160934400Y-103934985D01*
X160837638Y-103983366D01*
X160789257Y-104080128D01*
X160789257Y-104612319D01*
X160450590Y-103934985D02*
X160063542Y-103934985D01*
X160305447Y-103596319D02*
X160305447Y-104467176D01*
X160257066Y-104563938D01*
X160160304Y-104612319D01*
X160063542Y-104612319D01*
X159724876Y-104612319D02*
X159724876Y-103934985D01*
X159724876Y-104128509D02*
X159676495Y-104031747D01*
X159628114Y-103983366D01*
X159531352Y-103934985D01*
X159434590Y-103934985D01*
X158950780Y-104612319D02*
X159047542Y-104563938D01*
X159095923Y-104515557D01*
X159144304Y-104418795D01*
X159144304Y-104128509D01*
X159095923Y-104031747D01*
X159047542Y-103983366D01*
X158950780Y-103934985D01*
X158805638Y-103934985D01*
X158708876Y-103983366D01*
X158660495Y-104031747D01*
X158612114Y-104128509D01*
X158612114Y-104418795D01*
X158660495Y-104515557D01*
X158708876Y-104563938D01*
X158805638Y-104612319D01*
X158950780Y-104612319D01*
X158031542Y-104612319D02*
X158128304Y-104563938D01*
X158176685Y-104467176D01*
X158176685Y-103596319D01*
X157499352Y-104612319D02*
X157596114Y-104563938D01*
X157644495Y-104467176D01*
X157644495Y-103596319D01*
X156725257Y-104563938D02*
X156822019Y-104612319D01*
X157015542Y-104612319D01*
X157112304Y-104563938D01*
X157160685Y-104467176D01*
X157160685Y-104080128D01*
X157112304Y-103983366D01*
X157015542Y-103934985D01*
X156822019Y-103934985D01*
X156725257Y-103983366D01*
X156676876Y-104080128D01*
X156676876Y-104176890D01*
X157160685Y-104273652D01*
X156241447Y-104612319D02*
X156241447Y-103934985D01*
X156241447Y-104128509D02*
X156193066Y-104031747D01*
X156144685Y-103983366D01*
X156047923Y-103934985D01*
X155951161Y-103934985D01*
X154983542Y-103596319D02*
X154644876Y-104612319D01*
X154306209Y-103596319D01*
X153774019Y-103596319D02*
X153677257Y-103596319D01*
X153580495Y-103644700D01*
X153532114Y-103693080D01*
X153483733Y-103789842D01*
X153435352Y-103983366D01*
X153435352Y-104225271D01*
X153483733Y-104418795D01*
X153532114Y-104515557D01*
X153580495Y-104563938D01*
X153677257Y-104612319D01*
X153774019Y-104612319D01*
X153870780Y-104563938D01*
X153919161Y-104515557D01*
X153967542Y-104418795D01*
X154015923Y-104225271D01*
X154015923Y-103983366D01*
X153967542Y-103789842D01*
X153919161Y-103693080D01*
X153870780Y-103644700D01*
X153774019Y-103596319D01*
X152806400Y-103596319D02*
X152709638Y-103596319D01*
X152612876Y-103644700D01*
X152564495Y-103693080D01*
X152516114Y-103789842D01*
X152467733Y-103983366D01*
X152467733Y-104225271D01*
X152516114Y-104418795D01*
X152564495Y-104515557D01*
X152612876Y-104563938D01*
X152709638Y-104612319D01*
X152806400Y-104612319D01*
X152903161Y-104563938D01*
X152951542Y-104515557D01*
X152999923Y-104418795D01*
X153048304Y-104225271D01*
X153048304Y-103983366D01*
X152999923Y-103789842D01*
X152951542Y-103693080D01*
X152903161Y-103644700D01*
X152806400Y-103596319D01*
X152129066Y-103596319D02*
X151500114Y-103596319D01*
X151838780Y-103983366D01*
X151693638Y-103983366D01*
X151596876Y-104031747D01*
X151548495Y-104080128D01*
X151500114Y-104176890D01*
X151500114Y-104418795D01*
X151548495Y-104515557D01*
X151596876Y-104563938D01*
X151693638Y-104612319D01*
X151983923Y-104612319D01*
X152080685Y-104563938D01*
X152129066Y-104515557D01*
D11*
X177654857Y-106186514D02*
X177654857Y-105424514D01*
X177328285Y-106186514D02*
X177328285Y-105787371D01*
X177364571Y-105714800D01*
X177437142Y-105678514D01*
X177546000Y-105678514D01*
X177618571Y-105714800D01*
X177654857Y-105751085D01*
X177074285Y-105678514D02*
X176784000Y-105678514D01*
X176965428Y-105424514D02*
X176965428Y-106077657D01*
X176929142Y-106150228D01*
X176856571Y-106186514D01*
X176784000Y-106186514D01*
X176638857Y-105678514D02*
X176348571Y-105678514D01*
X176530000Y-105424514D02*
X176530000Y-106077657D01*
X176493714Y-106150228D01*
X176421142Y-106186514D01*
X176348571Y-106186514D01*
X176094571Y-105678514D02*
X176094571Y-106440514D01*
X176094571Y-105714800D02*
X176022000Y-105678514D01*
X175876857Y-105678514D01*
X175804285Y-105714800D01*
X175768000Y-105751085D01*
X175731714Y-105823657D01*
X175731714Y-106041371D01*
X175768000Y-106113942D01*
X175804285Y-106150228D01*
X175876857Y-106186514D01*
X176022000Y-106186514D01*
X176094571Y-106150228D01*
X175441428Y-106150228D02*
X175368857Y-106186514D01*
X175223714Y-106186514D01*
X175151142Y-106150228D01*
X175114857Y-106077657D01*
X175114857Y-106041371D01*
X175151142Y-105968800D01*
X175223714Y-105932514D01*
X175332571Y-105932514D01*
X175405142Y-105896228D01*
X175441428Y-105823657D01*
X175441428Y-105787371D01*
X175405142Y-105714800D01*
X175332571Y-105678514D01*
X175223714Y-105678514D01*
X175151142Y-105714800D01*
X174788285Y-106113942D02*
X174752000Y-106150228D01*
X174788285Y-106186514D01*
X174824571Y-106150228D01*
X174788285Y-106113942D01*
X174788285Y-106186514D01*
X174788285Y-105714800D02*
X174752000Y-105751085D01*
X174788285Y-105787371D01*
X174824571Y-105751085D01*
X174788285Y-105714800D01*
X174788285Y-105787371D01*
X173881142Y-105388228D02*
X174534285Y-106367942D01*
X173082857Y-105388228D02*
X173736000Y-106367942D01*
X172502285Y-105678514D02*
X172502285Y-106295371D01*
X172538571Y-106367942D01*
X172574857Y-106404228D01*
X172647428Y-106440514D01*
X172756285Y-106440514D01*
X172828857Y-106404228D01*
X172502285Y-106150228D02*
X172574857Y-106186514D01*
X172720000Y-106186514D01*
X172792571Y-106150228D01*
X172828857Y-106113942D01*
X172865142Y-106041371D01*
X172865142Y-105823657D01*
X172828857Y-105751085D01*
X172792571Y-105714800D01*
X172720000Y-105678514D01*
X172574857Y-105678514D01*
X172502285Y-105714800D01*
X172139428Y-106186514D02*
X172139428Y-105678514D01*
X172139428Y-105424514D02*
X172175714Y-105460800D01*
X172139428Y-105497085D01*
X172103142Y-105460800D01*
X172139428Y-105424514D01*
X172139428Y-105497085D01*
X171885428Y-105678514D02*
X171595142Y-105678514D01*
X171776571Y-105424514D02*
X171776571Y-106077657D01*
X171740285Y-106150228D01*
X171667714Y-106186514D01*
X171595142Y-106186514D01*
X171341142Y-106186514D02*
X171341142Y-105424514D01*
X171014571Y-106186514D02*
X171014571Y-105787371D01*
X171050857Y-105714800D01*
X171123428Y-105678514D01*
X171232285Y-105678514D01*
X171304857Y-105714800D01*
X171341142Y-105751085D01*
X170325142Y-105678514D02*
X170325142Y-106186514D01*
X170651714Y-105678514D02*
X170651714Y-106077657D01*
X170615428Y-106150228D01*
X170542857Y-106186514D01*
X170434000Y-106186514D01*
X170361428Y-106150228D01*
X170325142Y-106113942D01*
X169962285Y-106186514D02*
X169962285Y-105424514D01*
X169962285Y-105714800D02*
X169889714Y-105678514D01*
X169744571Y-105678514D01*
X169672000Y-105714800D01*
X169635714Y-105751085D01*
X169599428Y-105823657D01*
X169599428Y-106041371D01*
X169635714Y-106113942D01*
X169672000Y-106150228D01*
X169744571Y-106186514D01*
X169889714Y-106186514D01*
X169962285Y-106150228D01*
X169272857Y-106113942D02*
X169236571Y-106150228D01*
X169272857Y-106186514D01*
X169309142Y-106150228D01*
X169272857Y-106113942D01*
X169272857Y-106186514D01*
X168583428Y-106150228D02*
X168656000Y-106186514D01*
X168801142Y-106186514D01*
X168873714Y-106150228D01*
X168910000Y-106113942D01*
X168946285Y-106041371D01*
X168946285Y-105823657D01*
X168910000Y-105751085D01*
X168873714Y-105714800D01*
X168801142Y-105678514D01*
X168656000Y-105678514D01*
X168583428Y-105714800D01*
X168148000Y-106186514D02*
X168220571Y-106150228D01*
X168256857Y-106113942D01*
X168293142Y-106041371D01*
X168293142Y-105823657D01*
X168256857Y-105751085D01*
X168220571Y-105714800D01*
X168148000Y-105678514D01*
X168039142Y-105678514D01*
X167966571Y-105714800D01*
X167930285Y-105751085D01*
X167894000Y-105823657D01*
X167894000Y-106041371D01*
X167930285Y-106113942D01*
X167966571Y-106150228D01*
X168039142Y-106186514D01*
X168148000Y-106186514D01*
X167567428Y-106186514D02*
X167567428Y-105678514D01*
X167567428Y-105751085D02*
X167531142Y-105714800D01*
X167458571Y-105678514D01*
X167349714Y-105678514D01*
X167277142Y-105714800D01*
X167240857Y-105787371D01*
X167240857Y-106186514D01*
X167240857Y-105787371D02*
X167204571Y-105714800D01*
X167132000Y-105678514D01*
X167023142Y-105678514D01*
X166950571Y-105714800D01*
X166914285Y-105787371D01*
X166914285Y-106186514D01*
X166007142Y-105388228D02*
X166660285Y-106367942D01*
X165462857Y-106150228D02*
X165535428Y-106186514D01*
X165680571Y-106186514D01*
X165753142Y-106150228D01*
X165789428Y-106077657D01*
X165789428Y-105787371D01*
X165753142Y-105714800D01*
X165680571Y-105678514D01*
X165535428Y-105678514D01*
X165462857Y-105714800D01*
X165426571Y-105787371D01*
X165426571Y-105859942D01*
X165789428Y-105932514D01*
X164991142Y-106186514D02*
X165063714Y-106150228D01*
X165100000Y-106077657D01*
X165100000Y-105424514D01*
X164809714Y-105678514D02*
X164519428Y-105678514D01*
X164700857Y-106186514D02*
X164700857Y-105533371D01*
X164664571Y-105460800D01*
X164592000Y-105424514D01*
X164519428Y-105424514D01*
X164265428Y-106186514D02*
X164265428Y-105678514D01*
X164265428Y-105823657D02*
X164229142Y-105751085D01*
X164192857Y-105714800D01*
X164120285Y-105678514D01*
X164047714Y-105678514D01*
X163503428Y-106150228D02*
X163576000Y-106186514D01*
X163721142Y-106186514D01*
X163793714Y-106150228D01*
X163830000Y-106077657D01*
X163830000Y-105787371D01*
X163793714Y-105714800D01*
X163721142Y-105678514D01*
X163576000Y-105678514D01*
X163503428Y-105714800D01*
X163467142Y-105787371D01*
X163467142Y-105859942D01*
X163830000Y-105932514D01*
X163140571Y-105678514D02*
X163140571Y-106186514D01*
X163140571Y-105751085D02*
X163104285Y-105714800D01*
X163031714Y-105678514D01*
X162922857Y-105678514D01*
X162850285Y-105714800D01*
X162814000Y-105787371D01*
X162814000Y-106186514D01*
X161906857Y-105388228D02*
X162560000Y-106367942D01*
X161217428Y-106186514D02*
X161471428Y-105823657D01*
X161652857Y-106186514D02*
X161652857Y-105424514D01*
X161362571Y-105424514D01*
X161290000Y-105460800D01*
X161253714Y-105497085D01*
X161217428Y-105569657D01*
X161217428Y-105678514D01*
X161253714Y-105751085D01*
X161290000Y-105787371D01*
X161362571Y-105823657D01*
X161652857Y-105823657D01*
X160782000Y-106186514D02*
X160854571Y-106150228D01*
X160890857Y-106113942D01*
X160927142Y-106041371D01*
X160927142Y-105823657D01*
X160890857Y-105751085D01*
X160854571Y-105714800D01*
X160782000Y-105678514D01*
X160673142Y-105678514D01*
X160600571Y-105714800D01*
X160564285Y-105751085D01*
X160528000Y-105823657D01*
X160528000Y-106041371D01*
X160564285Y-106113942D01*
X160600571Y-106150228D01*
X160673142Y-106186514D01*
X160782000Y-106186514D01*
X160237714Y-106150228D02*
X160165142Y-106186514D01*
X160020000Y-106186514D01*
X159947428Y-106150228D01*
X159911142Y-106077657D01*
X159911142Y-106041371D01*
X159947428Y-105968800D01*
X160020000Y-105932514D01*
X160128857Y-105932514D01*
X160201428Y-105896228D01*
X160237714Y-105823657D01*
X160237714Y-105787371D01*
X160201428Y-105714800D01*
X160128857Y-105678514D01*
X160020000Y-105678514D01*
X159947428Y-105714800D01*
X159294285Y-106150228D02*
X159366857Y-106186514D01*
X159512000Y-106186514D01*
X159584571Y-106150228D01*
X159620857Y-106077657D01*
X159620857Y-105787371D01*
X159584571Y-105714800D01*
X159512000Y-105678514D01*
X159366857Y-105678514D01*
X159294285Y-105714800D01*
X159258000Y-105787371D01*
X159258000Y-105859942D01*
X159620857Y-105932514D01*
X158931428Y-105787371D02*
X158677428Y-105787371D01*
X158568571Y-106186514D02*
X158931428Y-106186514D01*
X158931428Y-105424514D01*
X158568571Y-105424514D01*
X158242000Y-105678514D02*
X158242000Y-106186514D01*
X158242000Y-105751085D02*
X158205714Y-105714800D01*
X158133142Y-105678514D01*
X158024285Y-105678514D01*
X157951714Y-105714800D01*
X157915428Y-105787371D01*
X157915428Y-106186514D01*
X157226000Y-105678514D02*
X157226000Y-106295371D01*
X157262285Y-106367942D01*
X157298571Y-106404228D01*
X157371142Y-106440514D01*
X157480000Y-106440514D01*
X157552571Y-106404228D01*
X157226000Y-106150228D02*
X157298571Y-106186514D01*
X157443714Y-106186514D01*
X157516285Y-106150228D01*
X157552571Y-106113942D01*
X157588857Y-106041371D01*
X157588857Y-105823657D01*
X157552571Y-105751085D01*
X157516285Y-105714800D01*
X157443714Y-105678514D01*
X157298571Y-105678514D01*
X157226000Y-105714800D01*
X156863142Y-106186514D02*
X156863142Y-105678514D01*
X156863142Y-105424514D02*
X156899428Y-105460800D01*
X156863142Y-105497085D01*
X156826857Y-105460800D01*
X156863142Y-105424514D01*
X156863142Y-105497085D01*
X156500285Y-105678514D02*
X156500285Y-106186514D01*
X156500285Y-105751085D02*
X156464000Y-105714800D01*
X156391428Y-105678514D01*
X156282571Y-105678514D01*
X156210000Y-105714800D01*
X156173714Y-105787371D01*
X156173714Y-106186514D01*
X155520571Y-106150228D02*
X155593142Y-106186514D01*
X155738285Y-106186514D01*
X155810857Y-106150228D01*
X155847142Y-106077657D01*
X155847142Y-105787371D01*
X155810857Y-105714800D01*
X155738285Y-105678514D01*
X155593142Y-105678514D01*
X155520571Y-105714800D01*
X155484285Y-105787371D01*
X155484285Y-105859942D01*
X155847142Y-105932514D01*
X155339142Y-106259085D02*
X154758571Y-106259085D01*
X154613428Y-106150228D02*
X154504571Y-106186514D01*
X154323142Y-106186514D01*
X154250571Y-106150228D01*
X154214285Y-106113942D01*
X154178000Y-106041371D01*
X154178000Y-105968800D01*
X154214285Y-105896228D01*
X154250571Y-105859942D01*
X154323142Y-105823657D01*
X154468285Y-105787371D01*
X154540857Y-105751085D01*
X154577142Y-105714800D01*
X154613428Y-105642228D01*
X154613428Y-105569657D01*
X154577142Y-105497085D01*
X154540857Y-105460800D01*
X154468285Y-105424514D01*
X154286857Y-105424514D01*
X154178000Y-105460800D01*
X153851428Y-105678514D02*
X153851428Y-106440514D01*
X153851428Y-105714800D02*
X153778857Y-105678514D01*
X153633714Y-105678514D01*
X153561142Y-105714800D01*
X153524857Y-105751085D01*
X153488571Y-105823657D01*
X153488571Y-106041371D01*
X153524857Y-106113942D01*
X153561142Y-106150228D01*
X153633714Y-106186514D01*
X153778857Y-106186514D01*
X153851428Y-106150228D01*
X153162000Y-106186514D02*
X153162000Y-105678514D01*
X153162000Y-105424514D02*
X153198285Y-105460800D01*
X153162000Y-105497085D01*
X153125714Y-105460800D01*
X153162000Y-105424514D01*
X153162000Y-105497085D01*
X152799142Y-105678514D02*
X152799142Y-106186514D01*
X152799142Y-105751085D02*
X152762857Y-105714800D01*
X152690285Y-105678514D01*
X152581428Y-105678514D01*
X152508857Y-105714800D01*
X152472571Y-105787371D01*
X152472571Y-106186514D01*
X151783142Y-106186514D02*
X151783142Y-105424514D01*
X151783142Y-106150228D02*
X151855714Y-106186514D01*
X152000857Y-106186514D01*
X152073428Y-106150228D01*
X152109714Y-106113942D01*
X152146000Y-106041371D01*
X152146000Y-105823657D01*
X152109714Y-105751085D01*
X152073428Y-105714800D01*
X152000857Y-105678514D01*
X151855714Y-105678514D01*
X151783142Y-105714800D01*
X151311428Y-106186514D02*
X151384000Y-106150228D01*
X151420285Y-106077657D01*
X151420285Y-105424514D01*
X150730857Y-106150228D02*
X150803428Y-106186514D01*
X150948571Y-106186514D01*
X151021142Y-106150228D01*
X151057428Y-106077657D01*
X151057428Y-105787371D01*
X151021142Y-105714800D01*
X150948571Y-105678514D01*
X150803428Y-105678514D01*
X150730857Y-105714800D01*
X150694571Y-105787371D01*
X150694571Y-105859942D01*
X151057428Y-105932514D01*
X150404285Y-105968800D02*
X150041428Y-105968800D01*
X150476857Y-106186514D02*
X150222857Y-105424514D01*
X149968857Y-106186514D01*
X149714857Y-105678514D02*
X149714857Y-106186514D01*
X149714857Y-105751085D02*
X149678571Y-105714800D01*
X149606000Y-105678514D01*
X149497142Y-105678514D01*
X149424571Y-105714800D01*
X149388285Y-105787371D01*
X149388285Y-106186514D01*
X148698857Y-106186514D02*
X148698857Y-105424514D01*
X148698857Y-106150228D02*
X148771428Y-106186514D01*
X148916571Y-106186514D01*
X148989142Y-106150228D01*
X149025428Y-106113942D01*
X149061714Y-106041371D01*
X149061714Y-105823657D01*
X149025428Y-105751085D01*
X148989142Y-105714800D01*
X148916571Y-105678514D01*
X148771428Y-105678514D01*
X148698857Y-105714800D01*
X148372285Y-105968800D02*
X148009428Y-105968800D01*
X148444857Y-106186514D02*
X148190857Y-105424514D01*
X147936857Y-106186514D01*
X147755428Y-106186514D02*
X147356285Y-105678514D01*
X147755428Y-105678514D02*
X147356285Y-106186514D01*
X147066000Y-106186514D02*
X147066000Y-105678514D01*
X147066000Y-105424514D02*
X147102285Y-105460800D01*
X147066000Y-105497085D01*
X147029714Y-105460800D01*
X147066000Y-105424514D01*
X147066000Y-105497085D01*
X146739428Y-106150228D02*
X146666857Y-106186514D01*
X146521714Y-106186514D01*
X146449142Y-106150228D01*
X146412857Y-106077657D01*
X146412857Y-106041371D01*
X146449142Y-105968800D01*
X146521714Y-105932514D01*
X146630571Y-105932514D01*
X146703142Y-105896228D01*
X146739428Y-105823657D01*
X146739428Y-105787371D01*
X146703142Y-105714800D01*
X146630571Y-105678514D01*
X146521714Y-105678514D01*
X146449142Y-105714800D01*
D12*
X124502938Y-140967580D02*
X124502938Y-140383380D01*
X124363842Y-140383380D01*
X124280385Y-140411200D01*
X124224747Y-140466838D01*
X124196928Y-140522476D01*
X124169109Y-140633752D01*
X124169109Y-140717209D01*
X124196928Y-140828485D01*
X124224747Y-140884123D01*
X124280385Y-140939761D01*
X124363842Y-140967580D01*
X124502938Y-140967580D01*
X123584909Y-140967580D02*
X123779642Y-140689390D01*
X123918738Y-140967580D02*
X123918738Y-140383380D01*
X123696185Y-140383380D01*
X123640547Y-140411200D01*
X123612728Y-140439019D01*
X123584909Y-140494657D01*
X123584909Y-140578114D01*
X123612728Y-140633752D01*
X123640547Y-140661571D01*
X123696185Y-140689390D01*
X123918738Y-140689390D01*
X123417995Y-140383380D02*
X123223261Y-140967580D01*
X123028528Y-140383380D01*
X122750338Y-140633752D02*
X122805976Y-140605933D01*
X122833795Y-140578114D01*
X122861614Y-140522476D01*
X122861614Y-140494657D01*
X122833795Y-140439019D01*
X122805976Y-140411200D01*
X122750338Y-140383380D01*
X122639061Y-140383380D01*
X122583423Y-140411200D01*
X122555604Y-140439019D01*
X122527785Y-140494657D01*
X122527785Y-140522476D01*
X122555604Y-140578114D01*
X122583423Y-140605933D01*
X122639061Y-140633752D01*
X122750338Y-140633752D01*
X122805976Y-140661571D01*
X122833795Y-140689390D01*
X122861614Y-140745028D01*
X122861614Y-140856304D01*
X122833795Y-140911942D01*
X122805976Y-140939761D01*
X122750338Y-140967580D01*
X122639061Y-140967580D01*
X122583423Y-140939761D01*
X122555604Y-140911942D01*
X122527785Y-140856304D01*
X122527785Y-140745028D01*
X122555604Y-140689390D01*
X122583423Y-140661571D01*
X122639061Y-140633752D01*
X122193957Y-140633752D02*
X122249595Y-140605933D01*
X122277414Y-140578114D01*
X122305233Y-140522476D01*
X122305233Y-140494657D01*
X122277414Y-140439019D01*
X122249595Y-140411200D01*
X122193957Y-140383380D01*
X122082680Y-140383380D01*
X122027042Y-140411200D01*
X121999223Y-140439019D01*
X121971404Y-140494657D01*
X121971404Y-140522476D01*
X121999223Y-140578114D01*
X122027042Y-140605933D01*
X122082680Y-140633752D01*
X122193957Y-140633752D01*
X122249595Y-140661571D01*
X122277414Y-140689390D01*
X122305233Y-140745028D01*
X122305233Y-140856304D01*
X122277414Y-140911942D01*
X122249595Y-140939761D01*
X122193957Y-140967580D01*
X122082680Y-140967580D01*
X122027042Y-140939761D01*
X121999223Y-140911942D01*
X121971404Y-140856304D01*
X121971404Y-140745028D01*
X121999223Y-140689390D01*
X122027042Y-140661571D01*
X122082680Y-140633752D01*
X121748852Y-140439019D02*
X121721033Y-140411200D01*
X121665395Y-140383380D01*
X121526300Y-140383380D01*
X121470661Y-140411200D01*
X121442842Y-140439019D01*
X121415023Y-140494657D01*
X121415023Y-140550295D01*
X121442842Y-140633752D01*
X121776671Y-140967580D01*
X121415023Y-140967580D01*
X120886461Y-140383380D02*
X121164652Y-140383380D01*
X121192471Y-140661571D01*
X121164652Y-140633752D01*
X121109014Y-140605933D01*
X120969919Y-140605933D01*
X120914280Y-140633752D01*
X120886461Y-140661571D01*
X120858642Y-140717209D01*
X120858642Y-140856304D01*
X120886461Y-140911942D01*
X120914280Y-140939761D01*
X120969919Y-140967580D01*
X121109014Y-140967580D01*
X121164652Y-140939761D01*
X121192471Y-140911942D01*
D13*
X151168100Y-139865100D02*
X151142700Y-161124900D01*
X134810500Y-161163000D02*
X134810500Y-139865100D01*
X134848600Y-139827000D02*
X151168100Y-139865100D01*
X151142700Y-161124900D02*
X134810500Y-161163000D01*
D14*
X127165100Y-167297100D02*
X125895100Y-167297100D01*
X126504700Y-166662100D02*
X126504700Y-167932100D01*
X127787400Y-167309800D02*
X129006600Y-167309800D01*
D13*
X131496131Y-165722300D02*
G75*
G03*
X131496131Y-165722300I-3899231J0D01*
G01*
D14*
X147332700Y-163842700D02*
X148551900Y-163842700D01*
X169506900Y-163830000D02*
X170726100Y-163830000D01*
X186575700Y-163703000D02*
X187794900Y-163703000D01*
X206768700Y-163868100D02*
X207987900Y-163868100D01*
X201841100Y-126415800D02*
X201841100Y-125196599D01*
D12*
X143565638Y-140802480D02*
X143565638Y-140218280D01*
X143426542Y-140218280D01*
X143343085Y-140246100D01*
X143287447Y-140301738D01*
X143259628Y-140357376D01*
X143231809Y-140468652D01*
X143231809Y-140552109D01*
X143259628Y-140663385D01*
X143287447Y-140719023D01*
X143343085Y-140774661D01*
X143426542Y-140802480D01*
X143565638Y-140802480D01*
X142647609Y-140802480D02*
X142842342Y-140524290D01*
X142981438Y-140802480D02*
X142981438Y-140218280D01*
X142758885Y-140218280D01*
X142703247Y-140246100D01*
X142675428Y-140273919D01*
X142647609Y-140329557D01*
X142647609Y-140413014D01*
X142675428Y-140468652D01*
X142703247Y-140496471D01*
X142758885Y-140524290D01*
X142981438Y-140524290D01*
X142480695Y-140218280D02*
X142285961Y-140802480D01*
X142091228Y-140218280D01*
X141813038Y-140468652D02*
X141868676Y-140440833D01*
X141896495Y-140413014D01*
X141924314Y-140357376D01*
X141924314Y-140329557D01*
X141896495Y-140273919D01*
X141868676Y-140246100D01*
X141813038Y-140218280D01*
X141701761Y-140218280D01*
X141646123Y-140246100D01*
X141618304Y-140273919D01*
X141590485Y-140329557D01*
X141590485Y-140357376D01*
X141618304Y-140413014D01*
X141646123Y-140440833D01*
X141701761Y-140468652D01*
X141813038Y-140468652D01*
X141868676Y-140496471D01*
X141896495Y-140524290D01*
X141924314Y-140579928D01*
X141924314Y-140691204D01*
X141896495Y-140746842D01*
X141868676Y-140774661D01*
X141813038Y-140802480D01*
X141701761Y-140802480D01*
X141646123Y-140774661D01*
X141618304Y-140746842D01*
X141590485Y-140691204D01*
X141590485Y-140579928D01*
X141618304Y-140524290D01*
X141646123Y-140496471D01*
X141701761Y-140468652D01*
X141256657Y-140468652D02*
X141312295Y-140440833D01*
X141340114Y-140413014D01*
X141367933Y-140357376D01*
X141367933Y-140329557D01*
X141340114Y-140273919D01*
X141312295Y-140246100D01*
X141256657Y-140218280D01*
X141145380Y-140218280D01*
X141089742Y-140246100D01*
X141061923Y-140273919D01*
X141034104Y-140329557D01*
X141034104Y-140357376D01*
X141061923Y-140413014D01*
X141089742Y-140440833D01*
X141145380Y-140468652D01*
X141256657Y-140468652D01*
X141312295Y-140496471D01*
X141340114Y-140524290D01*
X141367933Y-140579928D01*
X141367933Y-140691204D01*
X141340114Y-140746842D01*
X141312295Y-140774661D01*
X141256657Y-140802480D01*
X141145380Y-140802480D01*
X141089742Y-140774661D01*
X141061923Y-140746842D01*
X141034104Y-140691204D01*
X141034104Y-140579928D01*
X141061923Y-140524290D01*
X141089742Y-140496471D01*
X141145380Y-140468652D01*
X140811552Y-140273919D02*
X140783733Y-140246100D01*
X140728095Y-140218280D01*
X140589000Y-140218280D01*
X140533361Y-140246100D01*
X140505542Y-140273919D01*
X140477723Y-140329557D01*
X140477723Y-140385195D01*
X140505542Y-140468652D01*
X140839371Y-140802480D01*
X140477723Y-140802480D01*
X139949161Y-140218280D02*
X140227352Y-140218280D01*
X140255171Y-140496471D01*
X140227352Y-140468652D01*
X140171714Y-140440833D01*
X140032619Y-140440833D01*
X139976980Y-140468652D01*
X139949161Y-140496471D01*
X139921342Y-140552109D01*
X139921342Y-140691204D01*
X139949161Y-140746842D01*
X139976980Y-140774661D01*
X140032619Y-140802480D01*
X140171714Y-140802480D01*
X140227352Y-140774661D01*
X140255171Y-140746842D01*
X165041338Y-141183480D02*
X165041338Y-140599280D01*
X164902242Y-140599280D01*
X164818785Y-140627100D01*
X164763147Y-140682738D01*
X164735328Y-140738376D01*
X164707509Y-140849652D01*
X164707509Y-140933109D01*
X164735328Y-141044385D01*
X164763147Y-141100023D01*
X164818785Y-141155661D01*
X164902242Y-141183480D01*
X165041338Y-141183480D01*
X164123309Y-141183480D02*
X164318042Y-140905290D01*
X164457138Y-141183480D02*
X164457138Y-140599280D01*
X164234585Y-140599280D01*
X164178947Y-140627100D01*
X164151128Y-140654919D01*
X164123309Y-140710557D01*
X164123309Y-140794014D01*
X164151128Y-140849652D01*
X164178947Y-140877471D01*
X164234585Y-140905290D01*
X164457138Y-140905290D01*
X163956395Y-140599280D02*
X163761661Y-141183480D01*
X163566928Y-140599280D01*
X163288738Y-140849652D02*
X163344376Y-140821833D01*
X163372195Y-140794014D01*
X163400014Y-140738376D01*
X163400014Y-140710557D01*
X163372195Y-140654919D01*
X163344376Y-140627100D01*
X163288738Y-140599280D01*
X163177461Y-140599280D01*
X163121823Y-140627100D01*
X163094004Y-140654919D01*
X163066185Y-140710557D01*
X163066185Y-140738376D01*
X163094004Y-140794014D01*
X163121823Y-140821833D01*
X163177461Y-140849652D01*
X163288738Y-140849652D01*
X163344376Y-140877471D01*
X163372195Y-140905290D01*
X163400014Y-140960928D01*
X163400014Y-141072204D01*
X163372195Y-141127842D01*
X163344376Y-141155661D01*
X163288738Y-141183480D01*
X163177461Y-141183480D01*
X163121823Y-141155661D01*
X163094004Y-141127842D01*
X163066185Y-141072204D01*
X163066185Y-140960928D01*
X163094004Y-140905290D01*
X163121823Y-140877471D01*
X163177461Y-140849652D01*
X162732357Y-140849652D02*
X162787995Y-140821833D01*
X162815814Y-140794014D01*
X162843633Y-140738376D01*
X162843633Y-140710557D01*
X162815814Y-140654919D01*
X162787995Y-140627100D01*
X162732357Y-140599280D01*
X162621080Y-140599280D01*
X162565442Y-140627100D01*
X162537623Y-140654919D01*
X162509804Y-140710557D01*
X162509804Y-140738376D01*
X162537623Y-140794014D01*
X162565442Y-140821833D01*
X162621080Y-140849652D01*
X162732357Y-140849652D01*
X162787995Y-140877471D01*
X162815814Y-140905290D01*
X162843633Y-140960928D01*
X162843633Y-141072204D01*
X162815814Y-141127842D01*
X162787995Y-141155661D01*
X162732357Y-141183480D01*
X162621080Y-141183480D01*
X162565442Y-141155661D01*
X162537623Y-141127842D01*
X162509804Y-141072204D01*
X162509804Y-140960928D01*
X162537623Y-140905290D01*
X162565442Y-140877471D01*
X162621080Y-140849652D01*
X162287252Y-140654919D02*
X162259433Y-140627100D01*
X162203795Y-140599280D01*
X162064700Y-140599280D01*
X162009061Y-140627100D01*
X161981242Y-140654919D01*
X161953423Y-140710557D01*
X161953423Y-140766195D01*
X161981242Y-140849652D01*
X162315071Y-141183480D01*
X161953423Y-141183480D01*
X161424861Y-140599280D02*
X161703052Y-140599280D01*
X161730871Y-140877471D01*
X161703052Y-140849652D01*
X161647414Y-140821833D01*
X161508319Y-140821833D01*
X161452680Y-140849652D01*
X161424861Y-140877471D01*
X161397042Y-140933109D01*
X161397042Y-141072204D01*
X161424861Y-141127842D01*
X161452680Y-141155661D01*
X161508319Y-141183480D01*
X161647414Y-141183480D01*
X161703052Y-141155661D01*
X161730871Y-141127842D01*
X185920138Y-140802480D02*
X185920138Y-140218280D01*
X185781042Y-140218280D01*
X185697585Y-140246100D01*
X185641947Y-140301738D01*
X185614128Y-140357376D01*
X185586309Y-140468652D01*
X185586309Y-140552109D01*
X185614128Y-140663385D01*
X185641947Y-140719023D01*
X185697585Y-140774661D01*
X185781042Y-140802480D01*
X185920138Y-140802480D01*
X185002109Y-140802480D02*
X185196842Y-140524290D01*
X185335938Y-140802480D02*
X185335938Y-140218280D01*
X185113385Y-140218280D01*
X185057747Y-140246100D01*
X185029928Y-140273919D01*
X185002109Y-140329557D01*
X185002109Y-140413014D01*
X185029928Y-140468652D01*
X185057747Y-140496471D01*
X185113385Y-140524290D01*
X185335938Y-140524290D01*
X184835195Y-140218280D02*
X184640461Y-140802480D01*
X184445728Y-140218280D01*
X184167538Y-140468652D02*
X184223176Y-140440833D01*
X184250995Y-140413014D01*
X184278814Y-140357376D01*
X184278814Y-140329557D01*
X184250995Y-140273919D01*
X184223176Y-140246100D01*
X184167538Y-140218280D01*
X184056261Y-140218280D01*
X184000623Y-140246100D01*
X183972804Y-140273919D01*
X183944985Y-140329557D01*
X183944985Y-140357376D01*
X183972804Y-140413014D01*
X184000623Y-140440833D01*
X184056261Y-140468652D01*
X184167538Y-140468652D01*
X184223176Y-140496471D01*
X184250995Y-140524290D01*
X184278814Y-140579928D01*
X184278814Y-140691204D01*
X184250995Y-140746842D01*
X184223176Y-140774661D01*
X184167538Y-140802480D01*
X184056261Y-140802480D01*
X184000623Y-140774661D01*
X183972804Y-140746842D01*
X183944985Y-140691204D01*
X183944985Y-140579928D01*
X183972804Y-140524290D01*
X184000623Y-140496471D01*
X184056261Y-140468652D01*
X183611157Y-140468652D02*
X183666795Y-140440833D01*
X183694614Y-140413014D01*
X183722433Y-140357376D01*
X183722433Y-140329557D01*
X183694614Y-140273919D01*
X183666795Y-140246100D01*
X183611157Y-140218280D01*
X183499880Y-140218280D01*
X183444242Y-140246100D01*
X183416423Y-140273919D01*
X183388604Y-140329557D01*
X183388604Y-140357376D01*
X183416423Y-140413014D01*
X183444242Y-140440833D01*
X183499880Y-140468652D01*
X183611157Y-140468652D01*
X183666795Y-140496471D01*
X183694614Y-140524290D01*
X183722433Y-140579928D01*
X183722433Y-140691204D01*
X183694614Y-140746842D01*
X183666795Y-140774661D01*
X183611157Y-140802480D01*
X183499880Y-140802480D01*
X183444242Y-140774661D01*
X183416423Y-140746842D01*
X183388604Y-140691204D01*
X183388604Y-140579928D01*
X183416423Y-140524290D01*
X183444242Y-140496471D01*
X183499880Y-140468652D01*
X183166052Y-140273919D02*
X183138233Y-140246100D01*
X183082595Y-140218280D01*
X182943500Y-140218280D01*
X182887861Y-140246100D01*
X182860042Y-140273919D01*
X182832223Y-140329557D01*
X182832223Y-140385195D01*
X182860042Y-140468652D01*
X183193871Y-140802480D01*
X182832223Y-140802480D01*
X182303661Y-140218280D02*
X182581852Y-140218280D01*
X182609671Y-140496471D01*
X182581852Y-140468652D01*
X182526214Y-140440833D01*
X182387119Y-140440833D01*
X182331480Y-140468652D01*
X182303661Y-140496471D01*
X182275842Y-140552109D01*
X182275842Y-140691204D01*
X182303661Y-140746842D01*
X182331480Y-140774661D01*
X182387119Y-140802480D01*
X182526214Y-140802480D01*
X182581852Y-140774661D01*
X182609671Y-140746842D01*
X206341738Y-141450180D02*
X206341738Y-140865980D01*
X206202642Y-140865980D01*
X206119185Y-140893800D01*
X206063547Y-140949438D01*
X206035728Y-141005076D01*
X206007909Y-141116352D01*
X206007909Y-141199809D01*
X206035728Y-141311085D01*
X206063547Y-141366723D01*
X206119185Y-141422361D01*
X206202642Y-141450180D01*
X206341738Y-141450180D01*
X205423709Y-141450180D02*
X205618442Y-141171990D01*
X205757538Y-141450180D02*
X205757538Y-140865980D01*
X205534985Y-140865980D01*
X205479347Y-140893800D01*
X205451528Y-140921619D01*
X205423709Y-140977257D01*
X205423709Y-141060714D01*
X205451528Y-141116352D01*
X205479347Y-141144171D01*
X205534985Y-141171990D01*
X205757538Y-141171990D01*
X205256795Y-140865980D02*
X205062061Y-141450180D01*
X204867328Y-140865980D01*
X204589138Y-141116352D02*
X204644776Y-141088533D01*
X204672595Y-141060714D01*
X204700414Y-141005076D01*
X204700414Y-140977257D01*
X204672595Y-140921619D01*
X204644776Y-140893800D01*
X204589138Y-140865980D01*
X204477861Y-140865980D01*
X204422223Y-140893800D01*
X204394404Y-140921619D01*
X204366585Y-140977257D01*
X204366585Y-141005076D01*
X204394404Y-141060714D01*
X204422223Y-141088533D01*
X204477861Y-141116352D01*
X204589138Y-141116352D01*
X204644776Y-141144171D01*
X204672595Y-141171990D01*
X204700414Y-141227628D01*
X204700414Y-141338904D01*
X204672595Y-141394542D01*
X204644776Y-141422361D01*
X204589138Y-141450180D01*
X204477861Y-141450180D01*
X204422223Y-141422361D01*
X204394404Y-141394542D01*
X204366585Y-141338904D01*
X204366585Y-141227628D01*
X204394404Y-141171990D01*
X204422223Y-141144171D01*
X204477861Y-141116352D01*
X204032757Y-141116352D02*
X204088395Y-141088533D01*
X204116214Y-141060714D01*
X204144033Y-141005076D01*
X204144033Y-140977257D01*
X204116214Y-140921619D01*
X204088395Y-140893800D01*
X204032757Y-140865980D01*
X203921480Y-140865980D01*
X203865842Y-140893800D01*
X203838023Y-140921619D01*
X203810204Y-140977257D01*
X203810204Y-141005076D01*
X203838023Y-141060714D01*
X203865842Y-141088533D01*
X203921480Y-141116352D01*
X204032757Y-141116352D01*
X204088395Y-141144171D01*
X204116214Y-141171990D01*
X204144033Y-141227628D01*
X204144033Y-141338904D01*
X204116214Y-141394542D01*
X204088395Y-141422361D01*
X204032757Y-141450180D01*
X203921480Y-141450180D01*
X203865842Y-141422361D01*
X203838023Y-141394542D01*
X203810204Y-141338904D01*
X203810204Y-141227628D01*
X203838023Y-141171990D01*
X203865842Y-141144171D01*
X203921480Y-141116352D01*
X203587652Y-140921619D02*
X203559833Y-140893800D01*
X203504195Y-140865980D01*
X203365100Y-140865980D01*
X203309461Y-140893800D01*
X203281642Y-140921619D01*
X203253823Y-140977257D01*
X203253823Y-141032895D01*
X203281642Y-141116352D01*
X203615471Y-141450180D01*
X203253823Y-141450180D01*
X202725261Y-140865980D02*
X203003452Y-140865980D01*
X203031271Y-141144171D01*
X203003452Y-141116352D01*
X202947814Y-141088533D01*
X202808719Y-141088533D01*
X202753080Y-141116352D01*
X202725261Y-141144171D01*
X202697442Y-141199809D01*
X202697442Y-141338904D01*
X202725261Y-141394542D01*
X202753080Y-141422361D01*
X202808719Y-141450180D01*
X202947814Y-141450180D01*
X203003452Y-141422361D01*
X203031271Y-141394542D01*
X198774352Y-104861480D02*
X198440523Y-104861480D01*
X198607438Y-105445680D02*
X198607438Y-104861480D01*
X198023238Y-105417861D02*
X198078876Y-105445680D01*
X198190152Y-105445680D01*
X198245790Y-105417861D01*
X198273609Y-105362223D01*
X198273609Y-105139671D01*
X198245790Y-105084033D01*
X198190152Y-105056214D01*
X198078876Y-105056214D01*
X198023238Y-105084033D01*
X197995419Y-105139671D01*
X197995419Y-105195309D01*
X198273609Y-105250947D01*
X197522495Y-105417861D02*
X197578133Y-105445680D01*
X197689409Y-105445680D01*
X197745047Y-105417861D01*
X197772866Y-105362223D01*
X197772866Y-105139671D01*
X197745047Y-105084033D01*
X197689409Y-105056214D01*
X197578133Y-105056214D01*
X197522495Y-105084033D01*
X197494676Y-105139671D01*
X197494676Y-105195309D01*
X197772866Y-105250947D01*
X197244304Y-105056214D02*
X197244304Y-105445680D01*
X197244304Y-105111852D02*
X197216485Y-105084033D01*
X197160847Y-105056214D01*
X197077390Y-105056214D01*
X197021752Y-105084033D01*
X196993933Y-105139671D01*
X196993933Y-105445680D01*
X196743561Y-105417861D02*
X196687923Y-105445680D01*
X196576647Y-105445680D01*
X196521009Y-105417861D01*
X196493190Y-105362223D01*
X196493190Y-105334404D01*
X196521009Y-105278766D01*
X196576647Y-105250947D01*
X196660104Y-105250947D01*
X196715742Y-105223128D01*
X196743561Y-105167490D01*
X196743561Y-105139671D01*
X196715742Y-105084033D01*
X196660104Y-105056214D01*
X196576647Y-105056214D01*
X196521009Y-105084033D01*
X196298457Y-105056214D02*
X196159361Y-105445680D01*
X196020266Y-105056214D02*
X196159361Y-105445680D01*
X196215000Y-105584776D01*
X196242819Y-105612595D01*
X196298457Y-105640414D01*
D13*
X203571080Y-124764800D02*
G75*
G03*
X203571080Y-124764800I-4092180J0D01*
G01*
X149796500Y-165582600D02*
G75*
G03*
X149796500Y-165582600I-2794000J0D01*
G01*
X171691300Y-165633400D02*
G75*
G03*
X171691300Y-165633400I-2794000J0D01*
G01*
X188988700Y-165481000D02*
G75*
G03*
X188988700Y-165481000I-2794000J0D01*
G01*
X208991200Y-165620700D02*
G75*
G03*
X208991200Y-165620700I-2794000J0D01*
G01*
X196646800Y-160972500D02*
X196608700Y-139534900D01*
X213004400Y-160794700D02*
X196646800Y-160972500D01*
X212902800Y-139458700D02*
X213004400Y-160794700D01*
X196608700Y-139420600D02*
X212902800Y-139458700D01*
X192519300Y-139763500D02*
X176301400Y-139763500D01*
X192506600Y-161163000D02*
X192519300Y-139763500D01*
X176250600Y-161163000D02*
X192506600Y-161163000D01*
X176212500Y-139687300D02*
X176250600Y-161163000D01*
X172046900Y-140182600D02*
X155727400Y-140068300D01*
X172021500Y-161544000D02*
X172046900Y-140182600D01*
X155765500Y-161518600D02*
X172021500Y-161544000D01*
X155765500Y-140144500D02*
X155765500Y-161518600D01*
X114769900Y-161328100D02*
X114769900Y-140030200D01*
X131102100Y-161290000D02*
X114769900Y-161328100D01*
X131127500Y-140030200D02*
X131102100Y-161290000D01*
X114808000Y-139992100D02*
X131127500Y-140030200D01*
X202526900Y-98526600D02*
X141160500Y-98602800D01*
X202552300Y-116471700D02*
X202526900Y-98526600D01*
X141262100Y-116598700D02*
X202552300Y-116471700D01*
X141198600Y-98844100D02*
X141262100Y-116598700D01*
D14*
X201828400Y-122707400D02*
X201828400Y-123901200D01*
X201193400Y-123342400D02*
X202412600Y-123342400D01*
D12*
X195605400Y-154533600D02*
X195605400Y-154508200D01*
D14*
X204381100Y-163893500D02*
X205600300Y-163893500D01*
X205003400Y-163271200D02*
X205003400Y-164465000D01*
X184404000Y-163741100D02*
X185674000Y-163741100D01*
X185039000Y-163131500D02*
X185039000Y-164350700D01*
X167309800Y-163804600D02*
X168605200Y-163804600D01*
X167957500Y-163207700D02*
X167957500Y-164426900D01*
X146710400Y-163830000D02*
X145440400Y-163830000D01*
X146050000Y-163195000D02*
X146050000Y-164465000D01*
M02*
