M48
; DRILL file {KiCad (5.1.2)-1} date 20/07/2019 16:27:49
; FORMAT={3:3/ absolute / metric / suppress leading zeros}
; #@! TF.CreationDate,2019-07-20T16:27:49-07:00
; #@! TF.GenerationSoftware,Kicad,Pcbnew,(5.1.2)-1
FMAT,2
METRIC,TZ
T1C0.400
T2C0.800
T3C0.950
T4C1.000
T5C1.200
T6C3.700
%
G90
G05
T1
X123139Y-81115
X123711Y-80543
X124371Y-80112
X126505Y-112090
X126505Y-113284
X126505Y-115786
X126530Y-116624
X126530Y-117424
X126543Y-119482
X126554Y-118377
X126606Y-98082
X126619Y-100914
X126682Y-103048
X128626Y-106299
X129132Y-94142
X129134Y-95979
X129147Y-94970
X129154Y-93342
X129159Y-92481
X129853Y-105966
X130581Y-105601
X131610Y-110134
X131712Y-105207
X131741Y-92026
X132613Y-104889
X132677Y-109398
X132906Y-92037
X137577Y-141115
X139332Y-140983
X140284Y-126098
X140970Y-141465
X141300Y-101321
X141415Y-143764
X141415Y-156147
X141423Y-145809
X141567Y-151414
X142343Y-101681
X142739Y-125586
X142837Y-139662
X143434Y-134569
X143435Y-102107
X143904Y-125157
X144540Y-102567
X144714Y-134889
X145631Y-124727
X145783Y-103022
X146647Y-135954
X149301Y-134099
X149631Y-136804
X151178Y-134247
X151308Y-135306
X153661Y-94370
X154356Y-143396
X155092Y-141026
X155270Y-143472
X156702Y-117213
X157175Y-143180
X157442Y-101829
X157988Y-124728
X158098Y-140005
X158102Y-143142
X158636Y-116167
X158909Y-125118
X159290Y-101670
X159410Y-143091
X159436Y-111836
X159558Y-125586
X159982Y-110947
X160820Y-126822
X161092Y-153459
X161481Y-108123
X162725Y-94424
X163513Y-108737
X163576Y-103975
X163615Y-103175
X164633Y-124996
X165236Y-124393
X165697Y-93993
X165937Y-124007
X166814Y-109880
X167221Y-123482
X167234Y-101143
X167754Y-133121
X168643Y-109042
X168986Y-137566
X169913Y-133401
X170053Y-116459
X170612Y-101308
X170854Y-118735
X170975Y-111153
X170975Y-111953
X171044Y-92062
X171386Y-135763
X171488Y-114325
X172669Y-116632
X172745Y-92140
X172745Y-101105
X172961Y-95428
X173444Y-100528
X173711Y-92140
X173847Y-103884
X173871Y-114829
X174015Y-144196
X174384Y-116734
X174587Y-92140
X174777Y-143129
X175311Y-95496
X176213Y-103061
X176425Y-107318
X176568Y-142177
X176911Y-144031
X177267Y-123571
X177356Y-140259
X178248Y-104313
X178308Y-107086
X178333Y-116675
X178854Y-142812
X179070Y-105034
X179337Y-144602
X180734Y-111049
X182258Y-137211
X182359Y-105462
X183032Y-133668
X184048Y-122949
X184125Y-112331
X184912Y-123482
X185433Y-105575
X185496Y-132626
X186639Y-124714
X187147Y-107658
X188239Y-107340
X188468Y-110947
X188519Y-138494
X189116Y-95250
X189281Y-137681
X190271Y-95298
X190729Y-100889
X190868Y-108877
X192748Y-146863
X192761Y-141160
X193421Y-102751
X193726Y-140741
X193942Y-143942
X194374Y-102934
X194678Y-93866
X194831Y-143967
X195313Y-102870
X195580Y-93917
X195720Y-143853
X196317Y-102832
X197523Y-94348
X198733Y-147431
X198907Y-150355
X199110Y-99034
X199708Y-94844
X199785Y-99464
X202006Y-103619
T2
X183032Y-118364
X193192Y-118364
X174625Y-165100
X177125Y-165100
X180492Y-131064
X190652Y-131064
X150012Y-131064
X160172Y-131064
X152552Y-118402
X162712Y-118402
X132232Y-131064
X142392Y-131064
X200101Y-117566
X135890Y-165100
X138390Y-165100
X162712Y-131064
X172872Y-131064
X165252Y-120904
X165252Y-128524
X167792Y-120904
X167792Y-128524
X170332Y-120904
X170332Y-128524
X172872Y-120904
X172872Y-128524
X175412Y-120904
X175412Y-128524
X177952Y-120904
X177952Y-128524
X180492Y-120904
X180492Y-128524
X183032Y-120904
X183032Y-128524
X185572Y-120904
X185572Y-128524
X188112Y-120904
X188112Y-128524
X134772Y-120904
X134772Y-128524
X137312Y-120904
X137312Y-128524
X139852Y-120904
X139852Y-128524
X142392Y-120904
X142392Y-128524
X144932Y-120904
X144932Y-128524
X147472Y-120904
X147472Y-128524
X150012Y-120904
X150012Y-128524
X152552Y-120904
X152552Y-128524
X155092Y-120904
X155092Y-128524
X157632Y-120904
X157632Y-128524
X193040Y-165100
X195540Y-165100
X134772Y-118402
X144932Y-118402
X154940Y-165100
X157440Y-165100
X165252Y-118364
X175412Y-118364
T3
X137211Y-98171
X137211Y-105791
X137211Y-108331
X137211Y-113411
X139751Y-98171
X139751Y-105791
X139751Y-108331
X139751Y-113411
X142291Y-98171
X142291Y-105791
X142291Y-108331
X142291Y-113411
X144831Y-98171
X144831Y-105791
X144831Y-108331
X144831Y-113411
X147371Y-98171
X147371Y-105791
X147371Y-108331
X147371Y-113411
X149911Y-98171
X149911Y-113411
X152451Y-98171
X152451Y-105791
X152451Y-108331
X152451Y-113411
X154991Y-98171
X154991Y-105791
X154991Y-108331
X154991Y-113411
X157531Y-98171
X157531Y-105791
X157531Y-108331
X157531Y-113411
X160071Y-98171
X160071Y-113411
X162611Y-98171
X162611Y-113411
X165151Y-98171
X165151Y-113411
X167691Y-98171
X167691Y-113411
X170231Y-98171
X170231Y-113411
X172771Y-98171
X172771Y-108331
X172771Y-113411
X175311Y-98171
X175311Y-108331
X175311Y-113411
X177851Y-98171
X177851Y-108331
X177851Y-113411
X179121Y-101171
X180391Y-98171
X180391Y-108331
X180391Y-113411
X181661Y-101171
X182931Y-98171
X182931Y-110871
X182931Y-113411
X184201Y-101171
X185471Y-98171
X185471Y-110871
X185471Y-113411
X186741Y-101171
X188011Y-98171
X188011Y-113411
X190551Y-98171
X190551Y-113411
X193091Y-98171
X193091Y-113411
X195631Y-98171
X195631Y-113411
X200101Y-120066
T4
X198120Y-79248
X200660Y-79248
X203200Y-79248
X148590Y-78232
X148590Y-80772
X148590Y-83312
X148590Y-85852
X148590Y-88392
X163830Y-78232
X163830Y-80772
X163830Y-83312
X163830Y-85852
X163830Y-88392
X132080Y-141732
X132080Y-144272
X132080Y-146812
X132080Y-149352
X132080Y-151892
X132080Y-154432
X132080Y-156972
X132080Y-159512
X144780Y-141732
X144780Y-144272
X144780Y-146812
X144780Y-149352
X144780Y-151892
X144780Y-154432
X144780Y-156972
X144780Y-159512
X167640Y-78740
X167640Y-81280
X167640Y-83820
X167640Y-86360
X167640Y-88900
X170180Y-78740
X170180Y-81280
X170180Y-83820
X170180Y-86360
X170180Y-88900
X151130Y-141732
X151130Y-144272
X151130Y-146812
X151130Y-149352
X151130Y-151892
X151130Y-154432
X151130Y-156972
X151130Y-159512
X163830Y-141732
X163830Y-144272
X163830Y-146812
X163830Y-149352
X163830Y-151892
X163830Y-154432
X163830Y-156972
X163830Y-159512
X128270Y-77597
X128270Y-80137
X128270Y-82677
X128270Y-85217
X193040Y-135382
X193040Y-137922
X195580Y-135382
X195580Y-137922
X198120Y-135382
X198120Y-137922
X185420Y-80010
X185420Y-82550
X185420Y-85090
X185420Y-87630
X185420Y-90170
X185420Y-92710
X126429Y-169685
X126429Y-172225
X123012Y-85344
X123012Y-87884
X123012Y-90424
X123012Y-92964
X123012Y-95504
X123012Y-98044
X123012Y-100584
X123012Y-103124
X123012Y-105664
X123012Y-108204
X123012Y-110744
X123012Y-113284
X123012Y-115824
X123012Y-118364
X123012Y-120904
X123012Y-123444
X123012Y-125984
X123012Y-128524
X123012Y-131064
X123012Y-133604
X123012Y-136144
X123012Y-138684
X123012Y-141224
X123012Y-143764
X123012Y-146304
X123012Y-148844
X123012Y-151384
X123012Y-153924
X123012Y-156464
X123012Y-159004
X123012Y-161544
X123012Y-164084
X123012Y-166624
X173990Y-77597
X173990Y-80137
X173990Y-82677
X204978Y-86360
X207518Y-86360
X210058Y-86360
X212598Y-86360
X189230Y-141732
X189230Y-144272
X189230Y-146812
X189230Y-149352
X189230Y-151892
X189230Y-154432
X189230Y-156972
X189230Y-159512
X201930Y-141732
X201930Y-144272
X201930Y-146812
X201930Y-149352
X201930Y-151892
X201930Y-154432
X201930Y-156972
X201930Y-159512
X154940Y-135382
X154940Y-137922
X157480Y-135382
X157480Y-137922
X160020Y-135382
X160020Y-137922
X153670Y-78232
X153670Y-80772
X153670Y-83312
X153670Y-85852
X153670Y-88392
X120472Y-85344
X120472Y-87884
X120472Y-90424
X120472Y-92964
X120472Y-95504
X120472Y-98044
X120472Y-100584
X120472Y-103124
X120472Y-105664
X120472Y-108204
X120472Y-110744
X120472Y-113284
X120472Y-115824
X120472Y-118364
X120472Y-120904
X120472Y-123444
X120472Y-125984
X120472Y-128524
X120472Y-131064
X120472Y-133604
X120472Y-136144
X120472Y-138684
X120472Y-141224
X120472Y-143764
X120472Y-146304
X120472Y-148844
X120472Y-151384
X120472Y-153924
X120472Y-156464
X120472Y-159004
X120472Y-161544
X120472Y-164084
X120472Y-166624
X204978Y-88900
X207518Y-88900
X210058Y-88900
X212598Y-88900
X156210Y-78232
X156210Y-80772
X156210Y-83312
X156210Y-85852
X156210Y-88392
X177800Y-80010
X177800Y-82550
X177800Y-85090
X177800Y-87630
X177800Y-90170
X177800Y-92710
X146050Y-78232
X146050Y-80772
X146050Y-83312
X146050Y-85852
X146050Y-88392
X115392Y-85344
X115392Y-87884
X115392Y-90424
X115392Y-92964
X115392Y-95504
X115392Y-98044
X115392Y-100584
X115392Y-103124
X115392Y-105664
X115392Y-108204
X115392Y-110744
X115392Y-113284
X115392Y-115824
X115392Y-118364
X115392Y-120904
X115392Y-123444
X115392Y-125984
X115392Y-128524
X115392Y-131064
X115392Y-133604
X115392Y-136144
X115392Y-138684
X115392Y-141224
X115392Y-143764
X115392Y-146304
X115392Y-148844
X115392Y-151384
X115392Y-153924
X115392Y-156464
X115392Y-159004
X115392Y-161544
X115392Y-164084
X115392Y-166624
X134620Y-78740
X134620Y-81280
X134620Y-83820
X134620Y-86360
X134620Y-88900
X137160Y-78740
X137160Y-81280
X137160Y-83820
X137160Y-86360
X137160Y-88900
X189230Y-79248
X191770Y-79248
X194310Y-79248
X130810Y-77597
X130810Y-80137
X130810Y-82677
X130810Y-85217
X175412Y-131064
X177952Y-131064
X204978Y-91440
X207518Y-91440
X210058Y-91440
X212598Y-91440
X180340Y-80010
X180340Y-82550
X180340Y-85090
X180340Y-87630
X180340Y-90170
X180340Y-92710
X170180Y-141732
X170180Y-144272
X170180Y-146812
X170180Y-149352
X170180Y-151892
X170180Y-154432
X170180Y-156972
X170180Y-159512
X182880Y-141732
X182880Y-144272
X182880Y-146812
X182880Y-149352
X182880Y-151892
X182880Y-154432
X182880Y-156972
X182880Y-159512
X151130Y-78232
X151130Y-80772
X151130Y-83312
X151130Y-85852
X151130Y-88392
X158750Y-78232
X158750Y-80772
X158750Y-83312
X158750Y-85852
X158750Y-88392
X140970Y-78232
X140970Y-80772
X140970Y-83312
X140970Y-85852
X140970Y-88392
X161290Y-78232
X161290Y-80772
X161290Y-83312
X161290Y-85852
X161290Y-88392
X135890Y-135382
X135890Y-137922
X138430Y-135382
X138430Y-137922
X140970Y-135382
X140970Y-137922
X204978Y-99060
X207518Y-99060
X210058Y-99060
X212598Y-99060
X143510Y-78232
X143510Y-80772
X143510Y-83312
X143510Y-85852
X143510Y-88392
X173990Y-135382
X173990Y-137922
X176530Y-135382
X176530Y-137922
X179070Y-135382
X179070Y-137922
X117932Y-85344
X117932Y-87884
X117932Y-90424
X117932Y-92964
X117932Y-95504
X117932Y-98044
X117932Y-100584
X117932Y-103124
X117932Y-105664
X117932Y-108204
X117932Y-110744
X117932Y-113284
X117932Y-115824
X117932Y-118364
X117932Y-120904
X117932Y-123444
X117932Y-125984
X117932Y-128524
X117932Y-131064
X117932Y-133604
X117932Y-136144
X117932Y-138684
X117932Y-141224
X117932Y-143764
X117932Y-146304
X117932Y-148844
X117932Y-151384
X117932Y-153924
X117932Y-156464
X117932Y-159004
X117932Y-161544
X117932Y-164084
X117932Y-166624
X182880Y-80010
X182880Y-82550
X182880Y-85090
X182880Y-87630
X182880Y-90170
X182880Y-92710
X177952Y-118364
X180492Y-118364
X204978Y-96520
X207518Y-96520
X210058Y-96520
X212598Y-96520
X144945Y-131064
X147485Y-131064
X204978Y-93980
X207518Y-93980
X210058Y-93980
X212598Y-93980
X147472Y-118402
X150012Y-118402
T5
X198780Y-83820
X198780Y-86360
X198780Y-88900
X198780Y-91440
X193040Y-171069
X196540Y-171069
X200040Y-171069
X203540Y-171069
X208801Y-122444
X208801Y-125944
X208801Y-129444
X208801Y-132944
X191643Y-83820
X191643Y-86360
X191643Y-88900
X191643Y-91440
X138430Y-146812
X138430Y-149352
X138430Y-151892
X138430Y-154432
X157480Y-146812
X157480Y-149352
X157480Y-151892
X157480Y-154432
X208818Y-155870
X208818Y-159370
X208818Y-162870
X208818Y-166370
X194158Y-125959
X196698Y-125959
X199238Y-125959
X208839Y-139157
X208839Y-142657
X208839Y-146157
X208839Y-149657
X150698Y-171069
X154198Y-171069
X157698Y-171069
X161198Y-171069
X195580Y-146812
X195580Y-149352
X195580Y-151892
X195580Y-154432
X171882Y-171069
X175382Y-171069
X178882Y-171069
X182382Y-171069
X130683Y-171069
X134183Y-171069
X137683Y-171069
X141183Y-171069
X176530Y-146812
X176530Y-149352
X176530Y-151892
X176530Y-154432
X208661Y-105730
X208661Y-109230
X208661Y-112730
X208661Y-116230
T6
X117546Y-172700
X117546Y-79700
X210546Y-79700
X210546Y-172700
T0
M30
