G04 #@! TF.GenerationSoftware,KiCad,Pcbnew,(5.1.2)-1*
G04 #@! TF.CreationDate,2019-07-10T00:26:15-07:00*
G04 #@! TF.ProjectId,4Rose_t35_002a,34526f73-655f-4743-9335-5f303032612e,rev?*
G04 #@! TF.SameCoordinates,Original*
G04 #@! TF.FileFunction,Soldermask,Top*
G04 #@! TF.FilePolarity,Negative*
%FSLAX46Y46*%
G04 Gerber Fmt 4.6, Leading zero omitted, Abs format (unit mm)*
G04 Created by KiCad (PCBNEW (5.1.2)-1) date 2019-07-10 00:26:15*
%MOMM*%
%LPD*%
G04 APERTURE LIST*
%ADD10C,4.100000*%
%ADD11O,2.100000X2.100000*%
%ADD12R,2.100000X2.100000*%
%ADD13C,2.000000*%
%ADD14R,2.000000X2.000000*%
%ADD15O,3.448000X2.200000*%
%ADD16R,3.448000X2.200000*%
%ADD17O,2.000000X2.000000*%
%ADD18R,2.100000X2.900000*%
%ADD19O,2.100000X2.900000*%
%ADD20O,2.200000X3.448000*%
%ADD21O,2.686000X2.305000*%
%ADD22O,2.432000X2.178000*%
%ADD23R,2.686000X2.178000*%
%ADD24O,2.940000X2.305000*%
%ADD25R,2.940000X2.305000*%
%ADD26C,1.800000*%
%ADD27O,1.800000X1.800000*%
%ADD28R,3.000000X2.400000*%
%ADD29O,3.000000X2.400000*%
G04 APERTURE END LIST*
D10*
X210546000Y-172700000D03*
X117546000Y-172700000D03*
X117546000Y-79700000D03*
X210546000Y-79700000D03*
D11*
X120472200Y-166624000D03*
X120472200Y-164084000D03*
X120472200Y-161544000D03*
X120472200Y-159004000D03*
X120472200Y-156464000D03*
X120472200Y-153924000D03*
X120472200Y-151384000D03*
X120472200Y-148844000D03*
X120472200Y-146304000D03*
X120472200Y-143764000D03*
X120472200Y-141224000D03*
X120472200Y-138684000D03*
X120472200Y-136144000D03*
X120472200Y-133604000D03*
X120472200Y-131064000D03*
X120472200Y-128524000D03*
X120472200Y-125984000D03*
X120472200Y-123444000D03*
X120472200Y-120904000D03*
X120472200Y-118364000D03*
X120472200Y-115824000D03*
X120472200Y-113284000D03*
X120472200Y-110744000D03*
X120472200Y-108204000D03*
X120472200Y-105664000D03*
X120472200Y-103124000D03*
X120472200Y-100584000D03*
X120472200Y-98044000D03*
X120472200Y-95504000D03*
X120472200Y-92964000D03*
X120472200Y-90424000D03*
X120472200Y-87884000D03*
D12*
X120472200Y-85344000D03*
D11*
X117932200Y-166624000D03*
X117932200Y-164084000D03*
X117932200Y-161544000D03*
X117932200Y-159004000D03*
X117932200Y-156464000D03*
X117932200Y-153924000D03*
X117932200Y-151384000D03*
X117932200Y-148844000D03*
X117932200Y-146304000D03*
X117932200Y-143764000D03*
X117932200Y-141224000D03*
X117932200Y-138684000D03*
X117932200Y-136144000D03*
X117932200Y-133604000D03*
X117932200Y-131064000D03*
X117932200Y-128524000D03*
X117932200Y-125984000D03*
X117932200Y-123444000D03*
X117932200Y-120904000D03*
X117932200Y-118364000D03*
X117932200Y-115824000D03*
X117932200Y-113284000D03*
X117932200Y-110744000D03*
X117932200Y-108204000D03*
X117932200Y-105664000D03*
X117932200Y-103124000D03*
X117932200Y-100584000D03*
X117932200Y-98044000D03*
X117932200Y-95504000D03*
X117932200Y-92964000D03*
X117932200Y-90424000D03*
X117932200Y-87884000D03*
D12*
X117932200Y-85344000D03*
X115392200Y-85344000D03*
D11*
X115392200Y-87884000D03*
X115392200Y-90424000D03*
X115392200Y-92964000D03*
X115392200Y-95504000D03*
X115392200Y-98044000D03*
X115392200Y-100584000D03*
X115392200Y-103124000D03*
X115392200Y-105664000D03*
X115392200Y-108204000D03*
X115392200Y-110744000D03*
X115392200Y-113284000D03*
X115392200Y-115824000D03*
X115392200Y-118364000D03*
X115392200Y-120904000D03*
X115392200Y-123444000D03*
X115392200Y-125984000D03*
X115392200Y-128524000D03*
X115392200Y-131064000D03*
X115392200Y-133604000D03*
X115392200Y-136144000D03*
X115392200Y-138684000D03*
X115392200Y-141224000D03*
X115392200Y-143764000D03*
X115392200Y-146304000D03*
X115392200Y-148844000D03*
X115392200Y-151384000D03*
X115392200Y-153924000D03*
X115392200Y-156464000D03*
X115392200Y-159004000D03*
X115392200Y-161544000D03*
X115392200Y-164084000D03*
X115392200Y-166624000D03*
D12*
X203200000Y-79248000D03*
D11*
X200660000Y-79248000D03*
D12*
X198120000Y-79248000D03*
D13*
X154990800Y-98171000D03*
X152450800Y-98171000D03*
X149910800Y-98171000D03*
X147370800Y-98171000D03*
X157530800Y-98171000D03*
X160070800Y-98171000D03*
X162610800Y-98171000D03*
X144830800Y-98171000D03*
X142290800Y-98171000D03*
X139750800Y-98171000D03*
X137210800Y-98171000D03*
X137210800Y-113411000D03*
X139750800Y-113411000D03*
X142290800Y-113411000D03*
X144830800Y-113411000D03*
X147370800Y-113411000D03*
X149910800Y-113411000D03*
X152450800Y-113411000D03*
X154990800Y-113411000D03*
X165150800Y-98171000D03*
X167690800Y-98171000D03*
X170230800Y-98171000D03*
X172770800Y-98171000D03*
X175310800Y-98171000D03*
X177850800Y-98171000D03*
X180390800Y-98171000D03*
X182930800Y-98171000D03*
X185470800Y-98171000D03*
X188010800Y-98171000D03*
X190550800Y-98171000D03*
X193090800Y-98171000D03*
D14*
X195630800Y-98171000D03*
D13*
X157530800Y-113411000D03*
X160070800Y-113411000D03*
X162610800Y-113411000D03*
X165150800Y-113411000D03*
X167690800Y-113411000D03*
X170230800Y-113411000D03*
X172770800Y-113411000D03*
X175310800Y-113411000D03*
X177850800Y-113411000D03*
X180390800Y-113411000D03*
X182930800Y-113411000D03*
X185470800Y-113411000D03*
X188010800Y-113411000D03*
X190550800Y-113411000D03*
X193090800Y-113411000D03*
X195630800Y-113411000D03*
X185470800Y-110871000D03*
X182930800Y-110871000D03*
X157530800Y-105791000D03*
X154990800Y-105791000D03*
X152450800Y-105791000D03*
X147370800Y-105791000D03*
X144830800Y-105791000D03*
X142290800Y-105791000D03*
X139750800Y-105791000D03*
X137210800Y-105791000D03*
X137210800Y-108331000D03*
X139750800Y-108331000D03*
X142290800Y-108331000D03*
X144830800Y-108331000D03*
X147370800Y-108331000D03*
X152450800Y-108331000D03*
X154990800Y-108331000D03*
X157530800Y-108331000D03*
X172770800Y-108331000D03*
X175310800Y-108331000D03*
X177850800Y-108331000D03*
X180390800Y-108331000D03*
X186740800Y-101171000D03*
X184200800Y-101171000D03*
X181660800Y-101171000D03*
X179120800Y-101171000D03*
D12*
X160020000Y-135382000D03*
D11*
X160020000Y-137922000D03*
D12*
X157480000Y-135382000D03*
D11*
X157480000Y-137922000D03*
D12*
X154940000Y-135382000D03*
D11*
X154940000Y-137922000D03*
D15*
X209054700Y-122443600D03*
D16*
X209054700Y-125943600D03*
D15*
X209054700Y-129443600D03*
D16*
X209054700Y-132943600D03*
D11*
X140970000Y-78232000D03*
X140970000Y-80772000D03*
X140970000Y-83312000D03*
X140970000Y-85852000D03*
X140970000Y-88392000D03*
D13*
X138390000Y-165100000D03*
D14*
X135890000Y-165100000D03*
X165252400Y-128524000D03*
D17*
X188112400Y-120904000D03*
X167792400Y-128524000D03*
X185572400Y-120904000D03*
X170302400Y-128524000D03*
X183032400Y-120904000D03*
X172902400Y-128524000D03*
X180492400Y-120904000D03*
X175412400Y-128524000D03*
X177982400Y-120904000D03*
X177952400Y-128524000D03*
X175382400Y-120904000D03*
X180492400Y-128524000D03*
X172912400Y-120904000D03*
X183032400Y-128524000D03*
X170292400Y-120904000D03*
X185572400Y-128524000D03*
X167792400Y-120904000D03*
X188112400Y-128524000D03*
X165252400Y-120904000D03*
D14*
X174625000Y-165100000D03*
D13*
X177125000Y-165100000D03*
D14*
X154940000Y-165100000D03*
D13*
X157440000Y-165100000D03*
D14*
X193040000Y-165100000D03*
D13*
X195540000Y-165100000D03*
D14*
X200101200Y-120065800D03*
D13*
X200101200Y-117565800D03*
D18*
X199237600Y-125958600D03*
D19*
X196697600Y-125958600D03*
D18*
X194157600Y-125958600D03*
D11*
X148590000Y-78232000D03*
X148590000Y-80772000D03*
X148590000Y-83312000D03*
X148590000Y-85852000D03*
X148590000Y-88392000D03*
X151130000Y-78232000D03*
X151130000Y-80772000D03*
X151130000Y-83312000D03*
X151130000Y-85852000D03*
X151130000Y-88392000D03*
X153670000Y-78232000D03*
X153670000Y-80772000D03*
X153670000Y-83312000D03*
X153670000Y-85852000D03*
X153670000Y-88392000D03*
X156210000Y-78232000D03*
X156210000Y-80772000D03*
X156210000Y-83312000D03*
X156210000Y-85852000D03*
X156210000Y-88392000D03*
X158750000Y-78232000D03*
X158750000Y-80772000D03*
X158750000Y-83312000D03*
X158750000Y-85852000D03*
X158750000Y-88392000D03*
X161290000Y-78232000D03*
X161290000Y-80772000D03*
X161290000Y-83312000D03*
X161290000Y-85852000D03*
X161290000Y-88392000D03*
X163830000Y-78232000D03*
X163830000Y-80772000D03*
X163830000Y-83312000D03*
X163830000Y-85852000D03*
X163830000Y-88392000D03*
X146050000Y-78232000D03*
X146050000Y-80772000D03*
X146050000Y-83312000D03*
X146050000Y-85852000D03*
X146050000Y-88392000D03*
X143510000Y-78232000D03*
X143510000Y-80772000D03*
X143510000Y-83312000D03*
X143510000Y-85852000D03*
X143510000Y-88392000D03*
D16*
X209071557Y-166370000D03*
D15*
X209071557Y-162870000D03*
D16*
X209071557Y-159370000D03*
D15*
X209071557Y-155870000D03*
D20*
X130683000Y-171323000D03*
X134183000Y-171323000D03*
X137683000Y-171323000D03*
X141183000Y-171323000D03*
X193040000Y-171323000D03*
X196540000Y-171323000D03*
X200040000Y-171323000D03*
X203540000Y-171323000D03*
X150698200Y-171323000D03*
X154198200Y-171323000D03*
X157698200Y-171323000D03*
X161198200Y-171323000D03*
D16*
X208915000Y-116230400D03*
D15*
X208915000Y-112730400D03*
D16*
X208915000Y-109230400D03*
D15*
X208915000Y-105730400D03*
D20*
X171881800Y-171323000D03*
X175381800Y-171323000D03*
X178881800Y-171323000D03*
X182381800Y-171323000D03*
D12*
X140970000Y-135382000D03*
D11*
X140970000Y-137922000D03*
D12*
X138430000Y-135382000D03*
D11*
X138430000Y-137922000D03*
D12*
X135890000Y-135382000D03*
D11*
X135890000Y-137922000D03*
D21*
X131953000Y-146812000D03*
D22*
X144653000Y-146735800D03*
D21*
X131953000Y-149352000D03*
X131953000Y-144272000D03*
X131953000Y-141732000D03*
D22*
X144653000Y-141732000D03*
X144653000Y-144272000D03*
X144653000Y-149428200D03*
X144653000Y-151892000D03*
X144653000Y-154432000D03*
X144653000Y-156972000D03*
X144653000Y-159512000D03*
D21*
X131953000Y-151892000D03*
X131953000Y-154432000D03*
X131953000Y-156972000D03*
D23*
X131953000Y-159639000D03*
D21*
X151003000Y-146812000D03*
D22*
X163703000Y-146812000D03*
D21*
X151003000Y-149352000D03*
X151003000Y-144272000D03*
X151003000Y-141732000D03*
D22*
X163703000Y-141732000D03*
X163703000Y-144272000D03*
X163703000Y-149352000D03*
X163703000Y-151892000D03*
X163703000Y-154432000D03*
X163703000Y-156972000D03*
X163703000Y-159512000D03*
D21*
X151003000Y-151892000D03*
X151003000Y-154432000D03*
X151003000Y-156972000D03*
D23*
X151003000Y-159639000D03*
D24*
X170180000Y-146812000D03*
D22*
X182753000Y-146812000D03*
D24*
X170180000Y-149352000D03*
D21*
X170053000Y-144272000D03*
X170053000Y-141732000D03*
D22*
X182753000Y-141732000D03*
X182753000Y-144272000D03*
X182753000Y-149352000D03*
X182753000Y-151892000D03*
X182753000Y-154432000D03*
X182753000Y-156972000D03*
X182753000Y-159512000D03*
D24*
X170180000Y-151892000D03*
X170180000Y-154432000D03*
X170180000Y-156972000D03*
D23*
X170180000Y-159512000D03*
D12*
X194310000Y-79248000D03*
D11*
X191770000Y-79248000D03*
D12*
X189230000Y-79248000D03*
X173990000Y-77512000D03*
D11*
X173990000Y-80222000D03*
D12*
X173990000Y-82677000D03*
X179070000Y-135382000D03*
D11*
X179070000Y-137922000D03*
D12*
X176530000Y-135382000D03*
D11*
X176530000Y-137922000D03*
D12*
X173990000Y-135382000D03*
D11*
X173990000Y-137922000D03*
D24*
X189484000Y-146812000D03*
D21*
X201803000Y-146812000D03*
D24*
X189484000Y-149352000D03*
D21*
X189357000Y-144272000D03*
X189357000Y-141732000D03*
X201803000Y-141732000D03*
X201803000Y-144272000D03*
X201803000Y-149352000D03*
X201803000Y-151892000D03*
X201803000Y-154432000D03*
X201803000Y-156972000D03*
X201803000Y-159512000D03*
D24*
X189484000Y-151892000D03*
X189484000Y-154432000D03*
X189484000Y-156972000D03*
D25*
X189484000Y-159512000D03*
D16*
X209092800Y-149656800D03*
D15*
X209092800Y-146156800D03*
D16*
X209092800Y-142656800D03*
D15*
X209092800Y-139156800D03*
D17*
X135585200Y-120904000D03*
X158445200Y-128524000D03*
X138125200Y-120904000D03*
X155905200Y-128524000D03*
X140665200Y-120904000D03*
X153365200Y-128524000D03*
X143205200Y-120904000D03*
X150825200Y-128524000D03*
X145745200Y-120904000D03*
X148285200Y-128524000D03*
X148285200Y-120904000D03*
X145745200Y-128524000D03*
X150825200Y-120904000D03*
X143205200Y-128524000D03*
X153365200Y-120904000D03*
X140665200Y-128524000D03*
X155905200Y-120904000D03*
X138125200Y-128524000D03*
X158445200Y-120904000D03*
D14*
X135585200Y-128524000D03*
D11*
X193040000Y-137922000D03*
X193040000Y-135382000D03*
X195580000Y-137922000D03*
X195580000Y-135382000D03*
X198120000Y-137922000D03*
D12*
X198120000Y-135382000D03*
X148297900Y-131064000D03*
D11*
X145757900Y-131064000D03*
X148285200Y-118402100D03*
D12*
X150825200Y-118402100D03*
X177952400Y-131064000D03*
D11*
X175412400Y-131064000D03*
X177952400Y-118364000D03*
D12*
X180492400Y-118364000D03*
D26*
X143205200Y-131064000D03*
D27*
X135585200Y-131064000D03*
X158445200Y-131064000D03*
D26*
X150825200Y-131064000D03*
X144526000Y-118402100D03*
D27*
X136906000Y-118402100D03*
X162300920Y-118402100D03*
D26*
X154680920Y-118402100D03*
X172872400Y-131064000D03*
D27*
X165252400Y-131064000D03*
X188112400Y-131064000D03*
D26*
X180492400Y-131064000D03*
X175412400Y-118364000D03*
D27*
X167792400Y-118364000D03*
X190652400Y-118364000D03*
D26*
X183032400Y-118364000D03*
D12*
X126428500Y-172224700D03*
X126428500Y-169684700D03*
X123012200Y-85344000D03*
D11*
X123012200Y-87884000D03*
X123012200Y-90424000D03*
X123012200Y-92964000D03*
X123012200Y-95504000D03*
X123012200Y-98044000D03*
X123012200Y-100584000D03*
X123012200Y-103124000D03*
X123012200Y-105664000D03*
X123012200Y-108204000D03*
X123012200Y-110744000D03*
X123012200Y-113284000D03*
X123012200Y-115824000D03*
X123012200Y-118364000D03*
X123012200Y-120904000D03*
X123012200Y-123444000D03*
X123012200Y-125984000D03*
X123012200Y-128524000D03*
X123012200Y-131064000D03*
X123012200Y-133604000D03*
X123012200Y-136144000D03*
X123012200Y-138684000D03*
X123012200Y-141224000D03*
X123012200Y-143764000D03*
X123012200Y-146304000D03*
X123012200Y-148844000D03*
X123012200Y-151384000D03*
X123012200Y-153924000D03*
X123012200Y-156464000D03*
X123012200Y-159004000D03*
X123012200Y-161544000D03*
X123012200Y-164084000D03*
X123012200Y-166624000D03*
D12*
X130810000Y-77597000D03*
D11*
X130810000Y-80137000D03*
X130810000Y-82677000D03*
X130810000Y-85217000D03*
D12*
X128270000Y-77597000D03*
D11*
X128270000Y-80137000D03*
X128270000Y-82677000D03*
X128270000Y-85217000D03*
D12*
X177800000Y-80010000D03*
D11*
X177800000Y-82550000D03*
X177800000Y-85090000D03*
X177800000Y-87630000D03*
X177800000Y-90170000D03*
X177800000Y-92710000D03*
X204978000Y-86360000D03*
X207518000Y-86360000D03*
X210058000Y-86360000D03*
D12*
X212598000Y-86360000D03*
X212598000Y-88900000D03*
D11*
X210058000Y-88900000D03*
X207518000Y-88900000D03*
X204978000Y-88900000D03*
X182880000Y-92710000D03*
X182880000Y-90170000D03*
X182880000Y-87630000D03*
X182880000Y-85090000D03*
X182880000Y-82550000D03*
D12*
X182880000Y-80010000D03*
D11*
X185420000Y-92710000D03*
X185420000Y-90170000D03*
X185420000Y-87630000D03*
X185420000Y-85090000D03*
X185420000Y-82550000D03*
D12*
X185420000Y-80010000D03*
X180340000Y-80010000D03*
D11*
X180340000Y-82550000D03*
X180340000Y-85090000D03*
X180340000Y-87630000D03*
X180340000Y-90170000D03*
X180340000Y-92710000D03*
X204978000Y-93980000D03*
X207518000Y-93980000D03*
X210058000Y-93980000D03*
D12*
X212598000Y-93980000D03*
D11*
X204978000Y-91440000D03*
X207518000Y-91440000D03*
X210058000Y-91440000D03*
D12*
X212598000Y-91440000D03*
X212598000Y-96520000D03*
D11*
X210058000Y-96520000D03*
X207518000Y-96520000D03*
X204978000Y-96520000D03*
X204978000Y-99060000D03*
X207518000Y-99060000D03*
X210058000Y-99060000D03*
D12*
X212598000Y-99060000D03*
D28*
X198780400Y-83820000D03*
D29*
X198780400Y-86360000D03*
X198780400Y-88900000D03*
X198780400Y-91440000D03*
X191643000Y-91440000D03*
X191643000Y-88900000D03*
X191643000Y-86360000D03*
D28*
X191643000Y-83820000D03*
D11*
X167640000Y-88900000D03*
X170180000Y-88900000D03*
X167640000Y-86360000D03*
X170180000Y-86360000D03*
X167640000Y-83820000D03*
X170180000Y-83820000D03*
X167640000Y-81280000D03*
X170180000Y-81280000D03*
X167640000Y-78740000D03*
D12*
X170180000Y-78740000D03*
D11*
X134620000Y-88900000D03*
X137160000Y-88900000D03*
X134620000Y-86360000D03*
X137160000Y-86360000D03*
X134620000Y-83820000D03*
X137160000Y-83820000D03*
X134620000Y-81280000D03*
X137160000Y-81280000D03*
X134620000Y-78740000D03*
D12*
X137160000Y-78740000D03*
M02*
