G04 #@! TF.GenerationSoftware,KiCad,Pcbnew,(5.1.2)-1*
G04 #@! TF.CreationDate,2019-07-20T16:27:37-07:00*
G04 #@! TF.ProjectId,4Rose_t35_002a,34526f73-655f-4743-9335-5f303032612e,rev?*
G04 #@! TF.SameCoordinates,Original*
G04 #@! TF.FileFunction,Legend,Bot*
G04 #@! TF.FilePolarity,Positive*
%FSLAX46Y46*%
G04 Gerber Fmt 4.6, Leading zero omitted, Abs format (unit mm)*
G04 Created by KiCad (PCBNEW (5.1.2)-1) date 2019-07-20 16:27:37*
%MOMM*%
%LPD*%
G04 APERTURE LIST*
%ADD10C,0.150000*%
%ADD11C,0.190500*%
%ADD12C,0.101600*%
G04 APERTURE END LIST*
D10*
X133413500Y-127355600D02*
X133438900Y-125679200D01*
X158965900Y-127368300D02*
X133413500Y-127355600D01*
X158978600Y-122085100D02*
X158965900Y-127368300D01*
X133451600Y-122059700D02*
X158978600Y-122085100D01*
X133451600Y-123710700D02*
X133451600Y-122059700D01*
X133438896Y-123710460D02*
G75*
G02X133426201Y-125717299I12704J-1003540D01*
G01*
D11*
X200088500Y-121043700D02*
X200088500Y-122237500D01*
X199453500Y-121678700D02*
X200672700Y-121678700D01*
D12*
X204190678Y-118859378D02*
G75*
G03X204190678Y-118859378I-4114878J0D01*
G01*
X141060233Y-165162167D02*
G75*
G03X141060233Y-165162167I-4052633J0D01*
G01*
X160238701Y-165112700D02*
G75*
G03X160238701Y-165112700I-4003301J0D01*
G01*
X179857941Y-164998400D02*
G75*
G03X179857941Y-164998400I-4026441J0D01*
G01*
X198251735Y-165044466D02*
G75*
G03X198251735Y-165044466I-4005235J0D01*
G01*
X195605400Y-154533600D02*
X195605400Y-154508200D01*
D11*
X190817500Y-165100000D02*
X192036700Y-165100000D01*
X191439800Y-164477700D02*
X191439800Y-165671500D01*
X172402500Y-165112700D02*
X173672500Y-165112700D01*
X173037500Y-164503100D02*
X173037500Y-165722300D01*
X152679400Y-165100000D02*
X153974800Y-165100000D01*
X153339800Y-164490400D02*
X153339800Y-165709600D01*
X134950200Y-165100000D02*
X133680200Y-165100000D01*
X134289800Y-164465000D02*
X134289800Y-165735000D01*
D10*
X163918900Y-125707140D02*
G75*
G03X164886640Y-124708920I-15240J982980D01*
G01*
X164886640Y-124686060D02*
G75*
G03X163918900Y-123703080I-975360J7620D01*
G01*
X163901120Y-125763020D02*
X163921440Y-127408940D01*
X163921440Y-127408940D02*
X189423040Y-127408940D01*
X189423040Y-127408940D02*
X189423040Y-122064780D01*
X189423040Y-122064780D02*
X163934140Y-122049540D01*
X163934140Y-122049540D02*
X163911280Y-123710700D01*
M02*
