M48
;DRILL file {KiCad 4.0.7} date 10/08/18 18:30:58
;FORMAT={3:3/ absolute / metric / suppress leading zeros}
FMAT,2
METRIC,TZ
T1C0.400
T2C0.700
T3C0.800
T4C1.000
T5C1.100
T6C1.200
T7C3.700
%
G90
G05
M71
T1
X84963Y-84125
X85115Y-64237
X85369Y-67894
X85928Y-89510
X87884Y-83033
X88875Y-88722
X89306Y-83033
X90119Y-78816
X90119Y-101168
X90729Y-83007
X95021Y-75565
X95031Y-76479
X95031Y-77467
X95225Y-58750
X95301Y-68834
X95377Y-70891
X95428Y-71806
X96342Y-58750
X97450Y-58761
X98726Y-58779
X99974Y-58750
X101676Y-58750
X102133Y-98196
X102768Y-58750
X102794Y-97536
X103275Y-70114
X103556Y-96749
X103579Y-89426
X103734Y-58750
X103759Y-91796
X103759Y-95733
X103780Y-92656
X103783Y-90991
X103810Y-90192
X104843Y-58739
X105283Y-98933
X105435Y-69875
X106045Y-58750
X107442Y-90881
X108179Y-72847
X109550Y-91389
X110566Y-105156
X111531Y-83388
X112207Y-90973
X113208Y-105156
X114071Y-82956
X114903Y-70463
X115443Y-78943
X115621Y-69758
X115646Y-90907
X115900Y-105105
X116103Y-70993
X117058Y-92694
X117221Y-98730
X117627Y-89560
X117805Y-73584
X118135Y-105105
X119253Y-65507
X120167Y-89586
X120879Y-71018
X120904Y-73177
X121514Y-91008
X121666Y-65354
X122580Y-105146
X123292Y-71298
X123292Y-73279
X124237Y-65340
X124460Y-71374
X124536Y-105146
X125501Y-94539
X125608Y-90684
X127610Y-71679
X127762Y-105146
X128041Y-65380
X128680Y-90234
X129669Y-104683
X130032Y-73217
X130171Y-105933
X130378Y-98374
X131003Y-71476
X131267Y-80035
X131337Y-89784
X131724Y-70764
X131851Y-81026
X132766Y-75362
X133223Y-89459
X133329Y-105456
X133858Y-75768
X134579Y-72945
X136559Y-105456
X136631Y-95920
X136677Y-99847
X139091Y-105456
T2
X94996Y-94488
X94996Y-102108
X97536Y-94488
X97536Y-102108
X100076Y-94488
X100076Y-102108
X109220Y-63500
X109220Y-66040
X109220Y-81280
X109220Y-83820
X116840Y-63500
X116840Y-66040
X116840Y-81280
X116840Y-83820
X119380Y-78740
X119380Y-81280
X119380Y-83820
X127000Y-78740
X127000Y-81280
X127000Y-83820
T3
X61214Y-105969
X61214Y-108469
X64364Y-57618
X104140Y-68580
X104140Y-76200
X106680Y-68580
X106680Y-76200
X109220Y-68580
X109220Y-76200
X111760Y-68580
X111760Y-76200
X114300Y-68580
X114300Y-76200
X116840Y-68580
X116840Y-76200
X119380Y-68580
X119380Y-76200
X121920Y-68580
X121920Y-76200
X124460Y-68580
X124460Y-76200
X127000Y-68580
X127000Y-76200
X134558Y-80112
X137058Y-80112
T4
X59944Y-46482
X59944Y-49022
X62052Y-64414
X62052Y-64414
X62052Y-66954
X62052Y-69494
X62052Y-72034
X62052Y-74574
X62052Y-77114
X62052Y-86360
X62052Y-86360
X62052Y-88900
X62052Y-91440
X62052Y-93980
X62052Y-96520
X62052Y-99060
X62484Y-46482
X62484Y-49022
X64592Y-64414
X64592Y-66954
X64592Y-69494
X64592Y-72034
X64592Y-74574
X64592Y-77114
X64592Y-86360
X64592Y-88900
X64592Y-91440
X64592Y-93980
X64592Y-96520
X64592Y-99060
X65024Y-46482
X65024Y-49022
X66675Y-105410
X66675Y-107950
X66675Y-110490
X66675Y-113030
X68834Y-61874
X68834Y-64414
X68834Y-66954
X68834Y-69494
X68834Y-72034
X68834Y-74574
X68834Y-77114
X68834Y-79654
X68834Y-83820
X68834Y-86360
X68834Y-88900
X68834Y-91440
X68834Y-93980
X68834Y-96520
X68834Y-99060
X68834Y-101600
X69215Y-105410
X69215Y-107950
X69215Y-110490
X69215Y-113030
X71755Y-105410
X71755Y-107950
X71755Y-110490
X71755Y-113030
X74295Y-105410
X74295Y-107950
X74295Y-110490
X74295Y-113030
X74930Y-50038
X74930Y-52578
X76835Y-105410
X76835Y-107950
X76835Y-110490
X76835Y-113030
X77470Y-50038
X77470Y-52578
X79375Y-105410
X79375Y-107950
X79375Y-110490
X79375Y-113030
X80010Y-50038
X80010Y-52578
X81534Y-61874
X81534Y-64414
X81534Y-66954
X81534Y-69494
X81534Y-72034
X81534Y-74574
X81534Y-77114
X81534Y-79654
X81534Y-83820
X81534Y-86360
X81534Y-88900
X81534Y-91440
X81534Y-93980
X81534Y-96520
X81534Y-99060
X81534Y-101600
X81915Y-105410
X81915Y-107950
X81915Y-110490
X81915Y-113030
X82550Y-50038
X82550Y-52578
X84455Y-105410
X84455Y-107950
X84455Y-110490
X84455Y-113030
X85090Y-50038
X85090Y-52578
X85344Y-72034
X85344Y-74574
X85344Y-77114
X85344Y-93980
X85344Y-96520
X85344Y-99060
X86995Y-105410
X86995Y-107950
X86995Y-110490
X86995Y-113030
X87630Y-50038
X87630Y-52578
X87884Y-72034
X87884Y-74574
X87884Y-77114
X87884Y-93980
X87884Y-96520
X87884Y-99060
X89535Y-105410
X89535Y-107950
X89535Y-110490
X89535Y-113030
X91262Y-64414
X91262Y-66954
X91262Y-69494
X91262Y-72034
X91262Y-74574
X91262Y-86360
X91262Y-88900
X91262Y-91440
X91262Y-93980
X91262Y-96520
X91440Y-50038
X91440Y-52578
X91440Y-55118
X92075Y-105410
X92075Y-107950
X92075Y-110490
X92075Y-113030
X93980Y-50038
X93980Y-52578
X93980Y-55118
X94615Y-105410
X94615Y-107950
X94615Y-110490
X94615Y-113030
X96520Y-50038
X96520Y-52578
X96520Y-55118
X97155Y-105410
X97155Y-107950
X97155Y-110490
X97155Y-113030
X99060Y-50038
X99060Y-52578
X99060Y-55118
X99695Y-105410
X99695Y-107950
X99695Y-110490
X99695Y-113030
X101600Y-50038
X101600Y-52578
X101600Y-55118
X103505Y-105410
X103505Y-107950
X103505Y-110490
X103505Y-113030
X104140Y-50038
X104140Y-52578
X104140Y-55118
X104140Y-66040
X104140Y-78740
X106045Y-105410
X106045Y-107950
X106045Y-110490
X106045Y-113030
X106680Y-50038
X106680Y-52578
X106680Y-55118
X106680Y-66040
X106680Y-78740
X109220Y-50038
X109220Y-52578
X109220Y-55118
X110236Y-107950
X110236Y-110490
X110236Y-113030
X111760Y-50038
X111760Y-52578
X111760Y-55118
X112776Y-107950
X112776Y-110490
X112776Y-113030
X114300Y-50038
X114300Y-52578
X114300Y-55118
X115316Y-107950
X115316Y-110490
X115316Y-113030
X117856Y-107950
X117856Y-110490
X117856Y-113030
X119380Y-50038
X119380Y-52578
X119380Y-55118
X119380Y-57658
X119380Y-60198
X119380Y-62738
X120396Y-107950
X120396Y-110490
X120396Y-113030
X122936Y-107950
X122936Y-110490
X122936Y-113030
X124460Y-50038
X124460Y-52578
X124460Y-55118
X124460Y-57658
X124460Y-60198
X124460Y-62738
X125476Y-107950
X125476Y-110490
X125476Y-113030
X128016Y-107950
X128016Y-110490
X128016Y-113030
X129540Y-50038
X129540Y-52578
X129540Y-55118
X129540Y-57658
X129540Y-60198
X129540Y-62738
X132080Y-107950
X132080Y-110490
X132080Y-113030
X133858Y-50038
X133858Y-52578
X133858Y-55118
X133858Y-57658
X133858Y-62738
X133858Y-65278
X133858Y-67818
X134620Y-107950
X134620Y-110490
X134620Y-113030
X136398Y-50038
X136398Y-52578
X136398Y-55118
X136398Y-57658
X136398Y-62738
X136398Y-65278
X136398Y-67818
X137160Y-107950
X137160Y-110490
X137160Y-113030
X139700Y-107950
X139700Y-110490
X139700Y-113030
T5
X104902Y-86360
X104902Y-101600
X107442Y-86360
X107442Y-93980
X107442Y-96520
X107442Y-101600
X109982Y-86360
X109982Y-93980
X109982Y-96520
X109982Y-101600
X112522Y-86360
X112522Y-93980
X112522Y-96520
X112522Y-101600
X115062Y-86360
X115062Y-93980
X115062Y-96520
X115062Y-101600
X117602Y-86360
X117602Y-93980
X117602Y-96520
X117602Y-101600
X120142Y-86360
X120142Y-93980
X120142Y-96520
X120142Y-101600
X122682Y-86360
X122682Y-93980
X122682Y-96520
X122682Y-101600
X125222Y-86360
X125222Y-99060
X125222Y-101600
X127762Y-86360
X127762Y-99060
X127762Y-101600
X130302Y-86360
X130302Y-101600
X132842Y-86360
X132842Y-101600
X135382Y-86360
X135382Y-101600
X137922Y-86360
X137922Y-101600
T6
X54712Y-55880
X54712Y-59380
X54712Y-62880
X54712Y-66380
X54712Y-73660
X54712Y-77160
X54712Y-80660
X54712Y-84160
X54712Y-93574
X54712Y-97074
X54712Y-100574
X54712Y-104074
X64364Y-55118
X143332Y-80264
X143332Y-82804
X143332Y-85344
X144083Y-72695
X145161Y-93894
X145161Y-97394
X145161Y-100894
X145161Y-104394
X145170Y-55286
X145170Y-58786
X145170Y-62286
X145170Y-65786
X146583Y-72695
T7
X54000Y-49000
X54000Y-111000
X146000Y-49000
X146000Y-111000
T0
M30
