G04 #@! TF.FileFunction,Legend,Bot*
%FSLAX46Y46*%
G04 Gerber Fmt 4.6, Leading zero omitted, Abs format (unit mm)*
G04 Created by KiCad (PCBNEW 4.0.7) date 07/15/18 15:00:33*
%MOMM*%
%LPD*%
G01*
G04 APERTURE LIST*
%ADD10C,2.000000*%
%ADD11C,0.101600*%
G04 APERTURE END LIST*
D10*
D11*
X160705800Y-94919800D02*
X160680400Y-76352400D01*
X165658800Y-94996000D02*
X160705800Y-94919800D01*
X165658800Y-96139000D02*
X165658800Y-94996000D01*
X173482000Y-96164400D02*
X165658800Y-96139000D01*
X173507400Y-84455000D02*
X173482000Y-96164400D01*
X175818800Y-84429600D02*
X173507400Y-84455000D01*
X175844200Y-76250800D02*
X175818800Y-84429600D01*
X174675800Y-92024200D02*
X183946800Y-91998800D01*
X174650400Y-105765600D02*
X174675800Y-92024200D01*
X171754800Y-105791000D02*
X183946800Y-105765600D01*
X171831000Y-118643400D02*
X171754800Y-105791000D01*
X167233600Y-118618000D02*
X183946800Y-118643400D01*
X167309800Y-132461000D02*
X167233600Y-118618000D01*
X183997600Y-132486400D02*
X167309800Y-132461000D01*
X144246600Y-98628200D02*
X144221200Y-98704400D01*
X144221200Y-113157000D02*
X144246600Y-98628200D01*
X137693400Y-113157000D02*
X144221200Y-113157000D01*
X137896600Y-98653600D02*
X137693400Y-113157000D01*
X144246600Y-98602800D02*
X137896600Y-98653600D01*
X136956800Y-97815400D02*
X137134600Y-76352400D01*
X145338800Y-97790000D02*
X136956800Y-97815400D01*
X145313400Y-86537800D02*
X145338800Y-97790000D01*
X146278600Y-86537800D02*
X145313400Y-86537800D01*
X146227800Y-76276200D02*
X146278600Y-86537800D01*
X136906000Y-88747600D02*
X136880600Y-76301600D01*
X121716800Y-88696800D02*
X136906000Y-88747600D01*
X121716800Y-76276200D02*
X121716800Y-88696800D01*
M02*
