M48
;DRILL file {KiCad 4.0.7} date 08/25/18 23:14:21
;FORMAT={-:-/ absolute / inch / decimal}
FMAT,2
INCH,TZ
T1C0.016
T2C0.028
T3C0.031
T4C0.039
T5C0.043
T6C0.047
T7C0.146
%
G90
G05
M72
T1
X4.688Y-4.705
X4.888Y-3.145
X4.92Y-3.145
X4.955Y-3.145
X4.983Y-4.743
X5.077Y-3.5814
X5.081Y-4.4103
X5.081Y-4.4418
X5.0811Y-3.534
X5.0826Y-4.3765
X5.0827Y-3.7163
X5.083Y-3.6673
X5.083Y-4.309
X5.083Y-4.477
X5.083Y-4.345
X5.0832Y-4.2689
X5.0836Y-3.6337
X5.0838Y-3.9965
X5.084Y-4.523
X5.084Y-5.166
X5.0846Y-4.0457
X5.085Y-4.13
X5.085Y-4.08
X5.085Y-4.1824
X5.085Y-4.217
X5.085Y-3.7481
X5.086Y-4.64
X5.0872Y-5.0179
X5.122Y-4.64
X5.157Y-4.641
X5.186Y-6.065
X5.196Y-4.64
X5.21Y-4.2726
X5.21Y-4.08
X5.21Y-3.713
X5.21Y-3.958
X5.21Y-3.999
X5.21Y-4.042
X5.21Y-4.125
X5.21Y-4.16
X5.21Y-4.198
X5.21Y-4.235
X5.21Y-4.307
X5.2101Y-3.622
X5.2104Y-3.5905
X5.2322Y-3.4828
X5.237Y-4.64
X5.271Y-3.728
X5.274Y-4.64
X5.276Y-5.478
X5.3126Y-3.4896
X5.313Y-4.641
X5.34Y-3.744
X5.359Y-3.49
X5.381Y-4.068
X5.404Y-3.758
X5.4052Y-4.0911
X5.413Y-5.474
X5.4282Y-4.1173
X5.431Y-3.957
X5.4386Y-3.49
X5.455Y-4.138
X5.4552Y-3.9854
X5.465Y-4.957
X5.4706Y-4.5402
X5.4803Y-4.0044
X5.493Y-3.49
X5.4936Y-4.5643
X5.5041Y-4.0255
X5.507Y-4.926
X5.5077Y-4.4742
X5.563Y-4.2122
X5.7642Y-4.659
X5.778Y-5.384
X5.8196Y-4.9824
X5.854Y-4.25
X5.8935Y-4.6755
X5.917Y-4.472
X6.052Y-4.51
X6.059Y-6.051
X6.08Y-4.226
X6.11Y-5.465
X6.1334Y-4.4664
X6.177Y-4.446
X6.196Y-5.471
X6.382Y-3.637
X6.397Y-4.578
X6.451Y-4.575
X6.466Y-3.907
X6.4719Y-4.2009
X6.488Y-4.583
X6.5116Y-3.9236
X6.5122Y-4.1489
X6.521Y-3.659
X6.5459Y-4.9141
X6.6Y-5.409
X6.619Y-4.464
X6.643Y-4.9232
X6.6435Y-4.1039
X6.666Y-4.231
X6.696Y-3.833
X6.7036Y-4.4042
X6.714Y-4.949
X6.725Y-3.812
X6.73Y-4.068
X6.731Y-4.3887
X6.759Y-5.321
X6.7609Y-4.1414
X6.7609Y-4.2537
X6.7619Y-4.3822
X6.785Y-4.575
X6.8036Y-5.2244
X6.818Y-4.579
X6.831Y-5.384
X6.843Y-4.65
X6.8787Y-4.0644
X6.8906Y-4.4668
X6.91Y-4.068
X6.91Y-6.07
X6.952Y-5.472
X7.019Y-5.473
X7.029Y-4.6171
X7.075Y-4.487
X7.081Y-4.9569
X7.159Y-4.585
X7.1746Y-4.2104
X7.178Y-3.99
X7.2074Y-4.5831
X7.2389Y-4.583
X7.2391Y-3.6788
X7.2495Y-4.3871
X7.2776Y-4.2937
X7.289Y-3.9769
X7.3292Y-3.6631
X7.3451Y-4.4639
X7.354Y-4.602
X7.3582Y-4.4352
X7.3928Y-4.4329
X7.3957Y-4.4982
X7.413Y-3.984
X7.413Y-4.018
X7.414Y-4.636
X7.441Y-4.607
X7.446Y-4.154
X7.459Y-3.6008
X7.466Y-5.412
X7.503Y-4.948
X7.512Y-3.307
X7.517Y-4.055
X7.524Y-3.6008
X7.544Y-5.315
X7.5499Y-4.3972
X7.5906Y-3.5379
X7.594Y-4.106
X7.6032Y-4.002
X7.615Y-3.498
X7.623Y-5.232
X7.632Y-5.1864
X7.6352Y-4.6412
X7.66Y-4.119
X7.66Y-5.557
X7.661Y-4.661
X7.6663Y-3.9982
X7.679Y-3.491
X7.6852Y-4.6812
X7.691Y-4.988
X7.6921Y-3.9761
X7.7004Y-4.6204
X7.708Y-4.465
X7.7116Y-4.5673
X7.7205Y-3.4834
X7.735Y-4.126
X7.746Y-4.462
X7.757Y-5.557
X7.774Y-3.5642
X7.7877Y-3.4841
X7.823Y-3.5528
X7.828Y-6.043
X7.836Y-3.4858
X7.844Y-5.475
X7.884Y-3.983
X8.079Y-3.806
T2
X5.463Y-5.198
X5.508Y-4.712
X5.763Y-5.198
X5.808Y-4.712
X6.049Y-5.201
X6.154Y-4.713
X6.349Y-5.201
X6.454Y-4.713
X6.591Y-5.204
X6.689Y-4.713
X6.891Y-5.204
X6.989Y-4.713
X7.188Y-5.204
X7.291Y-4.713
X7.488Y-5.204
X7.591Y-4.713
T3
X5.029Y-5.9206
X5.029Y-6.019
X5.301Y-5.9216
X5.301Y-6.02
X5.452Y-4.814
X5.452Y-5.114
X5.552Y-4.814
X5.552Y-5.114
X5.652Y-4.814
X5.652Y-5.114
X5.752Y-4.814
X5.752Y-5.114
X5.852Y-4.814
X5.852Y-5.114
X5.952Y-4.814
X5.952Y-5.114
X6.052Y-4.814
X6.052Y-5.114
X6.152Y-4.814
X6.152Y-5.114
X6.164Y-5.9216
X6.164Y-6.02
X6.252Y-4.814
X6.252Y-5.114
X6.352Y-4.814
X6.352Y-5.114
X6.59Y-4.813
X6.59Y-5.113
X6.69Y-4.813
X6.69Y-5.113
X6.79Y-4.813
X6.79Y-5.113
X6.89Y-4.813
X6.89Y-5.113
X6.99Y-4.813
X6.99Y-5.113
X7.013Y-5.9216
X7.013Y-6.02
X7.09Y-4.813
X7.09Y-5.113
X7.19Y-4.813
X7.19Y-5.113
X7.29Y-4.813
X7.29Y-5.113
X7.39Y-4.813
X7.39Y-5.113
X7.49Y-4.813
X7.49Y-5.113
X7.529Y-5.9216
X7.529Y-6.02
X7.9016Y-4.58
X8.Y-4.58
X8.2Y-5.9216
X8.2Y-6.02
T4
X4.54Y-3.35
X4.54Y-3.45
X4.54Y-3.55
X4.54Y-3.65
X4.54Y-3.75
X4.54Y-3.85
X4.54Y-3.95
X4.54Y-4.05
X4.54Y-4.15
X4.54Y-4.25
X4.54Y-4.35
X4.54Y-4.45
X4.54Y-4.55
X4.54Y-4.65
X4.54Y-4.75
X4.54Y-4.85
X4.54Y-4.95
X4.54Y-5.05
X4.54Y-5.15
X4.54Y-5.25
X4.54Y-5.35
X4.54Y-5.45
X4.54Y-5.55
X4.54Y-5.65
X4.54Y-5.75
X4.54Y-5.85
X4.54Y-5.95
X4.54Y-6.05
X4.54Y-6.15
X4.64Y-3.35
X4.64Y-3.45
X4.64Y-3.55
X4.64Y-3.65
X4.64Y-3.75
X4.64Y-3.85
X4.64Y-3.95
X4.64Y-4.05
X4.64Y-4.15
X4.64Y-4.25
X4.64Y-4.35
X4.64Y-4.45
X4.64Y-4.55
X4.64Y-4.65
X4.64Y-4.75
X4.64Y-4.85
X4.64Y-4.95
X4.64Y-5.05
X4.64Y-5.15
X4.64Y-5.25
X4.64Y-5.35
X4.64Y-5.45
X4.64Y-5.55
X4.64Y-5.65
X4.64Y-5.75
X4.64Y-5.85
X4.64Y-5.95
X4.64Y-6.05
X4.64Y-6.15
X4.74Y-3.35
X4.74Y-3.45
X4.74Y-3.55
X4.74Y-3.65
X4.74Y-3.75
X4.74Y-3.85
X4.74Y-3.95
X4.74Y-4.05
X4.74Y-4.15
X4.74Y-4.25
X4.74Y-4.35
X4.74Y-4.45
X4.74Y-4.55
X4.74Y-4.65
X4.74Y-4.75
X4.74Y-4.85
X4.74Y-4.95
X4.74Y-5.05
X4.74Y-5.15
X4.74Y-5.25
X4.74Y-5.35
X4.74Y-5.45
X4.74Y-5.55
X4.74Y-5.65
X4.74Y-5.75
X4.74Y-5.85
X4.74Y-5.95
X4.74Y-6.05
X4.74Y-6.15
X4.84Y-3.35
X4.84Y-3.45
X4.84Y-3.55
X4.84Y-3.65
X4.84Y-3.75
X4.84Y-3.85
X4.84Y-3.95
X4.84Y-4.05
X4.84Y-4.15
X4.84Y-4.25
X4.84Y-4.35
X4.84Y-4.45
X4.84Y-4.55
X4.84Y-4.65
X4.84Y-4.75
X4.84Y-4.85
X4.84Y-4.95
X4.84Y-5.05
X4.84Y-5.15
X4.84Y-5.25
X4.84Y-5.35
X4.84Y-5.45
X4.84Y-5.55
X4.84Y-5.65
X4.84Y-5.75
X4.84Y-5.85
X4.84Y-5.95
X4.84Y-6.05
X4.84Y-6.15
X5.05Y-3.055
X5.05Y-3.155
X5.05Y-3.255
X5.05Y-3.355
X5.15Y-3.055
X5.15Y-3.155
X5.15Y-3.255
X5.15Y-3.355
X5.207Y-5.75
X5.207Y-6.25
X5.25Y-3.055
X5.25Y-3.155
X5.25Y-3.255
X5.25Y-3.355
X5.307Y-5.302
X5.307Y-5.75
X5.307Y-6.25
X5.307Y-6.352
X5.307Y-6.452
X5.307Y-6.452
X5.35Y-3.055
X5.35Y-3.155
X5.35Y-3.255
X5.35Y-3.355
X5.407Y-5.302
X5.407Y-5.75
X5.407Y-6.25
X5.407Y-6.352
X5.407Y-6.452
X5.45Y-3.055
X5.45Y-3.155
X5.45Y-3.255
X5.45Y-3.355
X5.507Y-5.302
X5.507Y-5.75
X5.507Y-6.25
X5.507Y-6.352
X5.507Y-6.452
X5.6Y-3.085
X5.6Y-3.185
X5.6Y-3.285
X5.6Y-3.385
X5.607Y-5.302
X5.607Y-5.51
X5.607Y-5.61
X5.607Y-5.75
X5.607Y-6.25
X5.607Y-6.352
X5.607Y-6.452
X5.7Y-3.085
X5.7Y-3.185
X5.7Y-3.285
X5.7Y-3.385
X5.707Y-5.302
X5.707Y-5.51
X5.707Y-5.61
X5.707Y-5.75
X5.707Y-6.25
X5.707Y-6.352
X5.707Y-6.452
X5.807Y-5.51
X5.807Y-5.61
X5.807Y-5.75
X5.807Y-6.25
X5.807Y-6.352
X5.807Y-6.452
X5.85Y-3.085
X5.85Y-3.185
X5.85Y-3.285
X5.85Y-3.385
X5.85Y-3.485
X5.852Y-5.199
X5.907Y-5.75
X5.907Y-6.25
X5.95Y-3.085
X5.95Y-3.185
X5.95Y-3.285
X5.95Y-3.385
X5.95Y-3.485
X5.952Y-5.199
X5.953Y-4.714
X6.018Y-5.75
X6.018Y-6.25
X6.05Y-3.085
X6.05Y-3.185
X6.05Y-3.285
X6.05Y-3.385
X6.05Y-3.485
X6.053Y-4.714
X6.118Y-5.302
X6.118Y-5.75
X6.118Y-6.25
X6.118Y-6.352
X6.118Y-6.452
X6.118Y-6.452
X6.15Y-3.085
X6.15Y-3.185
X6.15Y-3.285
X6.15Y-3.385
X6.15Y-3.485
X6.218Y-5.302
X6.218Y-5.75
X6.218Y-6.25
X6.218Y-6.352
X6.218Y-6.452
X6.25Y-3.085
X6.25Y-3.185
X6.25Y-3.285
X6.25Y-3.385
X6.25Y-3.485
X6.318Y-5.302
X6.318Y-5.75
X6.318Y-6.25
X6.318Y-6.352
X6.318Y-6.452
X6.35Y-3.085
X6.35Y-3.185
X6.35Y-3.285
X6.35Y-3.385
X6.35Y-3.485
X6.416Y-5.51
X6.416Y-5.61
X6.418Y-5.302
X6.418Y-5.75
X6.418Y-6.25
X6.418Y-6.352
X6.418Y-6.452
X6.45Y-3.085
X6.45Y-3.185
X6.45Y-3.285
X6.45Y-3.385
X6.45Y-3.485
X6.516Y-5.51
X6.516Y-5.61
X6.518Y-5.302
X6.518Y-5.75
X6.518Y-6.25
X6.518Y-6.352
X6.518Y-6.452
X6.55Y-3.085
X6.55Y-3.185
X6.55Y-3.285
X6.55Y-3.385
X6.55Y-3.485
X6.616Y-5.51
X6.616Y-5.61
X6.618Y-5.75
X6.618Y-6.25
X6.618Y-6.352
X6.618Y-6.452
X6.65Y-3.085
X6.65Y-3.185
X6.65Y-3.285
X6.65Y-3.385
X6.65Y-3.485
X6.718Y-5.75
X6.718Y-6.25
X6.75Y-3.085
X6.75Y-3.185
X6.75Y-3.285
X6.75Y-3.385
X6.75Y-3.485
X6.829Y-5.75
X6.829Y-6.25
X6.85Y-3.085
X6.85Y-3.185
X6.85Y-3.285
X6.85Y-3.385
X6.85Y-3.485
X6.929Y-5.302
X6.929Y-5.75
X6.929Y-6.25
X6.929Y-6.352
X6.929Y-6.452
X6.929Y-6.452
X6.95Y-3.085
X6.95Y-3.185
X6.95Y-3.285
X6.95Y-3.385
X6.95Y-3.485
X6.99Y-5.202
X7.029Y-5.302
X7.029Y-5.75
X7.029Y-6.25
X7.029Y-6.352
X7.029Y-6.452
X7.05Y-3.085
X7.05Y-3.185
X7.05Y-3.285
X7.05Y-3.385
X7.05Y-3.485
X7.09Y-5.202
X7.091Y-4.714
X7.129Y-5.302
X7.129Y-5.75
X7.129Y-6.25
X7.129Y-6.352
X7.129Y-6.452
X7.15Y-3.085
X7.15Y-3.185
X7.15Y-3.285
X7.15Y-3.385
X7.15Y-3.485
X7.191Y-4.714
X7.225Y-5.51
X7.225Y-5.61
X7.229Y-5.302
X7.229Y-5.75
X7.229Y-6.25
X7.229Y-6.352
X7.229Y-6.452
X7.3Y-3.085
X7.3Y-3.185
X7.3Y-3.285
X7.3Y-3.385
X7.325Y-5.51
X7.325Y-5.61
X7.329Y-5.302
X7.329Y-5.75
X7.329Y-6.25
X7.329Y-6.352
X7.329Y-6.452
X7.4Y-3.085
X7.4Y-3.185
X7.4Y-3.285
X7.4Y-3.385
X7.425Y-5.51
X7.425Y-5.61
X7.429Y-5.75
X7.429Y-6.25
X7.429Y-6.352
X7.429Y-6.452
X7.529Y-5.75
X7.529Y-6.25
X7.55Y-3.055
X7.55Y-3.155
X7.55Y-3.255
X7.55Y-3.355
X7.64Y-5.75
X7.64Y-6.25
X7.65Y-3.055
X7.65Y-3.155
X7.65Y-3.255
X7.65Y-3.355
X7.74Y-5.302
X7.74Y-5.75
X7.74Y-6.25
X7.74Y-6.352
X7.74Y-6.452
X7.74Y-6.452
X7.75Y-3.055
X7.75Y-3.155
X7.75Y-3.255
X7.75Y-3.355
X7.8Y-4.99
X7.8Y-5.09
X7.8Y-5.19
X7.84Y-5.302
X7.84Y-5.75
X7.84Y-6.25
X7.84Y-6.352
X7.84Y-6.452
X7.85Y-3.055
X7.85Y-3.155
X7.85Y-3.255
X7.85Y-3.355
X7.852Y-4.844
X7.9Y-4.99
X7.9Y-5.09
X7.9Y-5.19
X7.94Y-5.302
X7.94Y-5.75
X7.94Y-6.25
X7.94Y-6.352
X7.94Y-6.452
X7.95Y-3.055
X7.95Y-3.155
X7.95Y-3.255
X7.95Y-3.355
X7.952Y-4.844
X8.Y-4.99
X8.Y-5.09
X8.Y-5.19
X8.02Y-3.6
X8.021Y-3.5
X8.04Y-5.302
X8.04Y-5.51
X8.04Y-5.61
X8.04Y-5.75
X8.04Y-6.25
X8.04Y-6.352
X8.04Y-6.452
X8.05Y-3.055
X8.05Y-3.155
X8.05Y-3.255
X8.05Y-3.355
X8.052Y-4.844
X8.1Y-4.99
X8.1Y-5.09
X8.1Y-5.19
X8.12Y-3.5
X8.12Y-3.6
X8.14Y-5.302
X8.14Y-5.51
X8.14Y-5.61
X8.14Y-5.75
X8.14Y-6.25
X8.14Y-6.352
X8.14Y-6.452
X8.175Y-3.375
X8.175Y-3.748
X8.2Y-4.99
X8.2Y-5.09
X8.2Y-5.19
X8.22Y-3.5
X8.22Y-3.6
X8.24Y-5.51
X8.24Y-5.61
X8.24Y-5.75
X8.24Y-6.25
X8.24Y-6.352
X8.24Y-6.452
X8.275Y-3.375
X8.275Y-3.748
X8.3Y-4.99
X8.3Y-5.09
X8.3Y-5.19
X8.32Y-3.5
X8.32Y-3.6
X8.34Y-5.75
X8.34Y-6.25
X8.375Y-3.375
X8.375Y-3.748
T5
X5.6Y-3.748
X5.6Y-4.048
X5.6Y-4.148
X5.6Y-4.348
X5.7Y-3.748
X5.7Y-4.048
X5.7Y-4.148
X5.7Y-4.348
X5.8Y-3.748
X5.8Y-4.048
X5.8Y-4.148
X5.8Y-4.348
X5.9Y-3.748
X5.9Y-4.048
X5.9Y-4.148
X5.9Y-4.348
X6.Y-3.748
X6.Y-4.048
X6.Y-4.148
X6.Y-4.348
X6.1Y-3.748
X6.1Y-4.348
X6.2Y-3.748
X6.2Y-4.048
X6.2Y-4.148
X6.2Y-4.348
X6.3Y-3.748
X6.3Y-4.048
X6.3Y-4.148
X6.3Y-4.348
X6.4Y-3.748
X6.4Y-4.048
X6.4Y-4.148
X6.4Y-4.348
X6.5Y-3.748
X6.5Y-4.348
X6.6Y-3.748
X6.6Y-4.348
X6.7Y-3.748
X6.7Y-4.348
X6.8Y-3.748
X6.8Y-4.348
X6.9Y-3.748
X6.9Y-4.348
X7.Y-3.748
X7.Y-4.048
X7.Y-4.148
X7.Y-4.348
X7.1Y-3.748
X7.1Y-4.048
X7.1Y-4.148
X7.1Y-4.348
X7.2Y-3.748
X7.2Y-4.048
X7.2Y-4.148
X7.2Y-4.348
X7.25Y-3.8661
X7.3Y-3.748
X7.3Y-4.048
X7.3Y-4.148
X7.3Y-4.348
X7.35Y-3.8661
X7.4Y-3.748
X7.4Y-4.248
X7.4Y-4.348
X7.45Y-3.8661
X7.5Y-3.748
X7.5Y-4.248
X7.5Y-4.348
X7.55Y-3.8661
X7.6Y-3.748
X7.6Y-4.248
X7.6Y-4.348
X7.65Y-3.8661
X7.7Y-3.748
X7.7Y-4.348
X7.8Y-3.748
X7.8Y-4.248
X7.8Y-4.348
X7.9Y-3.748
X7.9Y-4.348
T6
X4.645Y-6.3
X4.645Y-6.474
X4.745Y-6.3
X4.745Y-6.474
X4.845Y-6.3
X4.845Y-6.474
X4.879Y-6.75
X5.0168Y-6.75
X5.1546Y-6.75
X5.2924Y-6.75
X5.537Y-5.995
X5.62Y-6.75
X5.6748Y-5.995
X5.7578Y-6.75
X5.8126Y-5.995
X5.8956Y-6.75
X5.9504Y-5.995
X6.0334Y-6.75
X6.28Y-6.75
X6.38Y-5.995
X6.4178Y-6.75
X6.5178Y-5.995
X6.5556Y-6.75
X6.6556Y-5.995
X6.6934Y-6.75
X6.7934Y-5.995
X6.94Y-6.75
X7.0778Y-6.75
X7.2156Y-6.75
X7.3534Y-6.75
X7.6Y-6.75
X7.7378Y-6.75
X7.8756Y-6.75
X8.0134Y-6.75
X8.237Y-4.4086
X8.237Y-4.5464
X8.237Y-4.6842
X8.237Y-4.822
T7
X4.6278Y-3.1378
X4.6278Y-6.7992
X8.2892Y-3.1378
X8.2892Y-6.7992
T0
M30
