G04 #@! TF.FileFunction,Soldermask,Top*
%FSLAX46Y46*%
G04 Gerber Fmt 4.6, Leading zero omitted, Abs format (unit mm)*
G04 Created by KiCad (PCBNEW 4.0.7) date 07/15/18 15:00:33*
%MOMM*%
%LPD*%
G01*
G04 APERTURE LIST*
%ADD10C,2.000000*%
%ADD11O,2.100000X2.100000*%
%ADD12R,2.100000X2.100000*%
%ADD13R,2.000000X2.000000*%
%ADD14C,2.000000*%
%ADD15R,2.100000X2.900000*%
%ADD16O,2.100000X2.900000*%
%ADD17R,2.200000X4.000000*%
%ADD18O,2.200000X4.000000*%
%ADD19C,4.100000*%
%ADD20O,2.305000X2.686000*%
%ADD21O,2.178000X2.432000*%
%ADD22R,4.000000X2.200000*%
%ADD23O,4.000000X2.200000*%
%ADD24R,2.178000X2.686000*%
%ADD25O,2.305000X2.940000*%
%ADD26R,2.178000X2.940000*%
%ADD27O,2.000000X2.000000*%
%ADD28C,1.800000*%
%ADD29O,1.800000X1.800000*%
G04 APERTURE END LIST*
D10*
D11*
X153670000Y-78359000D03*
X153670000Y-80899000D03*
X153670000Y-83439000D03*
X153670000Y-85979000D03*
X153670000Y-88519000D03*
X156210000Y-78359000D03*
X156210000Y-80899000D03*
X156210000Y-83439000D03*
X156210000Y-85979000D03*
X156210000Y-88519000D03*
X158750000Y-78359000D03*
X158750000Y-80899000D03*
X158750000Y-83439000D03*
X158750000Y-85979000D03*
X158750000Y-88519000D03*
X161290000Y-78359000D03*
X161290000Y-80899000D03*
X161290000Y-83439000D03*
X161290000Y-85979000D03*
X161290000Y-88519000D03*
X163830000Y-78359000D03*
X163830000Y-80899000D03*
X163830000Y-83439000D03*
X163830000Y-85979000D03*
X163830000Y-88519000D03*
X166370000Y-78359000D03*
X166370000Y-80899000D03*
X166370000Y-83439000D03*
X166370000Y-85979000D03*
X166370000Y-88519000D03*
X168910000Y-78359000D03*
X168910000Y-80899000D03*
X168910000Y-83439000D03*
X168910000Y-85979000D03*
X168910000Y-88519000D03*
X171450000Y-78359000D03*
X171450000Y-80899000D03*
X171450000Y-83439000D03*
X171450000Y-85979000D03*
X171450000Y-88519000D03*
X173990000Y-78359000D03*
X173990000Y-80899000D03*
X173990000Y-83439000D03*
X173990000Y-85979000D03*
X173990000Y-88519000D03*
X176530000Y-78359000D03*
X176530000Y-80899000D03*
X176530000Y-83439000D03*
X176530000Y-85979000D03*
X176530000Y-88519000D03*
X179070000Y-78359000D03*
X179070000Y-80899000D03*
X179070000Y-83439000D03*
X179070000Y-85979000D03*
X179070000Y-88519000D03*
D12*
X191770000Y-77597000D03*
D11*
X191770000Y-80060800D03*
X191770000Y-82753200D03*
X191770000Y-85217000D03*
X181610000Y-78359000D03*
X181610000Y-80899000D03*
X181610000Y-83439000D03*
X181610000Y-85979000D03*
X181610000Y-88519000D03*
X151130000Y-78359000D03*
X151130000Y-80899000D03*
X151130000Y-83439000D03*
X151130000Y-85979000D03*
X151130000Y-88519000D03*
X148590000Y-78359000D03*
X148590000Y-80899000D03*
X148590000Y-83439000D03*
X148590000Y-85979000D03*
X148590000Y-88519000D03*
D13*
X127736600Y-152882600D03*
D14*
X127736600Y-150382600D03*
D13*
X156565600Y-152908000D03*
D14*
X156565600Y-150408000D03*
D15*
X123063000Y-164439600D03*
D16*
X120523000Y-164439600D03*
X117983000Y-164439600D03*
D17*
X123926600Y-171069000D03*
D18*
X127426600Y-171069000D03*
D17*
X130926600Y-171069000D03*
D18*
X134426600Y-171069000D03*
X142748000Y-171069000D03*
X146248000Y-171069000D03*
X149748000Y-171069000D03*
X153248000Y-171069000D03*
X193040000Y-171069000D03*
X196540000Y-171069000D03*
X200040000Y-171069000D03*
X203540000Y-171069000D03*
D17*
X162052000Y-151892000D03*
D18*
X165552000Y-151892000D03*
D17*
X169052000Y-151892000D03*
D18*
X172552000Y-151892000D03*
D19*
X210546000Y-172700000D03*
X210546000Y-79700000D03*
X117546000Y-172700000D03*
D14*
X160020000Y-95199200D03*
X157480000Y-95199200D03*
X154940000Y-95199200D03*
X152400000Y-95199200D03*
X162560000Y-95199200D03*
X165100000Y-95199200D03*
X167640000Y-95199200D03*
X149860000Y-95199200D03*
X147320000Y-95199200D03*
X144780000Y-95199200D03*
X142240000Y-95199200D03*
X142240000Y-110439200D03*
X144780000Y-110439200D03*
X147320000Y-110439200D03*
X149860000Y-110439200D03*
X152400000Y-110439200D03*
X154940000Y-110439200D03*
X157480000Y-110439200D03*
X160020000Y-110439200D03*
X170180000Y-95199200D03*
X172720000Y-95199200D03*
X175260000Y-95199200D03*
X177800000Y-95199200D03*
X180340000Y-95199200D03*
X182880000Y-95199200D03*
X185420000Y-95199200D03*
X187960000Y-95199200D03*
X190500000Y-95199200D03*
X193040000Y-95199200D03*
X195580000Y-95199200D03*
X198120000Y-95199200D03*
D13*
X200660000Y-95199200D03*
D14*
X162560000Y-110439200D03*
X165100000Y-110439200D03*
X167640000Y-110439200D03*
X170180000Y-110439200D03*
X172720000Y-110439200D03*
X175260000Y-110439200D03*
X177800000Y-110439200D03*
X180340000Y-110439200D03*
X182880000Y-110439200D03*
X185420000Y-110439200D03*
X187960000Y-110439200D03*
X190500000Y-110439200D03*
X193040000Y-110439200D03*
X195580000Y-110439200D03*
X198120000Y-110439200D03*
X200660000Y-110439200D03*
X198120000Y-107899200D03*
X193040000Y-107899200D03*
X190500000Y-107899200D03*
X187960000Y-107899200D03*
X185420000Y-102819200D03*
X182880000Y-102819200D03*
X180340000Y-102819200D03*
X177800000Y-102819200D03*
X162560000Y-102819200D03*
X160020000Y-102819200D03*
X157480000Y-102819200D03*
X152400000Y-102819200D03*
X149860000Y-102819200D03*
X147320000Y-102819200D03*
X144780000Y-102819200D03*
X142240000Y-102819200D03*
X142240000Y-105359200D03*
X144780000Y-105359200D03*
X147320000Y-105359200D03*
X149860000Y-105359200D03*
X152400000Y-105359200D03*
X157480000Y-105359200D03*
X160020000Y-105359200D03*
X162560000Y-105359200D03*
X177800000Y-105359200D03*
X180340000Y-105359200D03*
X182880000Y-105359200D03*
X185420000Y-105359200D03*
X194310000Y-98199200D03*
X191770000Y-98199200D03*
X189230000Y-98199200D03*
X186690000Y-98199200D03*
X184150000Y-98199200D03*
D12*
X187960000Y-78359000D03*
D11*
X185420000Y-78359000D03*
D12*
X187960000Y-80899000D03*
D11*
X185420000Y-80899000D03*
D12*
X187960000Y-83439000D03*
D11*
X185420000Y-83439000D03*
D20*
X181076600Y-161467800D03*
X183616600Y-161467800D03*
X178536600Y-161467800D03*
X175996600Y-161467800D03*
D21*
X175996600Y-134797800D03*
X178536600Y-134797800D03*
X181076600Y-134797800D03*
D20*
X186156600Y-161467800D03*
X188696600Y-161467800D03*
D21*
X186156600Y-134797800D03*
X183616600Y-134797800D03*
D20*
X175996600Y-164007800D03*
X181076600Y-164007800D03*
X175996600Y-164007800D03*
X188696600Y-164007800D03*
X186156600Y-164007800D03*
X183616600Y-164007800D03*
X178536600Y-164007800D03*
D13*
X208280000Y-152908000D03*
D14*
X208280000Y-150408000D03*
D18*
X159512000Y-171069000D03*
X163012000Y-171069000D03*
X166512000Y-171069000D03*
X170012000Y-171069000D03*
D22*
X209600800Y-122478800D03*
D23*
X209600800Y-118978800D03*
X209600800Y-115478800D03*
X209600800Y-111978800D03*
D18*
X176276000Y-171069000D03*
X179776000Y-171069000D03*
X183276000Y-171069000D03*
X186776000Y-171069000D03*
D12*
X210896200Y-131826000D03*
D11*
X208203800Y-131826000D03*
X205816200Y-131826000D03*
X203123800Y-131826000D03*
X200660000Y-131826000D03*
X198120000Y-131826000D03*
D12*
X210896200Y-126746000D03*
D11*
X208203800Y-126746000D03*
X205816200Y-126746000D03*
X203123800Y-126746000D03*
X200660000Y-126746000D03*
X198120000Y-126746000D03*
D12*
X210896200Y-129286000D03*
D11*
X208203800Y-129286000D03*
X205816200Y-129286000D03*
X203123800Y-129286000D03*
X200660000Y-129286000D03*
X198120000Y-129286000D03*
D13*
X134696200Y-152781000D03*
D14*
X134645400Y-150408000D03*
D13*
X191236600Y-152908000D03*
D14*
X191236600Y-150408000D03*
D12*
X187960000Y-85979000D03*
D11*
X185420000Y-85979000D03*
D12*
X144856200Y-78359000D03*
D11*
X142163800Y-78359000D03*
D12*
X144856200Y-80899000D03*
D11*
X142163800Y-80899000D03*
D12*
X144856200Y-83439000D03*
D11*
X142163800Y-83439000D03*
D12*
X144856200Y-85979000D03*
D11*
X142163800Y-85979000D03*
X147497800Y-139954000D03*
X147497800Y-142494000D03*
X144957800Y-139954000D03*
X144957800Y-142494000D03*
X142417800Y-139954000D03*
X142417800Y-142494000D03*
X168046400Y-139954000D03*
X168046400Y-142494000D03*
X165506400Y-139954000D03*
X165506400Y-142494000D03*
X162966400Y-139954000D03*
X162966400Y-142494000D03*
D13*
X203200000Y-116332000D03*
D14*
X200700000Y-116332000D03*
D13*
X178130200Y-152908000D03*
D14*
X178130200Y-150408000D03*
D12*
X211328000Y-91440000D03*
D11*
X208788000Y-91440000D03*
X206248000Y-91440000D03*
X203708000Y-91440000D03*
D12*
X211328000Y-88900000D03*
D11*
X208788000Y-88900000D03*
X206248000Y-88900000D03*
X203733400Y-88900000D03*
D20*
X137337800Y-158877000D03*
D21*
X137261600Y-146177000D03*
D20*
X139877800Y-158877000D03*
X134797800Y-158877000D03*
X132257800Y-158877000D03*
D21*
X132257800Y-146177000D03*
X134797800Y-146177000D03*
X139954000Y-146177000D03*
X142417800Y-146177000D03*
X144957800Y-146177000D03*
X147497800Y-146177000D03*
X150037800Y-146177000D03*
D20*
X142417800Y-158877000D03*
X144957800Y-158877000D03*
X147497800Y-158877000D03*
D24*
X150164800Y-158877000D03*
D20*
X157937200Y-158877000D03*
D21*
X157937200Y-146177000D03*
D20*
X160477200Y-158877000D03*
X155397200Y-158877000D03*
X152857200Y-158877000D03*
D21*
X152857200Y-146177000D03*
X155397200Y-146177000D03*
X160477200Y-146177000D03*
X163017200Y-146177000D03*
X165557200Y-146177000D03*
X168097200Y-146177000D03*
X170637200Y-146177000D03*
D20*
X163017200Y-158877000D03*
X165557200Y-158877000D03*
X168097200Y-158877000D03*
D24*
X170764200Y-158877000D03*
D25*
X178536600Y-158750000D03*
D21*
X178536600Y-146177000D03*
D25*
X181076600Y-158750000D03*
D20*
X175996600Y-158877000D03*
X173456600Y-158877000D03*
D21*
X173456600Y-146177000D03*
X175996600Y-146177000D03*
X181076600Y-146177000D03*
X183616600Y-146177000D03*
X186156600Y-146177000D03*
X188696600Y-146177000D03*
X191236600Y-146177000D03*
D25*
X183616600Y-158750000D03*
X186156600Y-158750000D03*
X188696600Y-158750000D03*
D24*
X191236600Y-158750000D03*
D11*
X207645000Y-95199200D03*
X210185000Y-95199200D03*
X212725000Y-95199200D03*
X207645000Y-85725000D03*
X210185000Y-85725000D03*
X212725000Y-85725000D03*
D20*
X160477200Y-161467800D03*
X163017200Y-161467800D03*
X157937200Y-161467800D03*
X155397200Y-161467800D03*
D21*
X155397200Y-134797800D03*
X157937200Y-134797800D03*
X160477200Y-134797800D03*
D20*
X165557200Y-161467800D03*
X168097200Y-161467800D03*
D21*
X165557200Y-134797800D03*
X163017200Y-134797800D03*
D20*
X155397200Y-164007800D03*
X160477200Y-164007800D03*
X155397200Y-164007800D03*
X168097200Y-164007800D03*
X165557200Y-164007800D03*
X163017200Y-164007800D03*
X157937200Y-164007800D03*
X139877800Y-161467800D03*
X142417800Y-161467800D03*
X137337800Y-161467800D03*
X134797800Y-161467800D03*
D21*
X134797800Y-134797800D03*
X137337800Y-134797800D03*
X139877800Y-134797800D03*
D20*
X144957800Y-161467800D03*
X147497800Y-161467800D03*
D21*
X144957800Y-134797800D03*
X142417800Y-134797800D03*
D20*
X134797800Y-164007800D03*
X139877800Y-164007800D03*
X134797800Y-164007800D03*
X147497800Y-164007800D03*
X144957800Y-164007800D03*
X142417800Y-164007800D03*
X137337800Y-164007800D03*
X201676000Y-161467800D03*
X204216000Y-161467800D03*
X199136000Y-161467800D03*
X196596000Y-161467800D03*
D21*
X196596000Y-134797800D03*
X199136000Y-134797800D03*
X201676000Y-134797800D03*
D20*
X206756000Y-161467800D03*
X209296000Y-161467800D03*
D21*
X206756000Y-134797800D03*
X204216000Y-134797800D03*
D20*
X196596000Y-164007800D03*
X201676000Y-164007800D03*
X196596000Y-164007800D03*
X209296000Y-164007800D03*
X206756000Y-164007800D03*
X204216000Y-164007800D03*
X199136000Y-164007800D03*
D25*
X199136000Y-158750000D03*
D20*
X199136000Y-146177000D03*
D25*
X201676000Y-158750000D03*
D20*
X196596000Y-158623000D03*
X194056000Y-158623000D03*
X194056000Y-145923000D03*
X196596000Y-145923000D03*
X201676000Y-146177000D03*
X204216000Y-146050000D03*
X206756000Y-146050000D03*
X209296000Y-146050000D03*
X211836000Y-146050000D03*
D25*
X204216000Y-158750000D03*
X206756000Y-158750000D03*
X209296000Y-158750000D03*
D26*
X211709000Y-158369000D03*
D12*
X130810000Y-77597000D03*
D11*
X130810000Y-80213200D03*
X130810000Y-82677000D03*
X130810000Y-85217000D03*
D12*
X194310000Y-77597000D03*
D11*
X194310000Y-80060800D03*
X194310000Y-82753200D03*
X194310000Y-85217000D03*
D12*
X204597000Y-123037600D03*
D11*
X201904600Y-123037600D03*
X199440800Y-123037600D03*
D12*
X199390000Y-77597000D03*
D11*
X199390000Y-80137000D03*
X199390000Y-82677000D03*
X199390000Y-85217000D03*
D12*
X196850000Y-77597000D03*
D11*
X196850000Y-80137000D03*
X196850000Y-82677000D03*
X196850000Y-85217000D03*
D12*
X201930000Y-77597000D03*
D11*
X201930000Y-80137000D03*
X201930000Y-82677000D03*
X201930000Y-85217000D03*
D12*
X204470000Y-77597000D03*
D11*
X204470000Y-80137000D03*
X204470000Y-82677000D03*
X204470000Y-85217000D03*
D13*
X138480800Y-129895600D03*
D27*
X161340800Y-122275600D03*
X141020800Y-129895600D03*
X158800800Y-122275600D03*
X143560800Y-129895600D03*
X156260800Y-122275600D03*
X146100800Y-129895600D03*
X153720800Y-122275600D03*
X148640800Y-129895600D03*
X151180800Y-122275600D03*
X151180800Y-129895600D03*
X148640800Y-122275600D03*
X153720800Y-129895600D03*
X146100800Y-122275600D03*
X156260800Y-129895600D03*
X143560800Y-122275600D03*
X158800800Y-129895600D03*
X141020800Y-122275600D03*
X161340800Y-129895600D03*
X138480800Y-122275600D03*
D13*
X167386000Y-129870200D03*
D27*
X190246000Y-122250200D03*
X169926000Y-129870200D03*
X187706000Y-122250200D03*
X172466000Y-129870200D03*
X185166000Y-122250200D03*
X175006000Y-129870200D03*
X182626000Y-122250200D03*
X177546000Y-129870200D03*
X180086000Y-122250200D03*
X180086000Y-129870200D03*
X177546000Y-122250200D03*
X182626000Y-129870200D03*
X175006000Y-122250200D03*
X185166000Y-129870200D03*
X172466000Y-122250200D03*
X187706000Y-129870200D03*
X169926000Y-122250200D03*
X190246000Y-129870200D03*
X167386000Y-122250200D03*
D19*
X117546000Y-79700000D03*
D15*
X123063000Y-160020000D03*
D16*
X120523000Y-160020000D03*
X117983000Y-160020000D03*
D12*
X188595000Y-139954000D03*
D11*
X188595000Y-142494000D03*
X186055000Y-139954000D03*
X186055000Y-142494000D03*
X183515000Y-139954000D03*
X183515000Y-142494000D03*
D12*
X133350000Y-77597000D03*
D11*
X133350000Y-80137000D03*
X133350000Y-82677000D03*
X133350000Y-85217000D03*
D12*
X135890000Y-77597000D03*
D11*
X135890000Y-80137000D03*
X135890000Y-82677000D03*
X135890000Y-85217000D03*
D12*
X138430000Y-77597000D03*
D11*
X138430000Y-80137000D03*
X138430000Y-82677000D03*
X138430000Y-85217000D03*
D12*
X115316000Y-85090000D03*
D11*
X117856000Y-85090000D03*
X115316000Y-87630000D03*
X117856000Y-87630000D03*
X115316000Y-90170000D03*
X117856000Y-90170000D03*
X115316000Y-92710000D03*
X117856000Y-92710000D03*
X115316000Y-95250000D03*
X117856000Y-95250000D03*
X115316000Y-97790000D03*
X117856000Y-97790000D03*
X115316000Y-100330000D03*
X117856000Y-100330000D03*
X115316000Y-102870000D03*
X117856000Y-102870000D03*
X115316000Y-105410000D03*
X117856000Y-105410000D03*
X115316000Y-107950000D03*
X117856000Y-107950000D03*
X115316000Y-110490000D03*
X117856000Y-110490000D03*
X115316000Y-113030000D03*
X117856000Y-113030000D03*
X115316000Y-115570000D03*
X117856000Y-115570000D03*
X115316000Y-118110000D03*
X117856000Y-118110000D03*
X115316000Y-120650000D03*
X117856000Y-120650000D03*
X115316000Y-123190000D03*
X117856000Y-123190000D03*
X115316000Y-125730000D03*
X117856000Y-125730000D03*
X115316000Y-128270000D03*
X117856000Y-128270000D03*
X115316000Y-130810000D03*
X117856000Y-130810000D03*
X115316000Y-133350000D03*
X117856000Y-133350000D03*
X115316000Y-135890000D03*
X117856000Y-135890000D03*
X115316000Y-138430000D03*
X117856000Y-138430000D03*
X115316000Y-140970000D03*
X117856000Y-140970000D03*
X115316000Y-143510000D03*
X117856000Y-143510000D03*
X115316000Y-146050000D03*
X117856000Y-146050000D03*
X115316000Y-148590000D03*
X117856000Y-148590000D03*
X115316000Y-151130000D03*
X117856000Y-151130000D03*
X115316000Y-153670000D03*
X117856000Y-153670000D03*
X115316000Y-156210000D03*
X117856000Y-156210000D03*
D12*
X120396000Y-85090000D03*
D11*
X122936000Y-85090000D03*
X120396000Y-87630000D03*
X122936000Y-87630000D03*
X120396000Y-90170000D03*
X122936000Y-90170000D03*
X120396000Y-92710000D03*
X122936000Y-92710000D03*
X120396000Y-95250000D03*
X122936000Y-95250000D03*
X120396000Y-97790000D03*
X122936000Y-97790000D03*
X120396000Y-100330000D03*
X122936000Y-100330000D03*
X120396000Y-102870000D03*
X122936000Y-102870000D03*
X120396000Y-105410000D03*
X122936000Y-105410000D03*
X120396000Y-107950000D03*
X122936000Y-107950000D03*
X120396000Y-110490000D03*
X122936000Y-110490000D03*
X120396000Y-113030000D03*
X122936000Y-113030000D03*
X120396000Y-115570000D03*
X122936000Y-115570000D03*
X120396000Y-118110000D03*
X122936000Y-118110000D03*
X120396000Y-120650000D03*
X122936000Y-120650000D03*
X120396000Y-123190000D03*
X122936000Y-123190000D03*
X120396000Y-125730000D03*
X122936000Y-125730000D03*
X120396000Y-128270000D03*
X122936000Y-128270000D03*
X120396000Y-130810000D03*
X122936000Y-130810000D03*
X120396000Y-133350000D03*
X122936000Y-133350000D03*
X120396000Y-135890000D03*
X122936000Y-135890000D03*
X120396000Y-138430000D03*
X122936000Y-138430000D03*
X120396000Y-140970000D03*
X122936000Y-140970000D03*
X120396000Y-143510000D03*
X122936000Y-143510000D03*
X120396000Y-146050000D03*
X122936000Y-146050000D03*
X120396000Y-148590000D03*
X122936000Y-148590000D03*
X120396000Y-151130000D03*
X122936000Y-151130000D03*
X120396000Y-153670000D03*
X122936000Y-153670000D03*
X120396000Y-156210000D03*
X122936000Y-156210000D03*
D12*
X177546000Y-132130800D03*
D11*
X180086000Y-132130800D03*
D28*
X182575200Y-132181600D03*
D29*
X190195200Y-132181600D03*
D28*
X167411400Y-132181600D03*
D29*
X175031400Y-132181600D03*
D12*
X148640800Y-132054600D03*
D11*
X151180800Y-132054600D03*
D12*
X153746200Y-119735600D03*
D11*
X151206200Y-119735600D03*
D12*
X180111400Y-119735600D03*
D11*
X182651400Y-119735600D03*
D28*
X138760200Y-132029200D03*
D29*
X146380200Y-132029200D03*
D28*
X153644600Y-132105400D03*
D29*
X161264600Y-132105400D03*
D28*
X163931600Y-119710200D03*
D29*
X156311600Y-119710200D03*
D28*
X147523200Y-119684800D03*
D29*
X139903200Y-119684800D03*
D28*
X169900600Y-119710200D03*
D29*
X177520600Y-119710200D03*
D28*
X185191400Y-119710200D03*
D29*
X192811400Y-119710200D03*
D12*
X128270000Y-77597000D03*
D11*
X128270000Y-80137000D03*
X128270000Y-82677000D03*
X128270000Y-85217000D03*
D12*
X209296000Y-139954000D03*
D11*
X209296000Y-142494000D03*
X206756000Y-139954000D03*
X206756000Y-142494000D03*
X204216000Y-139954000D03*
X204216000Y-142494000D03*
D17*
X140639800Y-151892000D03*
D18*
X144139800Y-151892000D03*
D17*
X147639800Y-151892000D03*
D18*
X151139800Y-151892000D03*
M02*
