G04 #@! TF.FileFunction,Soldermask,Top*
%FSLAX46Y46*%
G04 Gerber Fmt 4.6, Leading zero omitted, Abs format (unit mm)*
G04 Created by KiCad (PCBNEW 4.0.7) date 10/08/18 18:30:48*
%MOMM*%
%LPD*%
G01*
G04 APERTURE LIST*
%ADD10C,2.000000*%
%ADD11O,2.100000X2.100000*%
%ADD12O,2.876500X2.432000*%
%ADD13R,2.101800X2.101800*%
%ADD14C,2.101800*%
%ADD15R,2.432000X2.876500*%
%ADD16O,2.432000X2.876500*%
%ADD17C,1.800000*%
%ADD18O,1.800000X1.800000*%
%ADD19R,2.876500X2.432000*%
%ADD20R,2.100000X2.100000*%
%ADD21O,2.686000X2.305000*%
%ADD22R,2.432000X2.178000*%
%ADD23O,2.432000X2.178000*%
%ADD24O,2.051000X2.686000*%
%ADD25O,2.000000X2.000000*%
%ADD26R,2.000000X2.000000*%
%ADD27C,4.100000*%
%ADD28R,2.876500X2.101800*%
%ADD29C,2.000000*%
%ADD30O,2.940000X2.305000*%
G04 APERTURE END LIST*
D10*
D11*
X99695000Y-113030000D03*
X99695000Y-110490000D03*
X99695000Y-107950000D03*
X99695000Y-105410000D03*
X97155000Y-113030000D03*
X97155000Y-110490000D03*
X97155000Y-107950000D03*
X97155000Y-105410000D03*
X94615000Y-113030000D03*
X94615000Y-110490000D03*
X94615000Y-107950000D03*
X94615000Y-105410000D03*
X92075000Y-113030000D03*
X92075000Y-110490000D03*
X92075000Y-107950000D03*
X92075000Y-105410000D03*
X89535000Y-113030000D03*
X89535000Y-110490000D03*
X89535000Y-107950000D03*
X89535000Y-105410000D03*
X86995000Y-113030000D03*
X86995000Y-110490000D03*
X86995000Y-107950000D03*
X86995000Y-105410000D03*
X84455000Y-113030000D03*
X84455000Y-110490000D03*
X84455000Y-107950000D03*
X84455000Y-105410000D03*
X81915000Y-113030000D03*
X81915000Y-110490000D03*
X81915000Y-107950000D03*
X81915000Y-105410000D03*
X79375000Y-113030000D03*
X79375000Y-110490000D03*
X79375000Y-107950000D03*
X79375000Y-105410000D03*
X76835000Y-113030000D03*
X76835000Y-110490000D03*
X76835000Y-107950000D03*
X76835000Y-105410000D03*
X74295000Y-113030000D03*
X74295000Y-110490000D03*
X74295000Y-107950000D03*
X74295000Y-105410000D03*
X71755000Y-113030000D03*
X71755000Y-110490000D03*
X71755000Y-107950000D03*
X71755000Y-105410000D03*
X69215000Y-113030000D03*
X69215000Y-110490000D03*
X69215000Y-107950000D03*
X69215000Y-105410000D03*
D12*
X54711600Y-93573600D03*
X54711600Y-97073600D03*
X54711600Y-100573600D03*
X54711600Y-104073600D03*
X54711600Y-73660000D03*
X54711600Y-77160000D03*
X54711600Y-80660000D03*
X54711600Y-84160000D03*
D13*
X61214000Y-105968800D03*
D14*
X61214000Y-108468800D03*
D13*
X64363600Y-55118000D03*
D14*
X64363600Y-57618000D03*
D15*
X146583400Y-72694800D03*
D16*
X144083400Y-72694800D03*
D13*
X137058400Y-80111600D03*
D14*
X134558400Y-80111600D03*
D12*
X54711600Y-55880000D03*
X54711600Y-59380000D03*
X54711600Y-62880000D03*
X54711600Y-66380000D03*
D17*
X109220000Y-63500000D03*
D18*
X116840000Y-63500000D03*
D17*
X109220000Y-66040000D03*
D18*
X116840000Y-66040000D03*
D11*
X66675000Y-113030000D03*
X66675000Y-110490000D03*
X66675000Y-107950000D03*
X66675000Y-105410000D03*
D19*
X145170000Y-65786000D03*
D12*
X145170000Y-62286000D03*
D19*
X145170000Y-58786000D03*
D12*
X145170000Y-55286000D03*
D19*
X145161000Y-104394000D03*
D12*
X145161000Y-100894000D03*
D19*
X145161000Y-97394000D03*
D12*
X145161000Y-93894000D03*
D20*
X124460000Y-50038000D03*
D11*
X124460000Y-52578000D03*
X124460000Y-55118000D03*
X124460000Y-57658000D03*
X124460000Y-60198000D03*
X124460000Y-62738000D03*
D20*
X129540000Y-50038000D03*
D11*
X129540000Y-52578000D03*
X129540000Y-55118000D03*
X129540000Y-57658000D03*
X129540000Y-60198000D03*
X129540000Y-62738000D03*
D20*
X119380000Y-50038000D03*
D11*
X119380000Y-52578000D03*
X119380000Y-55118000D03*
X119380000Y-57658000D03*
X119380000Y-60198000D03*
X119380000Y-62738000D03*
D20*
X136398000Y-62738000D03*
D11*
X136398000Y-65278000D03*
D20*
X136398000Y-67818000D03*
X133858000Y-62738000D03*
D11*
X133858000Y-65278000D03*
D20*
X133858000Y-67818000D03*
D21*
X64465200Y-69494400D03*
X64465200Y-72034400D03*
X64465200Y-66954400D03*
X64465200Y-64414400D03*
D22*
X91389200Y-64414400D03*
D23*
X91389200Y-66954400D03*
X91389200Y-69494400D03*
D21*
X64465200Y-74574400D03*
X64465200Y-77114400D03*
D23*
X91389200Y-74574400D03*
X91389200Y-72034400D03*
D21*
X61925200Y-64414400D03*
X61925200Y-69494400D03*
X61925200Y-64414400D03*
X61925200Y-77114400D03*
X61925200Y-74574400D03*
X61925200Y-72034400D03*
X61925200Y-66954400D03*
X64465200Y-91440000D03*
X64465200Y-93980000D03*
X64465200Y-88900000D03*
X64465200Y-86360000D03*
D22*
X91389200Y-86360000D03*
D23*
X91389200Y-88900000D03*
X91389200Y-91440000D03*
D21*
X64465200Y-96520000D03*
X64465200Y-99060000D03*
D23*
X91389200Y-96520000D03*
X91389200Y-93980000D03*
D21*
X61925200Y-86360000D03*
X61925200Y-91440000D03*
X61925200Y-86360000D03*
X61925200Y-99060000D03*
X61925200Y-96520000D03*
X61925200Y-93980000D03*
X61925200Y-88900000D03*
D24*
X127000000Y-68580000D03*
D25*
X104140000Y-76200000D03*
X124460000Y-68580000D03*
X106680000Y-76200000D03*
X121920000Y-68580000D03*
X109220000Y-76200000D03*
X119380000Y-68580000D03*
X111760000Y-76200000D03*
X116840000Y-68580000D03*
X114300000Y-76200000D03*
X114300000Y-68580000D03*
X116840000Y-76200000D03*
X111760000Y-68580000D03*
X119380000Y-76200000D03*
X109220000Y-68580000D03*
X121920000Y-76200000D03*
X106680000Y-68580000D03*
X124460000Y-76200000D03*
X104140000Y-68580000D03*
D26*
X127000000Y-76200000D03*
D11*
X85344000Y-72034400D03*
D20*
X87884000Y-72034400D03*
D11*
X85344000Y-74574400D03*
D20*
X87884000Y-74574400D03*
D11*
X85344000Y-77114400D03*
D20*
X87884000Y-77114400D03*
D11*
X85344000Y-93980000D03*
D20*
X87884000Y-93980000D03*
D11*
X85344000Y-96520000D03*
D20*
X87884000Y-96520000D03*
D11*
X85344000Y-99060000D03*
D20*
X87884000Y-99060000D03*
D11*
X91440000Y-55118000D03*
X93980000Y-55118000D03*
X96520000Y-55118000D03*
X99060000Y-55118000D03*
X101600000Y-55118000D03*
X104140000Y-55118000D03*
X106680000Y-55118000D03*
X109220000Y-55118000D03*
X111760000Y-55118000D03*
X114300000Y-55118000D03*
D27*
X54000000Y-111000000D03*
X146000000Y-111000000D03*
X146000000Y-49000000D03*
X54000000Y-49000000D03*
D20*
X114300000Y-50038000D03*
D11*
X114300000Y-52578000D03*
D20*
X111760000Y-50038000D03*
D11*
X111760000Y-52578000D03*
D20*
X109220000Y-50038000D03*
D11*
X109220000Y-52578000D03*
D20*
X106680000Y-50038000D03*
D11*
X106680000Y-52578000D03*
D20*
X104140000Y-50038000D03*
D11*
X104140000Y-52578000D03*
D20*
X101600000Y-50038000D03*
D11*
X101600000Y-52578000D03*
D20*
X99060000Y-50038000D03*
D11*
X99060000Y-52578000D03*
D20*
X96520000Y-50038000D03*
D11*
X96520000Y-52578000D03*
D20*
X93980000Y-50038000D03*
D11*
X93980000Y-52578000D03*
D20*
X91440000Y-50038000D03*
D11*
X91440000Y-52578000D03*
D17*
X109220000Y-81280000D03*
D18*
X116840000Y-81280000D03*
D17*
X109220000Y-83820000D03*
D18*
X116840000Y-83820000D03*
D20*
X87630000Y-50038000D03*
D11*
X87630000Y-52578000D03*
D20*
X85090000Y-50038000D03*
D11*
X85090000Y-52578000D03*
D20*
X82550000Y-50038000D03*
D11*
X82550000Y-52578000D03*
D20*
X80010000Y-50038000D03*
D11*
X80010000Y-52578000D03*
D20*
X77470000Y-50038000D03*
D11*
X77470000Y-52578000D03*
D20*
X74930000Y-50038000D03*
D11*
X74930000Y-52578000D03*
D20*
X132080000Y-113030000D03*
D11*
X132080000Y-110490000D03*
D20*
X134620000Y-113030000D03*
D11*
X134620000Y-110490000D03*
D20*
X137160000Y-113030000D03*
D11*
X137160000Y-110490000D03*
D20*
X139700000Y-113030000D03*
D11*
X139700000Y-110490000D03*
X139700000Y-107950000D03*
X137160000Y-107950000D03*
X134620000Y-107950000D03*
X132080000Y-107950000D03*
D20*
X103505000Y-105410000D03*
D11*
X106045000Y-105410000D03*
D20*
X103505000Y-107950000D03*
D11*
X106045000Y-107950000D03*
D20*
X103505000Y-110490000D03*
D11*
X106045000Y-110490000D03*
D20*
X103505000Y-113030000D03*
D11*
X106045000Y-113030000D03*
D28*
X143332200Y-80264000D03*
D12*
X143332200Y-82804000D03*
D28*
X143332200Y-85344000D03*
D20*
X65024000Y-46482000D03*
D11*
X65024000Y-49022000D03*
D20*
X62484000Y-46482000D03*
D11*
X62484000Y-49022000D03*
D20*
X59944000Y-46482000D03*
D11*
X59944000Y-49022000D03*
X110236000Y-107950000D03*
X112776000Y-107950000D03*
X115316000Y-107950000D03*
X117856000Y-107950000D03*
X120396000Y-107950000D03*
X122936000Y-107950000D03*
X125476000Y-107950000D03*
X128016000Y-107950000D03*
D20*
X110236000Y-113030000D03*
D11*
X110236000Y-110490000D03*
D20*
X112776000Y-113030000D03*
D11*
X112776000Y-110490000D03*
D20*
X115316000Y-113030000D03*
D11*
X115316000Y-110490000D03*
D20*
X117856000Y-113030000D03*
D11*
X117856000Y-110490000D03*
D20*
X120396000Y-113030000D03*
D11*
X120396000Y-110490000D03*
D20*
X122936000Y-113030000D03*
D11*
X122936000Y-110490000D03*
D20*
X125476000Y-113030000D03*
D11*
X125476000Y-110490000D03*
D20*
X128016000Y-113030000D03*
D11*
X128016000Y-110490000D03*
D17*
X119380000Y-78740000D03*
D18*
X127000000Y-78740000D03*
D17*
X119380000Y-81280000D03*
D18*
X127000000Y-81280000D03*
D17*
X119380000Y-83820000D03*
D18*
X127000000Y-83820000D03*
D17*
X100076000Y-94488000D03*
D18*
X100076000Y-102108000D03*
D17*
X97536000Y-94488000D03*
D18*
X97536000Y-102108000D03*
D17*
X94996000Y-94488000D03*
D18*
X94996000Y-102108000D03*
D11*
X104140000Y-66040000D03*
X106680000Y-66040000D03*
X104140000Y-78740000D03*
X106680000Y-78740000D03*
D29*
X104902000Y-101600000D03*
X104902000Y-86360000D03*
X107442000Y-101600000D03*
X109982000Y-101600000D03*
X112522000Y-101600000D03*
X115062000Y-101600000D03*
X117602000Y-101600000D03*
X120142000Y-101600000D03*
X122682000Y-101600000D03*
X125222000Y-101600000D03*
X127762000Y-101600000D03*
X130302000Y-101600000D03*
X132842000Y-101600000D03*
X135382000Y-101600000D03*
D26*
X137922000Y-101600000D03*
D29*
X127762000Y-99060000D03*
X125222000Y-99060000D03*
X107442000Y-86360000D03*
X109982000Y-86360000D03*
X112522000Y-86360000D03*
X115062000Y-86360000D03*
X117602000Y-86360000D03*
X120142000Y-86360000D03*
X122682000Y-86360000D03*
X125222000Y-86360000D03*
X127762000Y-86360000D03*
X130302000Y-86360000D03*
X132842000Y-86360000D03*
X135382000Y-86360000D03*
D25*
X137922000Y-86360000D03*
D29*
X122682000Y-93980000D03*
X120142000Y-93980000D03*
X117602000Y-93980000D03*
X115062000Y-93980000D03*
X112522000Y-93980000D03*
X109982000Y-93980000D03*
X107442000Y-93980000D03*
X107442000Y-96520000D03*
X109982000Y-96520000D03*
X112522000Y-96520000D03*
X115062000Y-96520000D03*
X117602000Y-96520000D03*
X120142000Y-96520000D03*
X122682000Y-96520000D03*
D20*
X136398000Y-57658000D03*
D11*
X136398000Y-55118000D03*
X136398000Y-52578000D03*
X136398000Y-50038000D03*
D20*
X133858000Y-57658000D03*
D11*
X133858000Y-55118000D03*
X133858000Y-52578000D03*
X133858000Y-50038000D03*
D30*
X69088000Y-88900000D03*
D21*
X81407000Y-88900000D03*
D30*
X69088000Y-91440000D03*
D21*
X68961000Y-86360000D03*
X68961000Y-83820000D03*
X81407000Y-83820000D03*
X81407000Y-86360000D03*
X81407000Y-91440000D03*
X81407000Y-93980000D03*
X81407000Y-96520000D03*
X81407000Y-99060000D03*
X81407000Y-101600000D03*
D30*
X69088000Y-93980000D03*
X69088000Y-96520000D03*
X69088000Y-99060000D03*
X69088000Y-101600000D03*
X69088000Y-66954400D03*
D21*
X81407000Y-66954400D03*
D30*
X69088000Y-69494400D03*
D21*
X68961000Y-64414400D03*
X68961000Y-61874400D03*
X81407000Y-61874400D03*
X81407000Y-64414400D03*
X81407000Y-69494400D03*
X81407000Y-72034400D03*
X81407000Y-74574400D03*
X81407000Y-77114400D03*
X81407000Y-79654400D03*
D30*
X69088000Y-72034400D03*
X69088000Y-74574400D03*
X69088000Y-77114400D03*
X69088000Y-79654400D03*
M02*
